<?xml version="1.0" encoding="UTF-8"?><svg xmlns="http://www.w3.org/2000/svg" xmlns:xlink="http://www.w3.org/1999/xlink" viewBox="0 0 753.29 384.1"><defs><style>.cls-1,.cls-2{mix-blend-mode:multiply;}.cls-1,.cls-3{opacity:.4;}.cls-4{fill:#ed6b66;}.cls-4,.cls-5,.cls-6,.cls-2,.cls-7,.cls-8,.cls-9,.cls-10,.cls-11,.cls-12,.cls-13,.cls-14,.cls-15,.cls-16,.cls-17,.cls-18,.cls-19,.cls-20,.cls-21,.cls-22,.cls-23,.cls-24,.cls-25,.cls-26,.cls-27,.cls-28,.cls-29,.cls-30,.cls-31,.cls-32,.cls-33,.cls-34,.cls-3{stroke-width:0px;}.cls-5{fill:url(#linear-gradient);}.cls-6,.cls-35{fill:#231f20;}.cls-2,.cls-7,.cls-36{opacity:.2;}.cls-2,.cls-17{fill:#f9aa83;}.cls-7{fill:#69412d;}.cls-8{fill:#f9f9fa;}.cls-9{fill:#1a1a1a;}.cls-10{fill:#e8b481;}.cls-37{isolation:isolate;}.cls-11{fill:#f7f8f8;}.cls-12{fill:#e5e5e5;}.cls-13,.cls-24{fill:#e4e4e4;}.cls-14{fill:#f47b67;}.cls-15{fill:#ef9851;}.cls-16{fill:#cacaca;}.cls-18{fill:#4a4a4a;}.cls-19{fill:#f1f0f0;}.cls-20{fill:#fffffd;opacity:.3;}.cls-21{fill:#faac65;}.cls-22{fill:#111;}.cls-23{fill:#2b2c2b;}.cls-24{mix-blend-mode:color-burn;}.cls-25{fill:url(#linear-gradient-2);}.cls-26{fill:#fbb566;}.cls-35{font-family:UDDigiKyokashoNP-B, 'UD Digi Kyokasho NP-B';font-size:344.11px;}.cls-27{fill:#fff1ec;}.cls-28{fill:#4e4e4e;}.cls-38{fill:none;stroke:#231f20;stroke-dasharray:0 0 6 4;stroke-miterlimit:10;stroke-width:2px;}.cls-29{fill:#b7b7b8;}.cls-30{fill:#fbb98f;}.cls-31{fill:#fff;}.cls-32{fill:#b35c4c;}.cls-33{fill:#feeae1;}.cls-34{fill:#f9dcb9;}.cls-3{fill:#feece4;}</style><linearGradient id="linear-gradient" x1="399.45" y1="149.77" x2="417.02" y2="128.95" gradientTransform="translate(189.88 488.61) rotate(-41.93) scale(1 -1)" gradientUnits="userSpaceOnUse"><stop offset="0" stop-color="#d57d5c"/><stop offset=".8" stop-color="#d5915c"/><stop offset="1" stop-color="#d6975c"/></linearGradient><linearGradient id="linear-gradient-2" x1="612.22" y1="-48.32" x2="640.5" y2="-81.83" gradientTransform="translate(359.93 886.19) rotate(-74.77) scale(1.2 -1)" xlink:href="#linear-gradient"/></defs><g class="cls-37"><g id="Layer_1"><path class="cls-17" d="M297.58,289.75l-4.61-14.75-49.78.08-4.88,15.17s-.01.04-.02.06l-.05.15h.02c-.06.19-.12.39-.12.58,0,4.23,13.41,7.66,29.95,7.66s29.95-3.43,29.95-7.66c0-.45-.18-.88-.47-1.31Z"/><path class="cls-3" d="M268.98,298.53c-16.54,0-29.95-3.43-29.95-7.66,0-.2.06-.39.12-.59h-.02l.05-.15s.01-.04.02-.06l4.82-14.99h-.83s-4.88,15.17-4.88,15.17c0,.02-.01.04-.02.06l-.05.15h.02c-.06.19-.12.39-.12.58,0,4.23,13.41,7.66,29.95,7.66,7.38,0,14.13-.69,19.35-1.82-5.09,1.02-11.49,1.64-18.47,1.64Z"/><path class="cls-33" d="M276.89,287.5c0-1.36-1.1-2.45-2.45-2.45s-2.35,1.01-2.44,2.29c-3-.35-4.91-.36-7.83-.04-.1-1.26-1.15-2.25-2.43-2.25-1.36,0-2.45,1.1-2.45,2.45,0,.45.13.86.34,1.23-.21.36-.34.78-.34,1.23,0,1.35,1.1,2.45,2.45,2.45s2.33-.99,2.43-2.25c2.92.32,4.83.31,7.83-.04.08,1.28,1.14,2.29,2.44,2.29s2.45-1.1,2.45-2.45c0-.45-.13-.86-.34-1.23.21-.36.34-.78.34-1.23Z"/><g class="cls-1"><path class="cls-17" d="M261.36,285.52c1.29,0,2.33.99,2.43,2.25,2.92-.32,4.83-.31,7.83.04.01-.18.09-.41.38-.48-2.83-.31-5.01-.35-7.83-.04-.11-1.26-1.15-2.25-2.43-2.25-.88,0-1.65.47-2.08,1.17.44-.43,1.04-.69,1.7-.69Z"/><path class="cls-17" d="M276.89,287.5c0-1.36-1.1-2.45-2.45-2.45-.87,0-1.62.46-2.05,1.14.44-.41,1.02-.66,1.67-.66,1.36,0,2.45,1.1,2.45,2.45,0,.45-.13.86-.34,1.23.21.36.34.78.34,1.23,0,.47-.14.91-.37,1.29.46-.45.75-1.07.75-1.76,0-.45-.13-.86-.34-1.23.21-.36.34-.78.34-1.23Z"/></g><path class="cls-2" d="M259.49,275.05l-16.3.03-4.88,15.17s-.01.04-.02.06l-.05.15h.02c-.06.19-.12.39-.12.58,0,4.04,12.23,7.34,27.73,7.63-4.72-6.5-7.09-14.88-6.38-23.63Z"/><g class="cls-36"><path class="cls-27" d="M293.16,295.24c-1.47-6.79-3.04-13.81-4.48-20.23h-7.06c1.44,6.97,2.9,13.79,4.05,18.03.38,1.39.79,2.72,1.22,3.98,2.44-.5,4.56-1.1,6.28-1.78,0,0,0,0,0,0Z"/><path class="cls-27" d="M274.6,298.53c2.61-.15,5.1-.38,7.41-.69-.71-7.36-1.59-15.82-2.39-22.82h-8.59c1.51,7.45,2.71,16.2,3.57,23.51Z"/></g><path class="cls-2" d="M294.79,294.51c-9.02,2.73-20.6,4.27-31.65,3.11-22.43-2.35-21.85-11.56-15.27-22.55h-4.69s-4.88,15.18-4.88,15.18c0,.02-.01.04-.02.06l-.05.15h.02c-.06.19-.12.39-.12.58,0,4.23,13.41,7.66,29.95,7.66,11.67,0,21.76-1.71,26.7-4.2Z"/><path class="cls-30" d="M293.06,275.46c0,2.98-11.18,5.39-24.97,5.39s-24.97-2.41-24.97-5.39,11.18-5.39,24.97-5.39,24.97,2.41,24.97,5.39Z"/><path class="cls-2" d="M268.64,280.61c-13.79,0-24.97-2.41-24.97-5.39,0-.74.69-1.44,1.92-2.08-1.57.71-2.47,1.49-2.47,2.33,0,2.98,11.18,5.39,24.97,5.39,10.38,0,19.28-1.37,23.04-3.32-4.02,1.81-12.57,3.07-22.5,3.07Z"/><path class="cls-20" d="M268.09,270.07c-7.97,0-15.05.81-19.62,2.07,4.58-1.14,11.31-1.86,18.84-1.86,13.79,0,24.97,2.41,24.97,5.39,0,1.26-2.01,2.41-5.35,3.33,3.81-.95,6.13-2.18,6.13-3.53,0-2.98-11.18-5.39-24.97-5.39Z"/><path class="cls-32" d="M290.79,275.21c0,2.47-10.16,4.46-22.7,4.46s-22.7-2-22.7-4.46,10.16-4.46,22.7-4.46,22.7,2,22.7,4.46Z"/><path class="cls-38" d="M266.18,279.42c.59.01,1.8.1,3.28-.35.89-.27,1.53-.61,1.82-.78,5.92-3.29,10.57-6.04,12.58-5.99,1.07.03,1.94.55,2.93.8,1.89.48,4.26-.12,6-1.55,1.74-1.43,2.74-3.63,2.47-5.49-.28-1.85-2.19-3.06-3.8-3-2.42.08-2.26-2.13-1.63-2.9,1.98-2.38.96-6.17-1.28-7.23-2.24-1.06-5.73.03-7.5,2.34-1.34,1.75-1.67,3.88-2.98,5.64-1.21,1.63-3.09,2.72-4.9,3.72-2.92,1.62-5.85,3.2-8.8,4.74-1.22.63-2.52,1.28-3.78,1.25-1.07-.03-1.94-.55-2.94-.8-1.89-.48-4.26.12-6,1.55-1.74,1.43-3.12,3.74-2.47,5.49.34.9,1.47,1.1,3.32,1.53,1.9.44,3.03.49,5.37.68,2.71.21,4.6.27,8.29.35Z"/><path class="cls-7" d="M268.09,270.75c-8.5,0-15.9.92-19.79,2.28,3.26-.36,7-.56,10.99-.56,12.54,0,22.7,2,22.7,4.46,0,.79-1.06,1.54-2.91,2.18,6.98-.76,11.71-2.22,11.71-3.91,0-2.47-10.16-4.46-22.7-4.46Z"/><text class="cls-35" transform="translate(0 302.78)"><tspan x="0" y="0">4</tspan></text><text class="cls-35" transform="translate(509.66 302.78)"><tspan x="0" y="0">4</tspan></text><path class="cls-19" d="M476.19,213.15c-1.3,3.18-7.19,3.78-13.16,1.34-5.97-2.44-9.76-6.98-8.46-10.15.4-.98,1.23-1.71,2.37-2.19,2.55-1.07,6.66-.84,10.79.85,2.27.93,4.23,2.16,5.71,3.5,2.4,2.2,3.55,4.69,2.75,6.65Z"/><path class="cls-21" d="M473.44,206.49c-4.52,3.92-12.05,2.14-12.05,2.14l-4.45-6.49c2.55-1.07,6.66-.84,10.79.85,2.27.93,4.23,2.16,5.71,3.5Z"/><path class="cls-12" d="M334.03,274.87l-.28,2.49-2.28,20.44h-.02s-8.88-2.02-8.88-2.02c0,0-11.61-5.07-8.83-4.79,1.75.17,2.53-.71,2.51-3.29,0-1.51-.28-3.6-.81-6.42-.2-1.07-1.11-3.12-2.46-5.92-.7-1.46-1.52-3.11-2.41-4.94-.62-1.23-1.26-2.56-1.94-3.94-.19-.41-.4-.84-.6-1.26-4.12-8.56-8.96-19.4-11.78-30.16-.89-3.41-1.34-6.99-1.49-10.49-.03-.79-.05-1.58-.06-2.36-.1-10.94,2.38-20.47,2.38-20.47l7.4,3.59.31.14h0s.54.27.54.27l4.11,2,1.68.81.57.28,1.49.72,2.93,1.42,1.37.67,3.12,1.51.36.17.51.25,7.22,3.5,5.31,57.8Z"/><path class="cls-12" d="M329.98,295.59s-6.8-10.07-12.4-7.65c-.45.19-.98.12-1.31-.22-.9-.93-2.81-2.46-4.87-1.36-2.86,1.52-11.56,8.54-9.88,10.44,1,1.14,1.69,2.33,9.16,1.66,0,0,1.35,2.19,14.62,1.66,0,0,4.22.07,6.01-1.84.67-.72-1.34-2.69-1.34-2.69Z"/><path class="cls-12" d="M411.33,265.06c.45.12,15.87,10.17,26.05,11.78,10.18,1.62,10.78,4.81-.21,8.51-11,3.7,7.72,8.14,7.72,8.14,0,0,17.01-6.95,21.11-12.07s4.24-10.57,4.24-10.57l-31.36-12.83-27.55,7.03Z"/><path class="cls-19" d="M459.1,257.63l-1.46,2.61-5.36,9.56s-46.61-1.02-63.26,2.19c-16.66,3.22-36.84,5.21-39.14,4.7-1.02-.23-4.46-7.09-7.98-14.67-1.24-2.66-2.49-5.41-3.64-8-1.84-4.13-3.46-7.84-4.42-10.07-.61-1.39-.96-2.21-.96-2.21l.92-2.11,6.69-15.28,4.8-10.97,8.21-18.74s2.3.01,6.15.07c14.69.18,51.89.89,69.82,3.34,22.63,3.1,29.62,59.6,29.62,59.6Z"/><path class="cls-11" d="M359.66,194.69c-3.85-.05-6.15-.07-6.15-.07l-8.21,18.74c.01-.81-.1-1.61-.37-2.44-1.31-4.1-4.25-6.84-4.58-11.43-.37-5.18,2.13-10.74,7.14-12.81,2.94-1.22,6.21-1.03,9.41-.94-11.35-14.45-66.87,4.4-66.87,4.4,0,0-.04.92-.07,2.53-.15-.03-.31-.04-.46-.06-.52-.06-1.06-.03-1.49.2-.63.33-1.01,1.09-1.33,1.77-.3.7-.49,1.31-.49,1.31,0,0,.48.44,1.23.76.21.09.44.17.69.22,0,0,0,0,.01,0-.53.2-1.06.5-1.49.94-.9.92-1.17,2.12-1.23,3.06-.05.93.1,1.62.1,1.62,0,0,.71-.03,1.59-.28.08-.02.17-.05.25-.07.02,0,.03-.01.05-.02-.03.04-.06.07-.09.11-.21.26-.4.53-.54.8-.39.75-.58,1.68-.91,2.53-.31.84-.66,1.52-.66,1.52,0,0,.17.09.48.19.31.09.77.18,1.35.15.18-.01.38-.04.59-.08-.5.55-.94,1.16-1.27,1.79-.41.8-.67,1.59-.76,2.32-.06.35-.06.68-.05.96,0,.28.03.53.07.73.09.4.15.6.15.6,0,0,.18-.14.49-.37.12-.1.26-.2.43-.31.04-.03.06-.04.1-.07.04-.03.08-.06.12-.09-.1.14-.19.28-.27.42-.05.07-.08.15-.12.22-.43.82-.62,1.59-.71,2.24-.09.66-.09,1.19-.08,1.57,0,.38.04.61.04.61,0,0,.21-.08.55-.25.32-.16.76-.4,1.25-.69,0,.02-.03.03-.05.05-.29.33-.54.72-.83,1.15-.28.43-.57.9-.83,1.33-.52.86-.83,1.58-.83,1.58,0,0,.7.3,1.8.39.16.01.34.02.52,0-.87,1.02-1.45,2.3-1.59,3.39-.1.66-.06,1.21.02,1.58.08.37.16.56.16.56,0,0,.71-.5,1.66-.95.31-.15.63-.3.98-.47-.46.57-.83,1.22-1.07,1.87-.34.93-.41,1.82-.35,2.54.06.72.25,1.29.41,1.66.16.37.29.55.29.55,0,0,.15-.17.39-.47.24-.29.59-.68,1.01-1.08.11-.1.22-.22.34-.33-.07.09-.14.18-.2.28-.96,1.42-1.29,3-1.37,4.21-.08,1.21.05,2.06.05,2.06,0,0,.66-.24,1.52-.74-.49,1.02-.67,2.11-.72,3.01-.06,1.06.06,1.84.06,1.84,0,0,.49-.09,1.18-.37-.37.77-.52,1.61-.57,2.32-.08.97.02,1.71.02,1.71,0,0,.74-.03,1.69-.33.35-.11.73-.25,1.11-.44-.05.08-.09.15-.13.23-.64,1.21-.78,2.57-.76,3.64,0,1.07.19,1.84.19,1.84,0,0,.6-.16,1.39-.56-.73,1.23-.79,2.65-.61,3.66.19,1.05.58,1.71.58,1.71,0,0,.67-.37,1.46-.92,0,0,.02,0,.03-.02-.45,1.39-.49,2.86-.24,3.94.15.69.39,1.22.59,1.57.2.34.34.52.34.52,0,0,.49-.78,1.23-1.69.11-.14.23-.29.35-.44-.3,1.22-.22,2.41-.02,3.33.26,1.16.68,1.88.68,1.88,0,0,.66-.52,1.44-1.31.22-.23.45-.46.68-.72-.12.57-.17,1.17-.1,1.79.31,2.67,2.74,4.58,2.74,4.58,0,0,.51-.65.98-1.64-.04.46,0,.93.15,1.34.27.74.95,1.31,1.57,1.85.61.52,1.16.94,1.16.94,0,0,.46-.34.89-.99,0,0,0,.03,0,.04.14.89.78,1.65,1.39,2.21.6.56,1.17.92,1.17.92,0,0,.53-.42,1.02-1.12.02-.03.04-.05.06-.08,0,0,0,0,0-.02,0,0,0,0,0,0,.55,1.23,1.38,2.28,2.21,2.9.56.44,1.08.69,1.46.83.37.14.6.18.6.18,0,0-.12-.91-.13-2.08-.01-.36-.02-.76-.02-1.16.18.95.51,1.8.85,2.47.54,1.08,1.09,1.74,1.09,1.74,0,0,.55-.67,1.1-1.73.13-.25.26-.52.38-.81.26.91.67,1.74,1.17,2.33.42.52.85.86,1.17,1.05.32.19.52.26.52.26,0,0,.11-.85.43-1.86.09-.31.2-.65.31-1,.24,1.1.71,2.13,1.29,2.83.42.52.85.86,1.17,1.05.32.19.52.26.52.26,0,0,.11-.85.43-1.86.07-.24.15-.49.23-.76.44,1.11,1.14,2.01,1.79,2.62.86.82,1.61,1.17,1.61,1.17,0,0,.26-.79.46-1.88.05-.26.09-.54.13-.83.03,0,.06.02.09.03.23.56.49,1.08.74,1.54.54.97,1.03,1.64,1.03,1.64,0,0,.6-.57,1.16-1.62.1-.18.2-.39.29-.6,3.49.91,5.08.87,5.08.87l4.14-15.95,1.01-3.88,5.57-21.46s13.15-23.15,11.2-41.98ZM295.78,246.75s.03.09.04.13c-.06.02-.13.05-.2.08.06-.07.12-.14.16-.22ZM303.83,262.77c.01-.05.01-.11.01-.17.06.06.11.12.17.18,0,0,0,0,0,0-.07-.01-.12-.01-.18-.01ZM307.61,265.9s0-.02,0-.04c0,0,0,0,0-.01,0,0,.02,0,.02.01,0,0,0,0,0,0,0,0,0,.02,0,.03Z"/><path class="cls-21" d="M298.16,168.77l.1.18c.57.9,1.38,1.76,2.47,2.58,2.63,1.98,6.19,1.31,9.79-.51,3.34-1.68,6.72-4.33,9.44-6.76,3.4-3.03,5.78-5.71,5.78-5.71,0,0-.53-3.16-1.65-7.48-1.49-5.86-4.05-13.89-7.72-19.15-1.51-2.15-4.89-2.22-5.96-.1-2.6,5.16-6.95,14.05-8.26,18.51-1.65,5.58-7.47,12.68-3.99,18.43Z"/><path class="cls-24" d="M298.16,168.77l.1.18c.57.9,1.38,1.76,2.47,2.58,2.63,1.98,6.19,1.31,9.79-.51l9.44-6.76c3.4-3.03,5.78-5.71,5.78-5.71,0,0-.53-3.16-1.65-7.48-2.05.25-5.4.82-10.77,2.09-12.18,2.86-15.16,15.6-15.16,15.6Z"/><path class="cls-14" d="M304.51,159.08c-.45,2.65-.23,4.34,1.17,3.83,5.03-1.84,13.85-5.95,13.85-5.95,0,0-.73-4.97-2.11-9.49l-.02-.02c-.82-2.67-1.88-5.19-3.16-6.43-2.5-2.43-8.52,11.11-9.73,18.06Z"/><path class="cls-4" d="M304.51,159.08c-.45,2.65-.23,4.34,1.17,3.83,5.03-1.84,13.85-5.95,13.85-5.95,0,0-.73-4.97-2.11-9.49l-.02-.02s-3.15,7.54-12.9,11.63Z"/><path class="cls-21" d="M355.19,193.04l-.2.05c-1.05.21-2.22.22-3.57,0-3.25-.52-5.23-3.55-6.42-7.41-1.1-3.57-1.54-7.85-1.67-11.49-.18-4.55.11-8.12.11-8.12,0,0,2.64-1.8,6.53-3.99,5.26-2.99,12.82-6.71,19.15-7.71,2.6-.4,4.99,1.99,4.2,4.22-1.92,5.46-5.31,14.75-7.61,18.79-2.88,5.06-3.96,14.17-10.52,15.66Z"/><path class="cls-24" d="M355.19,193.04l-.2.05c-1.05.21-2.22.22-3.57,0-3.25-.52-5.23-3.55-6.42-7.41l-1.67-11.49c-.18-4.55.11-8.12.11-8.12,0,0,2.64-1.8,6.53-3.99,1.24,1.65,3.15,4.46,5.96,9.21,6.38,10.76-.73,21.74-.73,21.74Z"/><path class="cls-14" d="M357.77,181.75c-1.59,2.16-2.97,3.17-3.57,1.81-2.16-4.9-5.31-14.11-5.31-14.11,0,0,4.09-2.92,8.3-5.06h.02c2.49-1.26,5.05-2.24,6.83-2.18,3.48.12-2.1,13.84-6.27,19.53Z"/><path class="cls-19" d="M330.75,291.35s3.19-6.43-1.48-22.45c-4.67-16.02-.31-38.77,15.52-36.1s13.97,28.67,11.57,36.78-5.68,21.21-4.06,27.46c1.62,6.25-21.55-5.69-21.55-5.69Z"/><path class="cls-19" d="M492.96,296.03s-25.55-1.55-19.87-4.59c5.68-3.03,6.48-10.58,3.25-15.06-1.9-2.65-12.19-3.51-24.07-6.58-8.18-2.12-17.11-5.28-24.56-10.8-3.84-2.84-6.29-6.39-7.77-10.25-5.56-14.48,2.66-33.07,2.66-33.07l6.88-17.65s13.48,1.42,25.69,3.4c12.22,1.98,21.73,10.31,24.67,19.93,2.93,9.61,1.29,26.98,2.57,35.95.67,4.65,4.59,8.09,8.3,10.88,3.43,2.59,6.69,4.64,7,6.62.65,4.11-4.77,21.23-4.77,21.23Z"/><path class="cls-4" d="M357.77,181.75c-1.59,2.16-2.97,3.17-3.57,1.81-2.16-4.9-5.31-14.11-5.31-14.11,0,0,4.09-2.92,8.3-5.06h.02s-3.25,7.5.56,17.36Z"/><path class="cls-21" d="M490.73,268.19c-1.45.81-3.03,1.35-4.69,1.51-7.64.78-13.83-5.98-21.16-8.29-2.35-.74-4.78-1.01-7.24-1.17-2.1-.15-4.22-.21-6.31-.43-8.73-.89-16.97-4.36-24.87-8.16-2.14-1.02-4.28-2.09-6.5-2.9-1.67-.62-3.39-1.1-5.17-1.32-2.74-.34-5.52-.02-8.25.45-16.82,2.92-32.33,12.09-49.36,13.11-3.51.21-7.09.05-10.43-1.04-1.36-.44-2.64-1.06-3.84-1.81-1.76-1.1-3.33-2.5-4.65-4.12-2.37-2.87-3.95-6.4-4.42-10.07-.2-1.43-.21-2.88-.03-4.32,0-.11.02-.22.03-.33.75-5.52,3.83-10.28,6.66-14.96.11-.18.22-.37.33-.55,1.89-3.14,4.46-6.68,4.47-10.42l8.21-18.74s2.3.01,6.15.07c3.07.04,7.11.1,11.74.2,17.61.35,43.89,1.2,58.08,3.14,0,0,13.48,1.42,25.69,3.4,12.22,1.98,21.73,10.31,24.67,19.93.03.11.07.22.1.33,2.8,9.67,1.2,26.74,2.48,35.62.67,4.65,4.59,8.09,8.3,10.88Z"/><path class="cls-8" d="M313.24,273.6c-.04.6-.13,1.18-.26,1.75-.7-1.46-1.52-3.11-2.41-4.94-.02.03-.04.05-.06.08-.49.7-1.02,1.12-1.02,1.12,0,0-.57-.36-1.17-.92-.61-.56-1.25-1.31-1.39-2.21,0,0,0-.03,0-.04-.43.66-.89.99-.89.99,0,0-.55-.41-1.16-.94-.62-.53-1.3-1.11-1.57-1.85-.16-.41-.19-.88-.15-1.34-.46.99-.98,1.64-.98,1.64,0,0-2.43-1.91-2.74-4.58-.07-.62-.02-1.23.1-1.79-.23.26-.46.5-.68.72-.78.79-1.44,1.31-1.44,1.31,0,0-.42-.71-.68-1.88-.2-.91-.28-2.11.02-3.33-.12.15-.24.3-.35.44-.73.91-1.23,1.69-1.23,1.69,0,0-.15-.17-.34-.52-.2-.35-.44-.88-.59-1.57-.25-1.08-.21-2.55.24-3.94,0,0-.02,0-.03.02-.8.56-1.46.92-1.46.92,0,0-.39-.66-.58-1.71-.18-1.01-.13-2.43.61-3.66-.79.4-1.39.56-1.39.56,0,0-.18-.77-.19-1.84-.02-1.07.11-2.43.76-3.64.04-.08.08-.15.13-.23-.38.2-.76.34-1.11.44-.95.3-1.69.33-1.69.33,0,0-.1-.74-.02-1.71.05-.71.21-1.54.57-2.32-.69.28-1.18.37-1.18.37,0,0-.12-.79-.06-1.84.05-.9.23-1.99.72-3.01-.87.5-1.52.74-1.52.74,0,0-.13-.85-.05-2.06.08-1.21.41-2.79,1.37-4.21.06-.1.13-.19.2-.28-.12.11-.23.23-.34.33-.42.4-.77.79-1.01,1.08-.25.3-.39.47-.39.47,0,0-.13-.18-.29-.55-.16-.37-.35-.93-.41-1.66-.06-.72,0-1.61.35-2.54.24-.65.61-1.3,1.07-1.87-.35.17-.68.32-.98.47-.95.45-1.66.95-1.66.95,0,0-.08-.19-.16-.56-.08-.37-.12-.92-.02-1.58.13-1.08.72-2.37,1.59-3.39-.19.01-.36,0-.52,0-1.09-.09-1.8-.39-1.8-.39,0,0,.31-.72.83-1.58.26-.43.55-.9.83-1.33.29-.43.54-.82.83-1.15.02-.02.04-.03.05-.05-.49.29-.92.53-1.24.69-.34.17-.55.25-.55.25,0,0-.03-.22-.04-.61-.02-.38-.01-.92.08-1.57.1-.66.28-1.43.71-2.24.04-.07.07-.15.12-.22-.17.11-.32.21-.43.32-.32.24-.5.38-.5.38,0,0-.07-.21-.15-.61-.04-.21-.08-.46-.07-.74-.01-.28-.01-.62.05-.98.09-.74.36-1.54.77-2.36.37-.71.86-1.41,1.45-2.01-.25.06-.49.09-.71.1-.58.03-1.04-.06-1.35-.15-.31-.1-.48-.19-.48-.19,0,0,.36-.68.66-1.52.32-.85.52-1.78.91-2.53.15-.26.33-.53.54-.8-.08.02-.17.05-.25.07-.9.24-1.62.28-1.62.28,0,0-.15-.71-.1-1.65.06-.95.34-2.17,1.25-3.11.44-.45.98-.77,1.53-.97-.25-.05-.48-.13-.69-.22-.75-.32-1.23-.76-1.23-.76,0,0,.18-.62.49-1.31.31-.69.69-1.44,1.33-1.77.43-.23.97-.26,1.49-.2-.57-.98-.97-2.01-1.22-3.08-.44.33-.77.54-.77.54,0,0-.53-.41-.97-1.22-.05-.09-.1-.19-.14-.3.56-.03,1.14,0,1.72.06.38.04.76.09,1.14.17.9.16,1.8.4,2.7.72,2.94,1.03,5.7,2.74,7.64,4.46,2.1,1.88,3.5,4.3,4.47,6.95.06.15.12.31.17.47h0c.13.34.23.68.33,1.03.2.66.38,1.33.53,2.01.1.43.19.86.27,1.29.06.27.8-.28.85-.01.12.71,3.89,1.83,3.98,2.53,2.2,17.44-6.34,36.27-.15,52.72.16.42.33.84.49,1.27.87,2.16,1.82,4.31,2.35,6.55.11.48.22.98.28,1.47.16,1.11.18,2.23.08,3.33Z"/><path class="cls-19" d="M356.31,194.65c-.11.89-.25,1.76-.41,2.63-.4,2.1-.94,4.1-1.58,5.95-.32.95-.67,1.88-1.04,2.75-4.39,10.3-13.78,11.4-27.89,6.87-1.99-.63-4.08-1.38-6.27-2.24-.93-.36-1.89-.74-2.85-1.15-.28-.11-.56-.24-.85-.36-.21-.09-.42-.17-.63-.27,0,0,0,0,0,0-.3-.13-.6-.26-.9-.39-.73-.31-1.45-.62-2.16-.93-2.37-1.04-4.57-2.05-6.62-3.06-.18-.08-.36-.18-.54-.27-.09-.04-.18-.08-.26-.12-.08-.05-.16-.08-.24-.12-1.15-.58-2.24-1.15-3.27-1.73-1.29-.72-2.48-1.43-3.58-2.15-1.19-.79-2.27-1.57-3.24-2.38-.69-.56-1.32-1.14-1.9-1.72-.25-.26-.49-.52-.73-.78-.52-.59-.98-1.19-1.38-1.8-.16-.24-.32-.49-.44-.74-.57-.98-.97-2.01-1.22-3.08-.07-.3-.13-.6-.16-.91-.23-1.47-.15-3.03.25-4.7.14-.62.33-1.25.57-1.9.12-.37.28-.75.44-1.14.33-.77.7-1.57,1.11-2.38.31-.64.66-1.29,1.02-1.94.25-.47.51-.93.8-1.39.88-1.52,1.9-3.05,3.05-4.54.72-.93,1.48-1.86,2.28-2.75.02-.02.04-.03.05-.05.19-.2.38-.41.58-.61.19-.21.39-.42.6-.63t0-.02h.02c1.92-1.96,4.09-3.76,6.51-5.26.53-.33,1.08-.66,1.65-.95.56-.31,1.14-.59,1.72-.86.59-.27,1.19-.52,1.8-.76.61-.23,1.24-.45,1.88-.65,3.08-.94,6.48-1.4,10.17-1.22.21.01.44.03.66.04.11,0,.21.01.31.03.35.03.69.05,1.05.1.25.03.49.07.74.09.04,0,.07.01.12.01h0c.45.07.9.14,1.36.22.25.04.5.08.74.13.5.1,1.01.21,1.52.33.76.18,1.55.39,2.33.64.26.09.53.16.79.25.62.19,1.25.41,1.89.65.1.04.18.08.28.1.29.11.59.24.9.35.33.13.64.27.96.41.29.11.58.25.85.37,12.78,5.76,18,15.13,19.21,24.48.04.21.06.43.08.64.34,3.02.27,6.04-.1,8.91Z"/><path class="cls-21" d="M354.31,203.23c-3.22-.23-6.3-.55-9.25-.98-3.06-.43-5.99-.98-8.78-1.59-.19-.04-.4-.09-.6-.16-4.37-1.33-6.77-6.04-5.66-10.48.31-1.24.65-2.33.92-3.24.93-3.22,1.97-8.55-2.6-9.3-2.28-.37-4.06.51-5.28,1.49-.99.79-1.73,1.82-2.32,2.95-.85,1.63-1.71,3.07-2.64,4.39-1.88,2.67-5.1,4.19-8.33,3.67-1.18-.18-2.31-.58-3.26-1.16-6.73-4.2-11.64-8.61-15.01-12.22,1.08-1.97,2.36-3.97,3.86-5.93,7.44-9.76,20.09-18.09,38.47-11.37.19.06.38.13.56.2.3.12.6.23.9.36.32.13.64.26.96.4.29.12.58.25.86.37,18.48,8.32,21.16,24.21,18.78,36.67-.4,2.1-.94,4.09-1.58,5.95Z"/><path class="cls-19" d="M320.74,181.91c.58-1.12,1.33-2.16,2.31-2.95,1.22-.98,3.01-1.86,5.29-1.48,4.56.75,3.53,6.08,2.6,9.3-.94,3.22-2.77,8.56-1.1,15.43,1.67,6.87-2.86,10.95-6.55,11.16-2.16.12-4.11-.04-5.83-1.79-1.67-1.69-3.86-2.72-6.24-2.78-2.33-.06-5.03-.72-6.33-3.17-1.84-3.47-.37-7.9,4.91-11.42,5.01-3.34,8.07-6.78,10.95-12.3Z"/><path class="cls-19" d="M307.34,208.05s1.25,4.32,5.74,6.17c4.49,1.85,7.9-1.39,7.9-1.39l-4.86-5.77-8.02.81-.76.17Z"/><path class="cls-13" d="M314.56,197.84s7.91-14.75,11.07-12.7c3.16,2.05-2.02,17.28-2.02,17.28l-3.93.32-5.12-4.9Z"/><path class="cls-9" d="M324.13,203.77c-.19,1.24-.8,2.81-2.58,3.66-.57.27-1.25.47-2.07.56-.89.1-1.94.08-3.17-.1-.36-.05-.7-.21-.98-.44-.58-.47-1.59-1.4-2.34-2.61-.4-.61-.71-1.29-.87-2.02-.29-1.23-.14-2.6.89-4.01.18-.24.39-.5.63-.75.41-.42.97-.65,1.55-.62,1.82.07,6.02.63,8.63,4.03.25.33.38.75.39,1.17,0,.3-.01.69-.07,1.12Z"/><ellipse class="cls-9" cx="338.19" cy="191.54" rx="2.06" ry="1.04" transform="translate(12.57 403.74) rotate(-62.62)"/><path class="cls-23" d="M324.13,203.77c-.33.15-.71.24-1.08.29-2.06.28-4.09-.63-5.97-1.52-.89-.43-1.81-.86-2.58-1.49-.53-.44-1.18-1.32-1.48-2.23.18-.24.39-.5.63-.75.41-.42.97-.65,1.55-.62,1.82.07,6.02.63,8.63,4.03.25.33.38.75.39,1.17,0,.3-.01.69-.07,1.12Z"/><path class="cls-22" d="M313.8,203.7c-.08.45-.4.79-.82.9-.4-.61-.71-1.29-.87-2.02.22-.15.49-.21.78-.16.61.1,1.01.67.91,1.28Z"/><path class="cls-22" d="M321.55,207.19c-.57.27-1.25.47-2.07.56-.12-.21-.17-.47-.13-.73.1-.6.68-1.02,1.28-.92.54.09.92.56.93,1.08Z"/><path class="cls-22" d="M317.4,203.37s.06.32.05.83c-.01.51-.11,1.2-.4,1.9-.3.7-.73,1.25-1.09,1.61-.36.36-.63.54-.63.54,0,0,.04-.33.15-.81.11-.48.28-1.12.56-1.78.28-.66.62-1.22.89-1.64.27-.41.48-.67.48-.67Z"/><ellipse class="cls-26" cx="311.25" cy="180.08" rx="6.81" ry="7.13" transform="translate(23.66 395.94) rotate(-66.95)"/><path class="cls-18" d="M323.75,203.87s-.16.08-.48.18c-.31.1-.79.22-1.39.28-1.2.13-2.91-.14-4.57-.84-.82-.32-1.6-.76-2.29-1.17-.68-.49-1.15-1.09-1.44-1.63-.3-.54-.42-1.02-.48-1.34-.06-.33-.06-.51-.06-.51,0,0,.07.17.23.45.16.28.4.68.77,1.08.37.41.87.83,1.48,1.16.67.28,1.39.62,2.22.94,1.6.67,3.04,1.16,4.17,1.31,1.12.17,1.85.09,1.85.09Z"/><ellipse class="cls-9" cx="310.88" cy="180.94" rx="2.06" ry="1.04" transform="translate(39.06 416.53) rotate(-71.12)"/><path class="cls-22" d="M306.17,207.22s.16.05.42.13c.27.08.65.24,1.12.37.94.3,2.24.69,3.64.86,1.4.16,2.66-.03,3.46-.53.4-.24.7-.49.87-.71.18-.21.26-.34.26-.34,0,0-.02.16-.12.43-.09.28-.31.66-.68,1.05-.72.82-2.3,1.4-3.93,1.19-1.63-.2-2.91-.9-3.76-1.46-.43-.27-.74-.55-.97-.72-.21-.18-.34-.28-.34-.28Z"/><path class="cls-22" d="M323.42,213.36s-.17.04-.46.11c-.3.06-.74.12-1.29.1-1.09-.02-2.64-.33-4.1-1.25-.72-.48-1.32-1.09-1.73-1.75-.38-.69-.53-1.41-.45-1.99.08-.57.25-1,.42-1.25.16-.25.25-.4.25-.4,0,0-.03.17-.09.46-.08.28-.1.71-.03,1.18.07.48.31.99.67,1.49.4.48.94.93,1.56,1.35,1.27.81,2.59,1.35,3.58,1.63.49.15.91.23,1.2.27.29.04.46.06.46.06Z"/><path class="cls-16" d="M305.3,206.48s-.26-.2-.57-.71c-.3-.5-.64-1.31-.78-2.37-.13-1.05-.05-2.39.49-3.72.52-1.3,1.31-2.68,2.48-3.86.29-.3.6-.57.91-.82.14-.12.37-.27.54-.36l.51-.27c.66-.33,1.29-.64,1.9-.95,1.2-.61,2.23-1.2,2.98-1.87.76-.66,1.33-1.27,1.71-1.7.37-.43.59-.68.59-.68,0,0-.14.29-.45.78-.31.49-.77,1.2-1.46,1.99-.7.81-1.74,1.57-2.91,2.28-.59.36-1.22.71-1.86,1.07-.33.19-.62.34-.87.55-.28.23-.55.47-.81.74-1.05,1.06-1.83,2.28-2.41,3.46-.57,1.15-.78,2.32-.79,3.32,0,.99.18,1.8.39,2.33.21.53.41.78.41.78Z"/><path class="cls-16" d="M325.38,212.92s.24-.13.65-.39c.39-.27.91-.73,1.36-1.43.92-1.39,1.38-3.72,1.34-6.29-.09-2.52-.54-5.01-.23-6.78.12-.88.29-1.57.44-2.04.15-.47.26-.72.26-.72,0,0-.19,1.08-.15,2.79,0,.86.14,1.84.33,2.98.17,1.13.43,2.37.45,3.77.05,2.73-.75,5.27-2,6.63-1.26,1.39-2.49,1.44-2.44,1.48Z"/><path class="cls-26" d="M354.31,203.23c-3.22-.23-6.3-.55-9.25-.98-1.57-2.55-2.43-5.53-2.17-8.49.15-1.75.67-3.46.8-5.23.37-4.81-2.29-9.51-6.07-12.52-1.32-1.05-2.79-1.94-3.92-3.19-2.27-2.5-4.55-8.88-2.32-12.01.6-.85,1.44-1.33,2.45-1.53.19.06.38.13.56.2.3.12.6.23.9.36.32.13.64.26.96.4.29.12.58.25.86.37,18.48,8.32,21.16,24.21,18.78,36.67-.4,2.1-.94,4.09-1.58,5.95Z"/><path class="cls-21" d="M323.83,158.39s.36-.33.75-.83c.4-.49.82-1.14,1.48-1.79.33-.32.71-.61,1.06-.84.35-.22.68-.39.96-.55.56-.3.94-.59.94-.59,0,0,.03.12.05.33.01.21,0,.53-.1.9-.09.37-.27.78-.5,1.18-.23.39-.5.77-.88,1.14-.74.73-1.76,1.16-2.53,1.2-.38.04-.7-.02-.9-.06-.21-.06-.32-.1-.32-.1Z"/><path class="cls-21" d="M323.51,158.61s.12-.45.21-1.03c.1-.59.15-1.3.39-2.08.24-.78.67-1.53,1.09-2.05.41-.52.79-.79.79-.79,0,0,.15.43.28,1.06.12.63.23,1.48-.06,2.44-.29.96-.99,1.72-1.61,2.08-.62.37-1.09.37-1.09.37Z"/><path class="cls-26" d="M344.2,160.41s.22.42.41,1.05c.2.64.38,1.46.39,2.29.01.83-.12,1.57-.2,2.2-.07.6-.13,1.08-.13,1.08,0,0-.44-.19-.91-.73-.48-.53-.94-1.46-.96-2.5-.02-1.04.37-1.9.71-2.47.35-.58.68-.91.68-.91Z"/><path class="cls-26" d="M347.31,161.49s.03.39,0,.9c-.03.51-.09,1.12-.35,1.66-.26.55-.7.97-1.08,1.31-.38.33-.7.55-.7.55,0,0-.22-.32-.35-.86-.14-.53-.17-1.28.16-1.97.33-.69.94-1.13,1.44-1.35.5-.22.89-.25.89-.25Z"/><path class="cls-21" d="M290.46,173.02s.71.08,1.56.26c.86.18,1.83.41,2.55.98.72.57,1.16,1.47,1.53,2.26.36.79.6,1.46.6,1.46,0,0-.61.36-1.57.51-.95.15-2.27.02-3.3-.79-1.03-.82-1.45-2.08-1.52-3.03-.08-.97.14-1.64.14-1.64Z"/><path class="cls-19" d="M286.3,178.07s.51-.45,1.21-.88c.7-.42,1.45-.89,2.34-.87.88.02,1.75.55,2.39,1.07.65.53,1.07,1.05,1.07,1.05,0,0-.36.57-.99,1.14-.63.57-1.52,1.15-2.59,1.12-1.06-.02-2.07-.69-2.62-1.36-.56-.66-.81-1.28-.81-1.28Z"/><path class="cls-19" d="M284.72,186.42s-.07-.19-.16-.52c-.08-.33-.18-.81-.16-1.41.01-.6.14-1.34.58-2.11.44-.77,1.15-1.47,2-1.89.85-.43,1.73-.56,2.49-.53.76.03,1.41.22,1.94.42,1.05.42,1.67.93,1.67.93,0,0-.55.6-1.39,1.25-.85.66-1.85,1.4-2.72,1.85-.45.23-.86.36-1.29.52-.43.15-.91.38-1.35.62-.46.25-.85.47-1.13.63-.3.16-.47.25-.47.25Z"/><path class="cls-19" d="M290.36,187.52c-.23.52-.65.92-1.1,1.29-.18.15-.36.28-.54.42-.15.11-.3.22-.43.32-.44.33-.77.54-.77.54,0,0-.53-.41-.97-1.22-.05-.09-.1-.19-.14-.3-.34-.77-.49-1.85-.06-2.8.42-.98,1.28-1.53,2.03-1.83.08-.03.15-.07.23-.09.82-.27,1.48-.31,1.48-.31,0,0,.24.64.39,1.46.14.82.2,1.79-.12,2.52Z"/><path class="cls-16" d="M318.46,214.87s-.16.08-.47.18c-.31.1-.78.2-1.36.23-.58.03-1.28,0-2.03-.09-.75-.09-1.61-.24-2.46-.62-1.71-.77-2.77-2.12-3.37-3.09-.6-.99-.82-1.67-.82-1.67,0,0,.46.54,1.25,1.33.79.78,1.93,1.78,3.38,2.43.72.33,1.48.53,2.19.72.71.19,1.35.35,1.89.46,1.08.21,1.8.14,1.8.14Z"/><path class="cls-13" d="M301.72,202.41s-.75-.14-1.92-.45c-1.16-.34-2.82-.68-4.5-1.71-.84-.52-1.51-1.22-1.99-1.91-.48-.69-.81-1.35-1.06-1.92-.48-1.13-.68-1.86-.68-1.86,0,0,.47.65,1.16,1.59.72.96,1.7,2.27,3.16,3.17,1.47.91,3.05,1.53,4.11,2.13,1.08.57,1.72.97,1.72.97Z"/><path class="cls-13" d="M347.56,213.21s-.89.36-2.39.79c-1.5.42-3.61.87-5.99,1.02-2.37.15-4.53-.03-6.07-.27-1.54-.23-2.47-.48-2.47-.48,0,0,1-.03,2.5-.07,1.54-.04,3.65-.14,5.97-.28,2.32-.15,4.42-.32,5.95-.46,1.49-.15,2.49-.25,2.49-.25Z"/><path class="cls-12" d="M352.95,298.59c-1.38-2.35-4.48-6.57-8.21-5.03,0,0-5.27-7.45-8.69-3.38,0,0-4.16-4.57-8.61-.84-4.45,3.73-5.96,8.1-4.61,10.36,1.34,2.27,18.37,2.76,18.37,2.76,0,0,5.69.19,10.86-1.71.98-.36,1.37-1.35.89-2.16Z"/><path class="cls-12" d="M492.25,296.31c-1.38-2.35-4.48-6.57-8.21-5.03,0,0-5.27-7.45-8.69-3.38,0,0-4.16-4.57-8.61-.84-4.45,3.73-5.96,8.1-4.61,10.36,1.34,2.27,18.37,2.76,18.37,2.76,0,0,5.69.19,10.86-1.71.98-.36,1.37-1.35.89-2.16Z"/><path class="cls-12" d="M445.34,289.86s-6.8-10.07-12.4-7.65c-.45.19-.98.12-1.31-.22-.9-.93-2.81-2.46-4.87-1.36-2.86,1.52-11.56,8.54-9.88,10.44,1,1.14,1.69,2.33,9.16,1.66,0,0,1.35,2.19,14.62,1.66,0,0,4.22.07,6.01-1.84.67-.72-1.34-2.69-1.34-2.69Z"/><path class="cls-26" d="M358.8,201.64s-.34.63-1.08,1.24c-.73.61-1.93,1.18-3.23,1.01-1.3-.18-2.31-1.04-2.85-1.82-.56-.79-.72-1.48-.72-1.48,0,0,.65-.29,1.47-.58.83-.28,1.77-.59,2.69-.46.91.12,1.75.66,2.47,1.15.71.49,1.26.95,1.26.95Z"/><path class="cls-19" d="M357.17,207.9s-.62.24-1.49.3c-.86.07-2.04-.19-2.79-.94-.76-.75-.96-1.79-.98-2.64-.02-.85.13-1.5.13-1.5,0,0,.67-.06,1.5.04.83.1,1.8.36,2.43.98.63.62.81,1.48.99,2.28.17.8.21,1.48.21,1.48Z"/><path class="cls-19" d="M352.2,214.94s-.06-.19-.15-.51c-.08-.31-.2-.74-.34-1.25-.13-.48-.3-.99-.49-1.4-.19-.41-.38-.8-.52-1.28-.28-.94-.44-2.16-.55-3.23-.11-1.06-.06-1.87-.06-1.87,0,0,.79.1,1.82.56.52.24,1.1.58,1.65,1.1.55.52,1.06,1.25,1.34,2.16.28.91.28,1.9.02,2.75-.25.85-.7,1.45-1.12,1.87-.42.43-.83.69-1.13.86-.3.17-.48.24-.48.24Z"/><path class="cls-19" d="M347.61,215.5s-.11-.67-.21-1.46c-.08-.81-.21-1.65.09-2.38.31-.73,1.05-1.36,1.74-1.83.69-.47,1.32-.74,1.32-.74,0,0,.44.51.81,1.29.36.77.63,1.88.18,2.96-.45,1.1-1.52,1.78-2.39,2-.87.25-1.55.15-1.55.15Z"/><path class="cls-16" d="M330.27,275.06s-.52-2.07-1.28-5.44c-.37-1.68-.85-3.69-1.15-5.98-.29-2.3-.32-4.86-.05-7.51.54-5.31,1.94-9.91,2.88-13.22.47-1.66.94-3.01,1.41-3.86.46-.86.82-1.26.82-1.26,0,0-.3.45-.66,1.34-.37.89-.69,2.23-1.03,3.92-.68,3.38-1.8,8.02-2.32,13.19-.26,2.59-.3,5.06-.12,7.3.19,2.24.53,4.27.77,5.98.49,3.42.74,5.54.74,5.54Z"/><path class="cls-16" d="M354.74,275.36s.18-.7.52-1.79c.34-1.1.85-2.58,1.41-4.2.55-1.62,1.01-3.09,1.27-4.19.27-1.1.39-1.81.39-1.81,0,0,.03.18.07.5.05.32.08.79.08,1.38,0,1.17-.2,2.8-.78,4.48-.58,1.68-1.35,3.08-1.95,4.07-.6.99-1.02,1.57-1.02,1.57Z"/><path class="cls-16" d="M452.98,268.6s-.34-.07-.94-.22c-.6-.15-1.47-.4-2.52-.78-2.11-.74-4.9-2.06-7.86-3.67-2.99-1.59-5.55-3.41-7.12-5.02-.79-.8-1.35-1.51-1.72-2.02-.36-.51-.54-.8-.54-.8,0,0,.24.25.67.69.44.43,1.09,1.04,1.95,1.72,1.71,1.37,4.31,2.89,7.28,4.47,2.96,1.61,5.58,3.15,7.55,4.13.98.5,1.79.88,2.36,1.13.56.25.88.39.88.39Z"/><path class="cls-21" d="M455.94,196.6s.57.48,1.01,1.46c.44.94.67,2.54-.24,4.02-.94,1.51-2.66,2.05-3.79,1.92-.58-.05-1.01-.23-1.29-.39-.28-.16-.41-.29-.41-.29,0,0,.5-.59.84-1.34.37-.76.55-1.6.93-2.22.41-.65,1.15-1.31,1.79-1.97.63-.65,1.17-1.18,1.17-1.18Z"/><path class="cls-21" d="M468.09,201.23s-.91.3-2.24.53c-.67.12-1.44.22-2.26.26-.41.02-.84.03-1.28.01l-.33-.02h-.15s-.04,0-.04,0c-.08,0-.03.02-.05.02h0s.09-.18-.34.15c-.39.29-.8.54-1.22.76-.84.43-1.72.67-2.48.72-.76.06-1.36-.07-1.74-.22-.38-.14-.56-.27-.56-.27,0,0,.19-.13.47-.37.28-.24.63-.59.96-1.04.34-.45.67-.99,1.06-1.58.19-.3.4-.61.63-.93.07-.11.35-.45.64-.75.31-.31.68-.57,1.1-.73.17-.06.37-.12.58-.15.45-.07.96-.01,1.35.07l.3.06.19.05.35.1c.46.14.89.31,1.29.5.81.37,1.5.82,2.06,1.24,1.12.85,1.7,1.6,1.7,1.6Z"/><path class="cls-29" d="M328.82,300.57s-.03-.7.16-1.83c.18-1.12.64-2.66,1.54-4.17.9-1.51,2.07-2.62,2.98-3.31.43-.37.94-.59,1.29-.55.37.04.43.28.44.26,0,.02-.15-.16-.43-.09-.28.07-.6.33-.92.77-.69.86-1.57,2.07-2.42,3.48-.85,1.41-1.52,2.74-1.96,3.76-.44,1.01-.68,1.67-.68,1.67Z"/><path class="cls-29" d="M338.73,302.09s-.06-.62.14-1.61c.19-.99.71-2.31,1.56-3.57.43-.63.85-1.19,1.31-1.69.46-.49.98-.88,1.47-1.09.49-.21.92-.26,1.2-.24.29.01.43.06.43.06,0,0-.16.02-.41.11-.25.08-.6.26-.94.54-.71.55-1.33,1.69-2.16,2.91-.81,1.21-1.52,2.29-1.95,3.14-.44.85-.66,1.43-.66,1.43Z"/><path class="cls-29" d="M322.67,299.29s-.14-.2-.28-.61c-.15-.41-.26-1.07-.18-1.86.07-.79.31-1.71.62-2.67.31-.96.69-2.08,1.48-3.09.81-1.01,1.78-1.62,2.64-2.18.88-.56,1.78-.95,2.59-1.06.8-.13,1.46,0,1.87.14.42.15.61.3.61.3,0,0-.23-.09-.64-.13-.41-.04-1.02-.01-1.71.22-.68.23-1.42.69-2.19,1.29-.77.62-1.66,1.28-2.31,2.1-.65.83-1.08,1.82-1.47,2.74-.4.92-.75,1.73-.94,2.45-.2.71-.23,1.31-.19,1.73.04.42.12.65.12.65Z"/><path class="cls-29" d="M468.86,299.04s0-.74.15-1.91c.16-1.17.45-2.77,1.02-4.49.14-.43.3-.84.48-1.25.17-.4.41-.81.66-1.13.5-.66,1.09-1.14,1.63-1.44.54-.3,1.03-.43,1.36-.48.33-.05.52-.04.52-.04,0,0-.18.06-.47.2-.29.14-.69.38-1.1.76-.41.38-.83.88-1.18,1.51-.19.32-.32.63-.46,1.01-.13.39-.27.79-.41,1.2-.55,1.67-1.11,3.18-1.53,4.27-.4,1.05-.68,1.78-.68,1.78Z"/><path class="cls-29" d="M479.56,298.68s-.04-.12-.11-.32c-.07-.21-.15-.52-.19-.91-.09-.78.04-1.94.66-3.02.62-1.07,1.56-1.76,2.28-2.08.36-.16.67-.25.88-.29.21-.04.33-.06.33-.06,0,0-.1.08-.26.21-.17.13-.39.34-.65.59-.52.51-1.11,1.27-1.64,2.17-.52.91-.88,1.8-1.06,2.51-.09.35-.16.65-.19.86-.04.2-.06.33-.06.33Z"/><path class="cls-26" d="M479.95,221.69c-.56,1.33-1.33,2.56-2.36,3.59-4.61,4.62-12.18,3.76-18.59,2.57-4.12-.76-8.24-1.52-12.37-2.29-3.2-.6-6.45-1.21-9.31-2.76-1.79-.97-3.37-2.28-5.14-3.27-2.56-1.42-5.45-2.13-8.33-2.63-6.34-1.11-12.84-1.32-19.24-.6-5.07.56-10.08,1.69-15.17,1.76-5.1.07-10.45-1.09-14.24-4.5-4.24-3.83-4.74-9.06-4.65-14.43.02-1.68.3-3.07.83-4.25,17.61.35,43.89,1.2,58.08,3.14,0,0,13.48,1.42,25.69,3.4,12.22,1.98,21.73,10.31,24.67,19.93.03.11.07.22.1.33Z"/><path class="cls-15" d="M430.36,250.48s-.83-2.06-1.97-5.46c-1.12-3.4-2.55-8.2-3.17-13.69-.63-5.49-.14-10.55.74-14.05.43-1.75.9-3.14,1.27-4.07.37-.94.6-1.44.6-1.44,0,0-.16.53-.44,1.49-.27.96-.61,2.37-.89,4.13-.6,3.51-.8,8.44-.18,13.82.61,5.38,1.75,10.19,2.6,13.66.89,3.45,1.44,5.62,1.44,5.62Z"/><path class="cls-19" d="M330.17,175.1s-.09-.9.4-1.7c.49-.8,1.33-1.13,1.33-1.13,0,0,.07.94-.4,1.7-.47.76-1.33,1.13-1.33,1.13Z"/><path class="cls-19" d="M326.36,175.92s-.15-.81.18-1.46c.33-.65,1.06-1.02,1.06-1.02,0,0,.28.8-.08,1.51-.36.72-1.16.97-1.16.97Z"/><path class="cls-19" d="M332.04,177.94s-.15-.85.28-1.6c.43-.75,1.23-1.06,1.23-1.06,0,0,.13.89-.28,1.6-.41.71-1.23,1.06-1.23,1.06Z"/><path class="cls-26" d="M363.95,243.2s-1.23.52-2.74.48c-1.5-.04-2.71-.62-2.71-.62,0,0,1.23-.52,2.74-.48,1.5.04,2.71.62,2.71.62Z"/><path class="cls-26" d="M367.03,248.63s-.43,0-1.09-.06c-.66-.05-1.56-.14-2.53-.31-.97-.17-1.84-.39-2.48-.56-.64-.17-1.05-.31-1.05-.31,0,0,.41-.14,1.08-.24.67-.1,1.62-.15,2.64.02,1.02.18,1.89.54,2.49.86.6.32.94.59.94.59Z"/><path class="cls-26" d="M365.74,254.44s-.34-.06-.85-.2c-.51-.14-1.18-.34-1.88-.65-.7-.3-1.31-.66-1.76-.94-.45-.28-.73-.49-.73-.49,0,0,.34-.06.89-.04.54.02,1.29.13,2.04.45.75.33,1.34.8,1.72,1.18.38.38.57.68.57.68Z"/><path class="cls-21" d="M459.98,205.28s-.51.23-1.2.53c-.73.31-1.72.74-2.82,1.18-1.1.44-2.11.81-2.86,1.09-.7.25-1.23.44-1.23.44,0,0,.33-.39.96-.92.62-.53,1.57-1.17,2.73-1.64,1.16-.46,2.29-.65,3.1-.7.82-.05,1.33,0,1.33,0Z"/><path class="cls-21" d="M462.12,209.79s-1.12.88-2.73,1.16c-1.61.29-2.97-.14-2.97-.14,0,0,1.23-.66,2.77-.94,1.54-.27,2.93-.08,2.93-.08Z"/><path class="cls-21" d="M467.48,213.32s-.4.1-1.02.21c-.62.11-1.46.25-2.38.31-.92.07-1.77.06-2.4.04-.63-.02-1.04-.06-1.04-.06,0,0,.34-.23.93-.48.59-.25,1.45-.52,2.42-.6.97-.07,1.86.07,2.48.23.62.16.99.34.99.34Z"/><path class="cls-15" d="M356.32,203.66s.1-.01.27-.06c.17-.04.41-.14.68-.31.26-.18.54-.43.75-.77.1-.17.19-.36.25-.57.06-.2.08-.48.03-.45-.01-.01-.02-.02-.05-.02l-.22-.12c-.17-.09-.34-.18-.52-.27-.36-.18-.73-.35-1.13-.51l-.24-.1c-.13-.05-.26-.09-.39-.14-.33-.11-.65-.21-.95-.31.19-.32.38-.63.57-.95.11-.19.12-.21.17-.3l.11-.22c.14-.29.27-.58.37-.86.21-.56.34-1.08.41-1.53.08-.45.1-.82.12-1.07.02-.26-.16-.32-.15-.3-.01-.02.21-.02.29.28.07.26.16.63.2,1.11.04.48.04,1.07-.08,1.73-.06.33-.15.67-.28,1.02-.06.15-.12.3-.17.45,0,.01,0,.02.01.02.01,0,.02,0,.02,0h0s.12.04.12.04l.27.1c.43.17.84.38,1.22.6.19.11.37.23.54.35.09.06.16.11.28.2.14.11.26.26.32.42.1.23.05.53.01.66-.04.16-.1.3-.16.44-.13.27-.3.5-.48.68-.36.37-.77.57-1.11.68-.34.1-.62.11-.81.1-.19-.01-.28-.04-.28-.04Z"/><path class="cls-15" d="M474.95,212.9s-.2-.3-.61-.79c-.41-.49-1.04-1.17-1.92-1.89-1.76-1.42-4.47-3.11-7.51-4.76-.38-.2-.77-.4-1.12-.56-.39-.16-.78-.32-1.16-.48-.76-.3-1.5-.6-2.2-.88-1.41-.54-2.7-.95-3.81-1.21-1.11-.27-2.03-.39-2.67-.44-.64-.05-1-.06-1-.06,0,0,.35-.06,1-.11.65-.05,1.6-.07,2.76.07,1.16.13,2.54.42,4.01.87.74.23,1.5.49,2.28.78.39.15.79.3,1.2.45.43.18.82.38,1.22.59,3.14,1.7,5.72,3.64,7.37,5.33.81.85,1.35,1.64,1.69,2.19.33.56.47.89.47.89Z"/><path class="cls-19" d="M294.15,206.39s-.38,1.04-1.29,1.81c-.91.77-2,.97-2,.97,0,0,.38-1.04,1.29-1.81.91-.77,2-.97,2-.97Z"/><path class="cls-19" d="M296.42,207.92s.05.78-.47,1.25c-.52.47-1.29.33-1.29.33,0,0,.11-.74.56-1.15.45-.41,1.2-.43,1.2-.43Z"/><path class="cls-6" d="M385.9,41.46c-54.7,0-99.04,60.05-99.04,134.12s44.34,134.12,99.04,134.12,99.04-60.05,99.04-134.12-44.34-134.12-99.04-134.12ZM385.9,271.5c-29.39,0-53.22-42.95-53.22-95.92s23.83-95.92,53.22-95.92,53.22,42.95,53.22,95.92-23.83,95.92-53.22,95.92Z"/><path class="cls-12" d="M334.53,275.25l-.28,2.49-2.28,20.44h-.02s-8.88-2.02-8.88-2.02c0,0-11.61-5.07-8.83-4.79,1.75.17,2.53-.71,2.51-3.29,0-1.51-.28-3.6-.81-6.42-.2-1.07-1.11-3.12-2.46-5.92-.7-1.46-1.52-3.11-2.41-4.94-.62-1.23-1.26-2.56-1.94-3.94-.19-.41-.4-.84-.6-1.26-4.12-8.56-8.96-19.4-11.78-30.16-.89-3.41-1.34-6.99-1.49-10.49-.03-.79-.05-1.58-.06-2.36-.1-10.94,2.38-20.47,2.38-20.47l7.4,3.59.31.14h0s.54.27.54.27l4.11,2,1.68.81.57.28,1.49.72,2.93,1.42,1.37.67,3.12,1.51.36.17.51.25,7.22,3.5,5.31,57.8Z"/><path class="cls-12" d="M330.49,295.98s-6.8-10.07-12.4-7.65c-.45.19-.98.12-1.31-.22-.9-.93-2.81-2.46-4.87-1.36-2.86,1.52-11.56,8.54-9.88,10.44,1,1.14,1.69,2.33,9.16,1.66,0,0,1.35,2.19,14.62,1.66,0,0,4.22.07,6.01-1.84.67-.72-1.34-2.69-1.34-2.69Z"/><path class="cls-11" d="M360.17,195.08c-3.85-.05-6.15-.07-6.15-.07l-8.21,18.74c.01-.81-.1-1.61-.37-2.44-1.31-4.1-4.25-6.84-4.58-11.43-.37-5.18,2.13-10.74,7.14-12.81,2.94-1.22,6.21-1.03,9.41-.94-11.35-14.45-66.87,4.4-66.87,4.4,0,0-.04.92-.07,2.53-.15-.03-.31-.04-.46-.06-.52-.06-1.06-.03-1.49.2-.63.33-1.01,1.09-1.33,1.77-.3.7-.49,1.31-.49,1.31,0,0,.48.44,1.23.76.21.09.44.17.69.22,0,0,0,0,.01,0-.53.2-1.06.5-1.49.94-.9.92-1.17,2.12-1.23,3.06-.05.93.1,1.62.1,1.62,0,0,.71-.03,1.59-.28.08-.02.17-.05.25-.07.02,0,.03-.01.05-.02-.03.04-.06.07-.09.11-.21.26-.4.53-.54.8-.39.75-.58,1.68-.91,2.53-.31.84-.66,1.52-.66,1.52,0,0,.17.09.48.19.31.09.77.18,1.35.15.18-.01.38-.04.59-.08-.5.55-.94,1.16-1.27,1.79-.41.8-.67,1.59-.76,2.32-.06.35-.06.68-.05.96,0,.28.03.53.07.73.09.4.15.6.15.6,0,0,.18-.14.49-.37.12-.1.26-.2.43-.31.04-.03.06-.04.1-.07.04-.03.08-.06.12-.09-.1.14-.19.28-.27.42-.05.07-.08.15-.12.22-.43.82-.62,1.59-.71,2.24-.09.66-.09,1.19-.08,1.57,0,.38.04.61.04.61,0,0,.21-.08.55-.25.32-.16.76-.4,1.25-.69,0,.02-.03.03-.05.05-.29.33-.54.72-.83,1.15-.28.43-.57.9-.83,1.33-.52.86-.83,1.58-.83,1.58,0,0,.7.3,1.8.39.16.01.34.02.52,0-.87,1.02-1.45,2.3-1.59,3.39-.1.66-.06,1.21.02,1.58.08.37.16.56.16.56,0,0,.71-.5,1.66-.95.31-.15.63-.3.98-.47-.46.57-.83,1.22-1.07,1.87-.34.93-.41,1.82-.35,2.54.06.72.25,1.29.41,1.66.16.37.29.55.29.55,0,0,.15-.17.39-.47.24-.29.59-.68,1.01-1.08.11-.1.22-.22.34-.33-.07.09-.14.18-.2.28-.96,1.42-1.29,3-1.37,4.21-.08,1.21.05,2.06.05,2.06,0,0,.66-.24,1.52-.74-.49,1.02-.67,2.11-.72,3.01-.06,1.06.06,1.84.06,1.84,0,0,.49-.09,1.18-.37-.37.77-.52,1.61-.57,2.32-.08.97.02,1.71.02,1.71,0,0,.74-.03,1.69-.33.35-.11.73-.25,1.11-.44-.05.08-.09.15-.13.23-.64,1.21-.78,2.57-.76,3.64,0,1.07.19,1.84.19,1.84,0,0,.6-.16,1.39-.56-.73,1.23-.79,2.65-.61,3.66.19,1.05.58,1.71.58,1.71,0,0,.67-.37,1.46-.92,0,0,.02,0,.03-.02-.45,1.39-.49,2.86-.24,3.94.15.69.39,1.22.59,1.57.2.34.34.52.34.52,0,0,.49-.78,1.23-1.69.11-.14.23-.29.35-.44-.3,1.22-.22,2.41-.02,3.33.26,1.16.68,1.88.68,1.88,0,0,.66-.52,1.44-1.31.22-.23.45-.46.68-.72-.12.57-.17,1.17-.1,1.79.31,2.67,2.74,4.58,2.74,4.58,0,0,.51-.65.98-1.64-.04.46,0,.93.15,1.34.27.74.95,1.31,1.57,1.85.61.52,1.16.94,1.16.94,0,0,.46-.34.89-.99,0,0,0,.03,0,.04.14.89.78,1.65,1.39,2.21.6.56,1.17.92,1.17.92,0,0,.53-.42,1.02-1.12.02-.03.04-.05.06-.08,0,0,0,0,0-.02,0,0,0,0,0,0,.55,1.23,1.38,2.28,2.21,2.9.56.44,1.08.69,1.46.83.37.14.6.18.6.18,0,0-.12-.91-.13-2.08-.01-.36-.02-.76-.02-1.16.18.95.51,1.8.85,2.47.54,1.08,1.09,1.74,1.09,1.74,0,0,.55-.67,1.1-1.73.13-.25.26-.52.38-.81.26.91.67,1.74,1.17,2.33.42.52.85.86,1.17,1.05.32.19.52.26.52.26,0,0,.11-.85.43-1.86.09-.31.2-.65.31-1,.24,1.1.71,2.13,1.29,2.83.42.52.85.86,1.17,1.05.32.19.52.26.52.26,0,0,.11-.85.43-1.86.07-.24.15-.49.23-.76.44,1.11,1.14,2.01,1.79,2.62.86.82,1.61,1.17,1.61,1.17,0,0,.26-.79.46-1.88.05-.26.09-.54.13-.83.03,0,.06.02.09.03.23.56.49,1.08.74,1.54.54.97,1.03,1.64,1.03,1.64,0,0,.6-.57,1.16-1.62.1-.18.2-.39.29-.6,3.49.91,5.08.87,5.08.87l4.14-15.95,1.01-3.88,5.57-21.46s13.15-23.15,11.2-41.98ZM296.29,247.13s.03.09.04.13c-.06.02-.13.05-.2.08.06-.07.12-.14.16-.22ZM304.34,263.16c.01-.05.01-.11.01-.17.06.06.11.12.17.18,0,0,0,0,0,0-.07-.01-.12-.01-.18-.01ZM308.11,266.29s0-.02,0-.04c0,0,0,0,0-.01,0,0,.02,0,.02.01,0,0,0,0,0,0,0,0,0,.02,0,.03Z"/><path class="cls-21" d="M298.66,169.15l.1.18c.57.9,1.38,1.76,2.47,2.58,2.63,1.98,6.19,1.31,9.79-.51,3.34-1.68,6.72-4.33,9.44-6.76,3.4-3.03,5.78-5.71,5.78-5.71,0,0-.53-3.16-1.65-7.48-1.49-5.86-4.05-13.89-7.72-19.15-1.51-2.15-4.89-2.22-5.96-.1-2.6,5.16-6.95,14.05-8.26,18.51-1.65,5.58-7.47,12.68-3.99,18.43Z"/><path class="cls-24" d="M298.66,169.15l.1.18c.57.9,1.38,1.76,2.47,2.58,2.63,1.98,6.19,1.31,9.79-.51l9.44-6.76c3.4-3.03,5.78-5.71,5.78-5.71,0,0-.53-3.16-1.65-7.48-2.05.25-5.4.82-10.77,2.09-12.18,2.86-15.16,15.6-15.16,15.6Z"/><path class="cls-14" d="M305.02,159.47c-.45,2.65-.23,4.34,1.17,3.83,5.03-1.84,13.85-5.95,13.85-5.95,0,0-.73-4.97-2.11-9.49l-.02-.02c-.82-2.67-1.88-5.19-3.16-6.43-2.5-2.43-8.52,11.11-9.73,18.06Z"/><path class="cls-4" d="M305.02,159.47c-.45,2.65-.23,4.34,1.17,3.83,5.03-1.84,13.85-5.95,13.85-5.95,0,0-.73-4.97-2.11-9.49l-.02-.02s-3.15,7.54-12.9,11.63Z"/><path class="cls-21" d="M355.7,193.43l-.2.05c-1.05.21-2.22.22-3.57,0-3.25-.52-5.23-3.55-6.42-7.41-1.1-3.57-1.54-7.85-1.67-11.49-.18-4.55.11-8.12.11-8.12,0,0,2.64-1.8,6.53-3.99,5.26-2.99,12.82-6.71,19.15-7.71,2.6-.4,4.99,1.99,4.2,4.22-1.92,5.46-5.31,14.75-7.61,18.79-2.88,5.06-3.96,14.17-10.52,15.66Z"/><path class="cls-24" d="M355.7,193.43l-.2.05c-1.05.21-2.22.22-3.57,0-3.25-.52-5.23-3.55-6.42-7.41l-1.67-11.49c-.18-4.55.11-8.12.11-8.12,0,0,2.64-1.8,6.53-3.99,1.24,1.65,3.15,4.46,5.96,9.21,6.38,10.76-.73,21.74-.73,21.74Z"/><path class="cls-14" d="M358.27,182.13c-1.59,2.16-2.97,3.17-3.57,1.81-2.16-4.9-5.31-14.11-5.31-14.11,0,0,4.09-2.92,8.3-5.06h.02c2.49-1.26,5.05-2.24,6.83-2.18,3.48.12-2.1,13.84-6.27,19.53Z"/><path class="cls-19" d="M331.26,291.73s3.19-6.43-1.48-22.45c-4.67-16.02-.31-38.77,15.52-36.1s13.97,28.67,11.57,36.78-5.68,21.21-4.06,27.46c1.62,6.25-21.55-5.69-21.55-5.69Z"/><path class="cls-4" d="M358.27,182.13c-1.59,2.16-2.97,3.17-3.57,1.81-2.16-4.9-5.31-14.11-5.31-14.11,0,0,4.09-2.92,8.3-5.06h.02s-3.25,7.5.56,17.36Z"/><path class="cls-8" d="M313.75,273.98c-.04.6-.13,1.18-.26,1.75-.7-1.46-1.52-3.11-2.41-4.94-.02.03-.04.05-.06.08-.49.7-1.02,1.12-1.02,1.12,0,0-.57-.36-1.17-.92-.61-.56-1.25-1.31-1.39-2.21,0,0,0-.03,0-.04-.43.66-.89.99-.89.99,0,0-.55-.41-1.16-.94-.62-.53-1.3-1.11-1.57-1.85-.16-.41-.19-.88-.15-1.34-.46.99-.98,1.64-.98,1.64,0,0-2.43-1.91-2.74-4.58-.07-.62-.02-1.23.1-1.79-.23.26-.46.5-.68.72-.78.79-1.44,1.31-1.44,1.31,0,0-.42-.71-.68-1.88-.2-.91-.28-2.11.02-3.33-.12.15-.24.3-.35.44-.73.91-1.23,1.69-1.23,1.69,0,0-.15-.17-.34-.52-.2-.35-.44-.88-.59-1.57-.25-1.08-.21-2.55.24-3.94,0,0-.02,0-.03.02-.8.56-1.46.92-1.46.92,0,0-.39-.66-.58-1.71-.18-1.01-.13-2.43.61-3.66-.79.4-1.39.56-1.39.56,0,0-.18-.77-.19-1.84-.02-1.07.11-2.43.76-3.64.04-.08.08-.15.13-.23-.38.2-.76.34-1.11.44-.95.3-1.69.33-1.69.33,0,0-.1-.74-.02-1.71.05-.71.21-1.54.57-2.32-.69.28-1.18.37-1.18.37,0,0-.12-.79-.06-1.84.05-.9.23-1.99.72-3.01-.87.5-1.52.74-1.52.74,0,0-.13-.85-.05-2.06.08-1.21.41-2.79,1.37-4.21.06-.1.13-.19.2-.28-.12.11-.23.23-.34.33-.42.4-.77.79-1.01,1.08-.25.3-.39.47-.39.47,0,0-.13-.18-.29-.55-.16-.37-.35-.93-.41-1.66-.06-.72,0-1.61.35-2.54.24-.65.61-1.3,1.07-1.87-.35.17-.68.32-.98.47-.95.45-1.66.95-1.66.95,0,0-.08-.19-.16-.56-.08-.37-.12-.92-.02-1.58.13-1.08.72-2.37,1.59-3.39-.19.01-.36,0-.52,0-1.09-.09-1.8-.39-1.8-.39,0,0,.31-.72.83-1.58.26-.43.55-.9.83-1.33.29-.43.54-.82.83-1.15.02-.02.04-.03.05-.05-.49.29-.92.53-1.24.69-.34.17-.55.25-.55.25,0,0-.03-.22-.04-.61-.02-.38-.01-.92.08-1.57.1-.66.28-1.43.71-2.24.04-.07.07-.15.12-.22-.17.11-.32.21-.43.32-.32.24-.5.38-.5.38,0,0-.07-.21-.15-.61-.04-.21-.08-.46-.07-.74-.01-.28-.01-.62.05-.98.09-.74.36-1.54.77-2.36.37-.71.86-1.41,1.45-2.01-.25.06-.49.09-.71.1-.58.03-1.04-.06-1.35-.15-.31-.1-.48-.19-.48-.19,0,0,.36-.68.66-1.52.32-.85.52-1.78.91-2.53.15-.26.33-.53.54-.8-.08.02-.17.05-.25.07-.9.24-1.62.28-1.62.28,0,0-.15-.71-.1-1.65.06-.95.34-2.17,1.25-3.11.44-.45.98-.77,1.53-.97-.25-.05-.48-.13-.69-.22-.75-.32-1.23-.76-1.23-.76,0,0,.18-.62.49-1.31.31-.69.69-1.44,1.33-1.77.43-.23.97-.26,1.49-.2-.57-.98-.97-2.01-1.22-3.08-.44.33-.77.54-.77.54,0,0-.53-.41-.97-1.22-.05-.09-.1-.19-.14-.3.56-.03,1.14,0,1.72.06.38.04.76.09,1.14.17.9.16,1.8.4,2.7.72,2.94,1.03,5.7,2.74,7.64,4.46,2.1,1.88,3.5,4.3,4.47,6.95.06.15.12.31.17.47h0c.13.34.23.68.33,1.03.2.66.38,1.33.53,2.01.1.43.19.86.27,1.29.06.27.8-.28.85-.01.12.71,3.89,1.83,3.98,2.53,2.2,17.44-6.34,36.27-.15,52.72.16.42.33.84.49,1.27.87,2.16,1.82,4.31,2.35,6.55.11.48.22.98.28,1.47.16,1.11.18,2.23.08,3.33Z"/><path class="cls-19" d="M356.81,195.04c-.11.89-.25,1.76-.41,2.63-.4,2.1-.94,4.1-1.58,5.95-.32.95-.67,1.88-1.04,2.75-4.39,10.3-13.78,11.4-27.89,6.87-1.99-.63-4.08-1.38-6.27-2.24-.93-.36-1.89-.74-2.85-1.15-.28-.11-.56-.24-.85-.36-.21-.09-.42-.17-.63-.27,0,0,0,0,0,0-.3-.13-.6-.26-.9-.39-.73-.31-1.45-.62-2.16-.93-2.37-1.04-4.57-2.05-6.62-3.06-.18-.08-.36-.18-.54-.27-.09-.04-.18-.08-.26-.12-.08-.05-.16-.08-.24-.12-1.15-.58-2.24-1.15-3.27-1.73-1.29-.72-2.48-1.43-3.58-2.15-1.19-.79-2.27-1.57-3.24-2.38-.69-.56-1.32-1.14-1.9-1.72-.25-.26-.49-.52-.73-.78-.52-.59-.98-1.19-1.38-1.8-.16-.24-.32-.49-.44-.74-.57-.98-.97-2.01-1.22-3.08-.07-.3-.13-.6-.16-.91-.23-1.47-.15-3.03.25-4.7.14-.62.33-1.25.57-1.9.12-.37.28-.75.44-1.14.33-.77.7-1.57,1.11-2.38.31-.64.66-1.29,1.02-1.94.25-.47.51-.93.8-1.39.88-1.52,1.9-3.05,3.05-4.54.72-.93,1.48-1.86,2.28-2.75.02-.02.04-.03.05-.05.19-.2.38-.41.58-.61.19-.21.39-.42.6-.63t0-.02h.02c1.92-1.96,4.09-3.76,6.51-5.26.53-.33,1.08-.66,1.65-.95.56-.31,1.14-.59,1.72-.86.59-.27,1.19-.52,1.8-.76.61-.23,1.24-.45,1.88-.65,3.08-.94,6.48-1.4,10.17-1.22.21.01.44.03.66.04.11,0,.21.01.31.03.35.03.69.05,1.05.1.25.03.49.07.74.09.04,0,.07.01.12.01h0c.45.07.9.14,1.36.22.25.04.5.08.74.13.5.1,1.01.21,1.52.33.76.18,1.55.39,2.33.64.26.09.53.16.79.25.62.19,1.25.41,1.89.65.1.04.18.08.28.1.29.11.59.24.9.35.33.13.64.27.96.41.29.11.58.25.85.37,12.78,5.76,18,15.13,19.21,24.48.04.21.06.43.08.64.34,3.02.27,6.04-.1,8.91Z"/><path class="cls-21" d="M354.82,203.62c-3.22-.23-6.3-.55-9.25-.98-3.06-.43-5.99-.98-8.78-1.59-.19-.04-.4-.09-.6-.16-4.37-1.33-6.77-6.04-5.66-10.48.31-1.24.65-2.33.92-3.24.93-3.22,1.97-8.55-2.6-9.3-2.28-.37-4.06.51-5.28,1.49-.99.79-1.73,1.82-2.32,2.95-.85,1.63-1.71,3.07-2.64,4.39-1.88,2.67-5.1,4.19-8.33,3.67-1.18-.18-2.31-.58-3.26-1.16-6.73-4.2-11.64-8.61-15.01-12.22,1.08-1.97,2.36-3.97,3.86-5.93,7.44-9.76,20.09-18.09,38.47-11.37.19.06.38.13.56.2.3.12.6.23.9.36.32.13.64.26.96.4.29.12.58.25.86.37,18.48,8.32,21.16,24.21,18.78,36.67-.4,2.1-.94,4.09-1.58,5.95Z"/><path class="cls-19" d="M321.24,182.29c.58-1.12,1.33-2.16,2.31-2.95,1.22-.98,3.01-1.86,5.29-1.48,4.56.75,3.53,6.08,2.6,9.3-.94,3.22-2.77,8.56-1.1,15.43,1.67,6.87-2.86,10.95-6.55,11.16-2.16.12-4.11-.04-5.83-1.79-1.67-1.69-3.86-2.72-6.24-2.78-2.33-.06-5.03-.72-6.33-3.17-1.84-3.47-.37-7.9,4.91-11.42,5.01-3.34,8.07-6.78,10.95-12.3Z"/><path class="cls-19" d="M307.85,208.44s1.25,4.32,5.74,6.17c4.49,1.85,7.9-1.39,7.9-1.39l-4.86-5.77-8.02.81-.76.17Z"/><path class="cls-13" d="M315.06,198.23s7.91-14.75,11.07-12.7c3.16,2.05-2.02,17.28-2.02,17.28l-3.93.32-5.12-4.9Z"/><path class="cls-9" d="M324.63,204.15c-.19,1.24-.8,2.81-2.58,3.66-.57.27-1.25.47-2.07.56-.89.1-1.94.08-3.17-.1-.36-.05-.7-.21-.98-.44-.58-.47-1.59-1.4-2.34-2.61-.4-.61-.71-1.29-.87-2.02-.29-1.23-.14-2.6.89-4.01.18-.24.39-.5.63-.75.41-.42.97-.65,1.55-.62,1.82.07,6.02.63,8.63,4.03.25.33.38.75.39,1.17,0,.3-.01.69-.07,1.12Z"/><ellipse class="cls-9" cx="338.69" cy="191.93" rx="2.06" ry="1.04" transform="translate(12.5 404.4) rotate(-62.62)"/><path class="cls-23" d="M324.63,204.15c-.33.15-.71.24-1.08.29-2.06.28-4.09-.63-5.97-1.52-.89-.43-1.81-.86-2.58-1.49-.53-.44-1.18-1.32-1.48-2.23.18-.24.39-.5.63-.75.41-.42.97-.65,1.55-.62,1.82.07,6.02.63,8.63,4.03.25.33.38.75.39,1.17,0,.3-.01.69-.07,1.12Z"/><path class="cls-22" d="M314.31,204.08c-.08.45-.4.79-.82.9-.4-.61-.71-1.29-.87-2.02.22-.15.49-.21.78-.16.61.1,1.01.67.91,1.28Z"/><path class="cls-22" d="M322.05,207.57c-.57.27-1.25.47-2.07.56-.12-.21-.17-.47-.13-.73.1-.6.68-1.02,1.28-.92.54.09.92.56.93,1.08Z"/><path class="cls-22" d="M317.91,203.75s.06.32.05.83c-.01.51-.11,1.2-.4,1.9-.3.7-.73,1.25-1.09,1.61-.36.36-.63.54-.63.54,0,0,.04-.33.15-.81.11-.48.28-1.12.56-1.78.28-.66.62-1.22.89-1.64.27-.41.48-.67.48-.67Z"/><ellipse class="cls-26" cx="311.75" cy="180.46" rx="6.81" ry="7.13" transform="translate(23.62 396.64) rotate(-66.95)"/><path class="cls-18" d="M324.25,204.26s-.16.08-.48.18c-.31.1-.79.22-1.39.28-1.2.13-2.91-.14-4.57-.84-.82-.32-1.6-.76-2.29-1.17-.68-.49-1.15-1.09-1.44-1.63-.3-.54-.42-1.02-.48-1.34-.06-.33-.06-.51-.06-.51,0,0,.07.17.23.45.16.28.4.68.77,1.08.37.41.87.83,1.48,1.16.67.28,1.39.62,2.22.94,1.6.67,3.04,1.16,4.17,1.31,1.12.17,1.85.09,1.85.09Z"/><ellipse class="cls-9" cx="311.38" cy="181.33" rx="2.06" ry="1.04" transform="translate(39.04 417.27) rotate(-71.12)"/><path class="cls-22" d="M306.68,207.6s.16.05.42.13c.27.08.65.24,1.12.37.94.3,2.24.69,3.64.86,1.4.16,2.66-.03,3.46-.53.4-.24.7-.49.87-.71.18-.21.26-.34.26-.34,0,0-.02.16-.12.43-.09.28-.31.66-.68,1.05-.72.82-2.3,1.4-3.93,1.19-1.63-.2-2.91-.9-3.76-1.46-.43-.27-.74-.55-.97-.72-.21-.18-.34-.28-.34-.28Z"/><path class="cls-22" d="M323.93,213.74s-.17.04-.46.11c-.3.06-.74.12-1.29.1-1.09-.02-2.64-.33-4.1-1.25-.72-.48-1.32-1.09-1.73-1.75-.38-.69-.53-1.41-.45-1.99.08-.57.25-1,.42-1.25.16-.25.25-.4.25-.4,0,0-.03.17-.09.46-.08.28-.1.71-.03,1.18.07.48.31.99.67,1.49.4.48.94.93,1.56,1.35,1.27.81,2.59,1.35,3.58,1.63.49.15.91.23,1.2.27.29.04.46.06.46.06Z"/><path class="cls-16" d="M305.81,206.86s-.26-.2-.57-.71c-.3-.5-.64-1.31-.78-2.37-.13-1.05-.05-2.39.49-3.72.52-1.3,1.31-2.68,2.48-3.86.29-.3.6-.57.91-.82.14-.12.37-.27.54-.36l.51-.27c.66-.33,1.29-.64,1.9-.95,1.2-.61,2.23-1.2,2.98-1.87.76-.66,1.33-1.27,1.71-1.7.37-.43.59-.68.59-.68,0,0-.14.29-.45.78-.31.49-.77,1.2-1.46,1.99-.7.81-1.74,1.57-2.91,2.28-.59.36-1.22.71-1.86,1.07-.33.19-.62.34-.87.55-.28.23-.55.47-.81.74-1.05,1.06-1.83,2.28-2.41,3.46-.57,1.15-.78,2.32-.79,3.32,0,.99.18,1.8.39,2.33.21.53.41.78.41.78Z"/><path class="cls-16" d="M325.88,213.31s.24-.13.65-.39c.39-.27.91-.73,1.36-1.43.92-1.39,1.38-3.72,1.34-6.29-.09-2.52-.54-5.01-.23-6.78.12-.88.29-1.57.44-2.04.15-.47.26-.72.26-.72,0,0-.19,1.08-.15,2.79,0,.86.14,1.84.33,2.98.17,1.13.43,2.37.45,3.77.05,2.73-.75,5.27-2,6.63-1.26,1.39-2.49,1.44-2.44,1.48Z"/><path class="cls-26" d="M354.82,203.62c-3.22-.23-6.3-.55-9.25-.98-1.57-2.55-2.43-5.53-2.17-8.49.15-1.75.67-3.46.8-5.23.37-4.81-2.29-9.51-6.07-12.52-1.32-1.05-2.79-1.94-3.92-3.19-2.27-2.5-4.55-8.88-2.32-12.01.6-.85,1.44-1.33,2.45-1.53.19.06.38.13.56.2.3.12.6.23.9.36.32.13.64.26.96.4.29.12.58.25.86.37,18.48,8.32,21.16,24.21,18.78,36.67-.4,2.1-.94,4.09-1.58,5.95Z"/><path class="cls-21" d="M324.34,158.77s.36-.33.75-.83c.4-.49.82-1.14,1.48-1.79.33-.32.71-.61,1.06-.84.35-.22.68-.39.96-.55.56-.3.94-.59.94-.59,0,0,.03.12.05.33.01.21,0,.53-.1.9-.09.37-.27.78-.5,1.18-.23.39-.5.77-.88,1.14-.74.73-1.76,1.16-2.53,1.2-.38.04-.7-.02-.9-.06-.21-.06-.32-.1-.32-.1Z"/><path class="cls-21" d="M324.01,158.99s.12-.45.21-1.03c.1-.59.15-1.3.39-2.08.24-.78.67-1.53,1.09-2.05.41-.52.79-.79.79-.79,0,0,.15.43.28,1.06.12.63.23,1.48-.06,2.44-.29.96-.99,1.72-1.61,2.08-.62.37-1.09.37-1.09.37Z"/><path class="cls-26" d="M344.71,160.8s.22.42.41,1.05c.2.64.38,1.46.39,2.29.01.83-.12,1.57-.2,2.2-.07.6-.13,1.08-.13,1.08,0,0-.44-.19-.91-.73-.48-.53-.94-1.46-.96-2.5-.02-1.04.37-1.9.71-2.47.35-.58.68-.91.68-.91Z"/><path class="cls-26" d="M347.81,161.88s.03.39,0,.9c-.03.51-.09,1.12-.35,1.66-.26.55-.7.97-1.08,1.31-.38.33-.7.55-.7.55,0,0-.22-.32-.35-.86-.14-.53-.17-1.28.16-1.97.33-.69.94-1.13,1.44-1.35.5-.22.89-.25.89-.25Z"/><path class="cls-21" d="M290.97,173.4s.71.08,1.56.26c.86.18,1.83.41,2.55.98.72.57,1.16,1.47,1.53,2.26.36.79.6,1.46.6,1.46,0,0-.61.36-1.57.51-.95.15-2.27.02-3.3-.79-1.03-.82-1.45-2.08-1.52-3.03-.08-.97.14-1.64.14-1.64Z"/><path class="cls-19" d="M286.81,178.45s.51-.45,1.21-.88c.7-.42,1.45-.89,2.34-.87.88.02,1.75.55,2.39,1.07.65.53,1.07,1.05,1.07,1.05,0,0-.36.57-.99,1.14-.63.57-1.52,1.15-2.59,1.12-1.06-.02-2.07-.69-2.62-1.36-.56-.66-.81-1.28-.81-1.28Z"/><path class="cls-19" d="M285.23,186.81s-.07-.19-.16-.52c-.08-.33-.18-.81-.16-1.41.01-.6.14-1.34.58-2.11.44-.77,1.15-1.47,2-1.89.85-.43,1.73-.56,2.49-.53.76.03,1.41.22,1.94.42,1.05.42,1.67.93,1.67.93,0,0-.55.6-1.39,1.25-.85.66-1.85,1.4-2.72,1.85-.45.23-.86.36-1.29.52-.43.15-.91.38-1.35.62-.46.25-.85.47-1.13.63-.3.16-.47.25-.47.25Z"/><path class="cls-19" d="M290.87,187.91c-.23.52-.65.92-1.1,1.29-.18.15-.36.28-.54.42-.15.11-.3.22-.43.32-.44.33-.77.54-.77.54,0,0-.53-.41-.97-1.22-.05-.09-.1-.19-.14-.3-.34-.77-.49-1.85-.06-2.8.42-.98,1.28-1.53,2.03-1.83.08-.03.15-.07.23-.09.82-.27,1.48-.31,1.48-.31,0,0,.24.64.39,1.46.14.82.2,1.79-.12,2.52Z"/><path class="cls-16" d="M318.97,215.25s-.16.08-.47.18c-.31.1-.78.2-1.36.23-.58.03-1.28,0-2.03-.09-.75-.09-1.61-.24-2.46-.62-1.71-.77-2.77-2.12-3.37-3.09-.6-.99-.82-1.67-.82-1.67,0,0,.46.54,1.25,1.33.79.78,1.93,1.78,3.38,2.43.72.33,1.48.53,2.19.72.71.19,1.35.35,1.89.46,1.08.21,1.8.14,1.8.14Z"/><path class="cls-13" d="M302.23,202.8s-.75-.14-1.92-.45c-1.16-.34-2.82-.68-4.5-1.71-.84-.52-1.51-1.22-1.99-1.91-.48-.69-.81-1.35-1.06-1.92-.48-1.13-.68-1.86-.68-1.86,0,0,.47.65,1.16,1.59.72.96,1.7,2.27,3.16,3.17,1.47.91,3.05,1.53,4.11,2.13,1.08.57,1.72.97,1.72.97Z"/><path class="cls-13" d="M348.07,213.59s-.89.36-2.39.79c-1.5.42-3.61.87-5.99,1.02-2.37.15-4.53-.03-6.07-.27-1.54-.23-2.47-.48-2.47-.48,0,0,1-.03,2.5-.07,1.54-.04,3.65-.14,5.97-.28,2.32-.15,4.42-.32,5.95-.46,1.49-.15,2.49-.25,2.49-.25Z"/><path class="cls-12" d="M353.46,298.97c-1.38-2.35-4.48-6.57-8.21-5.03,0,0-5.27-7.45-8.69-3.38,0,0-4.16-4.57-8.61-.84-4.45,3.73-5.96,8.1-4.61,10.36,1.34,2.27,18.37,2.76,18.37,2.76,0,0,5.69.19,10.86-1.71.98-.36,1.37-1.35.89-2.16Z"/><path class="cls-26" d="M359.31,202.03s-.34.63-1.08,1.24c-.73.61-1.93,1.18-3.23,1.01-1.3-.18-2.31-1.04-2.85-1.82-.56-.79-.72-1.48-.72-1.48,0,0,.65-.29,1.47-.58.83-.28,1.77-.59,2.69-.46.91.12,1.75.66,2.47,1.15.71.49,1.26.95,1.26.95Z"/><path class="cls-19" d="M357.67,208.28s-.62.24-1.49.3c-.86.07-2.04-.19-2.79-.94-.76-.75-.96-1.79-.98-2.64-.02-.85.13-1.5.13-1.5,0,0,.67-.06,1.5.04.83.1,1.8.36,2.43.98.63.62.81,1.48.99,2.28.17.8.21,1.48.21,1.48Z"/><path class="cls-19" d="M352.7,215.32s-.06-.19-.15-.51c-.08-.31-.2-.74-.34-1.25-.13-.48-.3-.99-.49-1.4-.19-.41-.38-.8-.52-1.28-.28-.94-.44-2.16-.55-3.23-.11-1.06-.06-1.87-.06-1.87,0,0,.79.1,1.82.56.52.24,1.1.58,1.65,1.1.55.52,1.06,1.25,1.34,2.16.28.91.28,1.9.02,2.75-.25.85-.7,1.45-1.12,1.87-.42.43-.83.69-1.13.86-.3.17-.48.24-.48.24Z"/><path class="cls-19" d="M348.11,215.89s-.11-.67-.21-1.46c-.08-.81-.21-1.65.09-2.38.31-.73,1.05-1.36,1.74-1.83.69-.47,1.32-.74,1.32-.74,0,0,.44.51.81,1.29.36.77.63,1.88.18,2.96-.45,1.1-1.52,1.78-2.39,2-.87.25-1.55.15-1.55.15Z"/><path class="cls-16" d="M330.77,275.44s-.52-2.07-1.28-5.44c-.37-1.68-.85-3.69-1.15-5.98-.29-2.3-.32-4.86-.05-7.51.54-5.31,1.94-9.91,2.88-13.22.47-1.66.94-3.01,1.41-3.86.46-.86.82-1.26.82-1.26,0,0-.3.45-.66,1.34-.37.89-.69,2.23-1.03,3.92-.68,3.38-1.8,8.02-2.32,13.19-.26,2.59-.3,5.06-.12,7.3.19,2.24.53,4.27.77,5.98.49,3.42.74,5.54.74,5.54Z"/><path class="cls-16" d="M355.25,275.74s.18-.7.52-1.79c.34-1.1.85-2.58,1.41-4.2.55-1.62,1.01-3.09,1.27-4.19.27-1.1.39-1.81.39-1.81,0,0,.03.18.07.5.05.32.08.79.08,1.38,0,1.17-.2,2.8-.78,4.48-.58,1.68-1.35,3.08-1.95,4.07-.6.99-1.02,1.57-1.02,1.57Z"/><path class="cls-29" d="M329.33,300.95s-.03-.7.16-1.83c.18-1.12.64-2.66,1.54-4.17.9-1.51,2.07-2.62,2.98-3.31.43-.37.94-.59,1.29-.55.37.04.43.28.44.26,0,.02-.15-.16-.43-.09-.28.07-.6.33-.92.77-.69.86-1.57,2.07-2.42,3.48-.85,1.41-1.52,2.74-1.96,3.76-.44,1.01-.68,1.67-.68,1.67Z"/><path class="cls-29" d="M339.23,302.47s-.06-.62.14-1.61c.19-.99.71-2.31,1.56-3.57.43-.63.85-1.19,1.31-1.69.46-.49.98-.88,1.47-1.09.49-.21.92-.26,1.2-.24.29.01.43.06.43.06,0,0-.16.02-.41.11-.25.08-.6.26-.94.54-.71.55-1.33,1.69-2.16,2.91-.81,1.21-1.52,2.29-1.95,3.14-.44.85-.66,1.43-.66,1.43Z"/><path class="cls-29" d="M323.17,299.67s-.14-.2-.28-.61c-.15-.41-.26-1.07-.18-1.86.07-.79.31-1.71.62-2.67.31-.96.69-2.08,1.48-3.09.81-1.01,1.78-1.62,2.64-2.18.88-.56,1.78-.95,2.59-1.06.8-.13,1.46,0,1.87.14.42.15.61.3.61.3,0,0-.23-.09-.64-.13-.41-.04-1.02-.01-1.71.22-.68.23-1.42.69-2.19,1.29-.77.62-1.66,1.28-2.31,2.1-.65.83-1.08,1.82-1.47,2.74-.4.92-.75,1.73-.94,2.45-.2.71-.23,1.31-.19,1.73.04.42.12.65.12.65Z"/><path class="cls-19" d="M330.67,175.49s-.09-.9.4-1.7c.49-.8,1.33-1.13,1.33-1.13,0,0,.07.94-.4,1.7-.47.76-1.33,1.13-1.33,1.13Z"/><path class="cls-19" d="M326.87,176.3s-.15-.81.18-1.46c.33-.65,1.06-1.02,1.06-1.02,0,0,.28.8-.08,1.51-.36.72-1.16.97-1.16.97Z"/><path class="cls-19" d="M332.54,178.32s-.15-.85.28-1.6c.43-.75,1.23-1.06,1.23-1.06,0,0,.13.89-.28,1.6-.41.71-1.23,1.06-1.23,1.06Z"/><path class="cls-26" d="M364.46,243.58s-1.23.52-2.74.48c-1.5-.04-2.71-.62-2.71-.62,0,0,1.23-.52,2.74-.48,1.5.04,2.71.62,2.71.62Z"/><path class="cls-26" d="M367.53,249.02s-.43,0-1.09-.06c-.66-.05-1.56-.14-2.53-.31-.97-.17-1.84-.39-2.48-.56-.64-.17-1.05-.31-1.05-.31,0,0,.41-.14,1.08-.24.67-.1,1.62-.15,2.64.02,1.02.18,1.89.54,2.49.86.6.32.94.59.94.59Z"/><path class="cls-26" d="M366.25,254.82s-.34-.06-.85-.2c-.51-.14-1.18-.34-1.88-.65-.7-.3-1.31-.66-1.76-.94-.45-.28-.73-.49-.73-.49,0,0,.34-.06.89-.04.54.02,1.29.13,2.04.45.75.33,1.34.8,1.72,1.18.38.38.57.68.57.68Z"/><path class="cls-15" d="M356.82,204.05s.1-.01.27-.06c.17-.04.41-.14.68-.31.26-.18.54-.43.75-.77.1-.17.19-.36.25-.57.06-.2.08-.48.03-.45-.01-.01-.02-.02-.05-.02l-.22-.12c-.17-.09-.34-.18-.52-.27-.36-.18-.73-.35-1.13-.51l-.24-.1c-.13-.05-.26-.09-.39-.14-.33-.11-.65-.21-.95-.31.19-.32.38-.63.57-.95.11-.19.12-.21.17-.3l.11-.22c.14-.29.27-.58.37-.86.21-.56.34-1.08.41-1.53.08-.45.1-.82.12-1.07.02-.26-.16-.32-.15-.3-.01-.02.21-.02.29.28.07.26.16.63.2,1.11.04.48.04,1.07-.08,1.73-.06.33-.15.67-.28,1.02-.06.15-.12.3-.17.45,0,.01,0,.02.01.02.01,0,.02,0,.02,0h0s.12.04.12.04l.27.1c.43.17.84.38,1.22.6.19.11.37.23.54.35.09.06.16.11.28.2.14.11.26.26.32.42.1.23.05.53.01.66-.04.16-.1.3-.16.44-.13.27-.3.5-.48.68-.36.37-.77.57-1.11.68-.34.1-.62.11-.81.1-.19-.01-.28-.04-.28-.04Z"/><path class="cls-19" d="M294.65,206.78s-.38,1.04-1.29,1.81c-.91.77-2,.97-2,.97,0,0,.38-1.04,1.29-1.81.91-.77,2-.97,2-.97Z"/><path class="cls-19" d="M296.93,208.3s.05.78-.47,1.25c-.52.47-1.29.33-1.29.33,0,0,.11-.74.56-1.15.45-.41,1.2-.43,1.2-.43Z"/><ellipse class="cls-31" cx="366.43" cy="148.09" rx="2.84" ry="2.15"/><ellipse class="cls-31" cx="371.11" cy="140.44" rx="2.44" ry="3.24" transform="translate(138.12 461.63) rotate(-74.77)"/><ellipse class="cls-31" cx="375.79" cy="133.11" rx="4.68" ry="3.53" transform="translate(-12.69 43.55) rotate(-6.52)"/><ellipse class="cls-31" cx="411.21" cy="112.88" rx="37.01" ry="22.94"/><ellipse class="cls-31" cx="389.11" cy="130.88" rx="4.68" ry="3.53" transform="translate(-12.35 45.05) rotate(-6.52)"/><ellipse class="cls-31" cx="396.51" cy="132.56" rx="4.68" ry="3.53" transform="translate(-12.49 45.9) rotate(-6.52)"/><ellipse class="cls-31" cx="384.65" cy="127.33" rx="4.68" ry="3.53" transform="translate(-11.97 44.52) rotate(-6.52)"/><ellipse class="cls-31" cx="401.93" cy="131.94" rx="4.68" ry="3.53" transform="translate(-12.39 46.52) rotate(-6.52)"/><ellipse class="cls-31" cx="378.46" cy="124.35" rx="4.68" ry="3.53" transform="translate(-11.68 43.8) rotate(-6.52)"/><ellipse class="cls-31" cx="377.47" cy="120.8" rx="4.68" ry="3.53" transform="translate(-17.49 153.65) rotate(-22.5)"/><ellipse class="cls-31" cx="378.85" cy="116.43" rx="4.68" ry="3.53" transform="translate(-10.77 43.79) rotate(-6.52)"/><ellipse class="cls-31" cx="373.95" cy="116.99" rx="4.68" ry="3.53" transform="translate(-10.87 43.24) rotate(-6.52)"/><ellipse class="cls-31" cx="372.34" cy="112.17" rx="4.68" ry="3.53" transform="translate(-10.33 43.03) rotate(-6.52)"/><ellipse class="cls-31" cx="373.95" cy="106.09" rx="4.68" ry="3.53" transform="translate(-9.63 43.17) rotate(-6.52)"/><ellipse class="cls-31" cx="379.98" cy="103.05" rx="3.53" ry="4.68" transform="translate(131.71 408.61) rotate(-66.08)"/><ellipse class="cls-31" cx="385.16" cy="98.75" rx="3.53" ry="4.14" transform="translate(174.58 436.03) rotate(-72.4)"/><ellipse class="cls-31" cx="391.75" cy="95.96" rx="4.68" ry="3.53" transform="translate(-8.36 45.13) rotate(-6.52)"/><ellipse class="cls-31" cx="398.58" cy="93.49" rx="4.68" ry="3.53" transform="translate(-8.04 45.89) rotate(-6.52)"/><ellipse class="cls-31" cx="405.96" cy="91.82" rx="3.53" ry="4.68" transform="translate(258.02 480.85) rotate(-81.92)"/><ellipse class="cls-31" cx="413.25" cy="91.82" rx="3.53" ry="4.68" transform="translate(264.29 488.07) rotate(-81.92)"/><ellipse class="cls-31" cx="419.1" cy="91.15" rx="4.68" ry="3.53" transform="translate(-7.64 48.2) rotate(-6.52)"/><ellipse class="cls-31" cx="424.52" cy="92.4" rx="4.68" ry="3.53" transform="translate(-7.75 48.83) rotate(-6.52)"/><ellipse class="cls-31" cx="429.19" cy="95.37" rx="4.68" ry="3.53" transform="translate(-8.06 49.38) rotate(-6.52)"/><ellipse class="cls-31" cx="433.47" cy="98.21" rx="4.68" ry="3.53" transform="translate(31.63 288.12) rotate(-38.06)"/><ellipse class="cls-31" cx="438.14" cy="100.22" rx="4.68" ry="3.53" transform="translate(-8.55 50.42) rotate(-6.52)"/><ellipse class="cls-31" cx="441.92" cy="104.21" rx="4.68" ry="3.53" transform="translate(-8.98 50.88) rotate(-6.52)"/><ellipse class="cls-31" cx="444.89" cy="108.88" rx="3.53" ry="4.68" transform="translate(13.84 263.73) rotate(-33.51)"/><ellipse class="cls-31" cx="446.24" cy="114.52" rx="3.53" ry="4.68" transform="translate(10.95 265.41) rotate(-33.51)"/><ellipse class="cls-31" cx="442.81" cy="119.98" rx="4.68" ry="3.53" transform="translate(-10.76 51.08) rotate(-6.52)"/><ellipse class="cls-31" cx="439.67" cy="124.83" rx="4.68" ry="3.53" transform="translate(-11.34 50.76) rotate(-6.52)"/><ellipse class="cls-31" cx="433.47" cy="129.07" rx="4.68" ry="3.53" transform="translate(-11.86 50.08) rotate(-6.52)"/><ellipse class="cls-31" cx="426.85" cy="131.94" rx="4.68" ry="3.53" transform="translate(-12.23 49.35) rotate(-6.52)"/><ellipse class="cls-31" cx="419.85" cy="133.84" rx="4.68" ry="3.53" transform="translate(-12.49 48.56) rotate(-6.52)"/><ellipse class="cls-31" cx="411.99" cy="134.74" rx="4.68" ry="3.53" transform="translate(-12.64 47.68) rotate(-6.52)"/><ellipse class="cls-31" cx="404" cy="133.84" rx="4.68" ry="3.53" transform="translate(-12.59 46.76) rotate(-6.52)"/><path class="cls-28" d="M424.41,109.1c-.03.28-.3.55-.57.58-.13.01-.25.01-.35,0-.28-.03-.47-.13-.6-.29-.15-.19-.19-.46-.16-.76.1-1.04,1.07-2.51,1.57-2.9,1.37-1.07,3.63-2.14,5.54-1.95.31.03.61.1.9.2.4.14.72.33.98.55.65.56.85,1.32.77,2.12-.1,1-.64,2.05-1.32,2.83-.91,1.05-1.95,1.96-2.94,2.93-1.02,1-2.93,2.66-3.08,4.17,0,.05,0,.09,0,.14,0,.13-.03.25-.08.35-.14.31-.46.42-.75.39-.1,0-.19-.04-.28-.08-.22-.1-.37-.31-.34-.58,0-.08.03-.18.08-.27.56-1.15.85-2.26,1.7-3.3.71-.86,1.51-1.64,2.31-2.41.97-.93,3.12-2.49,3.27-3.97,0-.09.01-.18,0-.27-.02-.23-.07-.42-.14-.57-.21-.45-.65-.65-1.17-.7-1.04-.1-2.45.39-3.16.74-.57.27-1.21.56-1.6,1.06-.23.3-.74.89-.78,1.33-.01.13.01.24.1.33.09.09.13.19.11.34ZM424.22,120.58c.07,0,.13.02.2.05.12.05.23.15.28.22.02,0,.02,0,.04.01.21.07.37.3.37.52,0,.07,0,.14,0,.21-.04.41-.21.8-.63.97-.14.06-.3.08-.45.06-.21-.02-.42-.11-.57-.25-.04-.04-.1-.1-.12-.13-.02,0,0,0-.02,0-.19-.08-.34-.29-.32-.5,0-.03,0-.06.02-.09.01-.04.03-.1.04-.13,0-.06,0-.07.01-.11.03-.23.19-.46.38-.59.1-.07.22-.12.32-.14.15-.08.3-.12.46-.11Z"/><path class="cls-5" d="M413.1,104.82c.98-1.63-.22-4.27-1.85-5.02-1.63-.75-3.79-.03-4.64,1.55-.64,1.2-.56,2.67-1.18,3.88-.58,1.12-1.67,1.85-2.73,2.53-1.7,1.09-3.43,2.16-5.17,3.2-.72.43-1.49.87-2.33.83-.71-.03-1.36-.4-2.06-.58-1.31-.35-2.81.05-3.76,1.02-.95.97-1.31,2.49-.87,3.78.44,1.29,1.62,2.22,2.88,2.29,1.68.09,2.26,1.26,1.57,2.22-1.11,1.54.19,3.9,1.82,4.65,1.63.75,3.79.03,4.64-1.55.64-1.2.56-2.67,1.18-3.88.58-1.12,1.67-1.85,2.73-2.53,3.46-2.22,6.16-4.09,7.49-4.03.71.03,1.36.4,2.06.58,1.31.35,2.81-.05,3.76-1.02.95-.97,1.31-2.49.87-3.78-.44-1.29-1.88-2.14-2.94-2.11-1.59.03-1.8-1.5-1.48-2.02Z"/><path class="cls-10" d="M411.25,99.8c-1.63-.75-3.69-.06-4.64,1.55-.56.95-.31,3.33-.7,4.33-.58,1.51-9.45,6.65-10.48,6.74-.78.06-2.21-.04-2.98.1-.77.14-1.56.52-1.92,1.22-.34.68-.2,1.53.21,2.17.4.65,1.03,1.12,1.67,1.53.81.52,1.77,1.09,1.92,2.04.12.78-.34,1.51-.51,2.28-.18.83,0,1.74.51,2.43.5.69,3.47,2.13,5.1-.58.7-1.16.56-2.67,1.19-3.88.58-1.12,1.67-1.85,2.73-2.53,3.26-2.1,6.44-4.84,7.75-4.76,1.07.07,3.27,2.34,5.3.41.98-.94,1.57-2.6,1.13-3.89-.11-.31-.27-.6-.48-.85h0c-.48-.48-1.24-.65-1.94-.69-.85-.05-1.39.07-2.06-.46-.98-.77-.84-2-.54-2.43.82-1.17.84-2.09.41-3.07-.23-.54-1-1.36-1.66-1.67Z"/><path class="cls-34" d="M415.6,113.48c1.06-.86,1.88-2.23,1.76-3.6s-.95-2.39-3.14-2.5c.62-.01,1.65-.17,2.45.44.51.38.83.87.95,1.5.09.48.1,1.14,0,1.62-.26,1.13-.92,1.97-2.02,2.55Z"/><path class="cls-34" d="M413.39,107.18c-.66-.28-1.16-1.11-1.15-1.83,0-.72.7-1.61.93-2.4.06.76-.49,1.47-.67,2.22-.18.78.13,1.31.88,2.01Z"/><path class="cls-34" d="M406.4,102c.29-.78,1.65-1.81,2.44-2.02.74-.2,1.22-.33,1.95-.09.73.24,1.83,1.08,2.16,1.77-.42-1.19-1.61-2.07-2.87-2.12-.58-.02-1.15.12-1.71.29-.41.13-1.55.91-1.97,2.17Z"/><path class="cls-25" d="M631.67,154.44c.05-3.61-3.8-6.4-6.72-5.78-2.92.62-5.39,4.12-5.29,7.52.07,2.57,1.39,4.78,1.49,7.35.1,2.37-.85,4.72-1.79,6.94-1.52,3.58-3.08,7.14-4.69,10.67-.66,1.46-1.4,2.99-2.61,3.86-1.03.74-2.26.88-3.38,1.35-2.14.9-3.93,3.16-4.48,5.72-.55,2.56.18,5.32,1.85,6.84,1.67,1.52,4.1,1.68,5.94.4,2.45-1.71,4.22-.52,4.03,1.73-.3,3.62,3.46,5.86,6.38,5.24,2.92-.62,5.39-4.12,5.29-7.52-.07-2.57-1.39-4.78-1.49-7.35-.1-2.37.85-4.72,1.79-6.94,3.08-7.27,5.37-13.14,7.31-14.52,1.03-.74,2.26-.88,3.38-1.35,2.14-.9,3.93-3.16,4.48-5.72.55-2.56-.18-5.32-1.85-6.84-1.67-1.52-4.4-1.26-5.88-.06-2.22,1.8-3.77-.36-3.75-1.52Z"/><path class="cls-10" d="M624.95,148.66c-2.92.62-5.26,3.97-5.29,7.52-.02,2.09,2.29,5.52,2.56,7.52.4,2.99-7.93,20.75-9.32,22.02-1.05.96-3.15,2.38-4.13,3.44-.98,1.07-1.79,2.52-1.72,4.01.07,1.44.97,2.6,2.07,3.16,1.1.56,2.37.61,3.61.54,1.57-.08,3.39-.25,4.38,1.07.81,1.07.75,2.73,1.14,4.11.42,1.49,1.43,2.7,2.71,3.22,1.27.52,6.64-.5,6.74-6.51.04-2.58-1.39-4.78-1.49-7.35-.1-2.37.85-4.72,1.79-6.94,2.9-6.86,5.16-14.62,7.07-15.94,1.56-1.07,6.55.05,7.83-5.2.62-2.54.1-5.79-1.58-7.31-.4-.37-.87-.63-1.37-.8h0c-1.06-.22-2.29.36-3.31,1.06-1.24.85-1.91,1.64-3.28,1.56-2.02-.12-2.83-2.18-2.75-3.18.2-2.73-.52-4.17-1.92-5.23-.77-.59-2.52-1.02-3.71-.77Z"/><path class="cls-34" d="M642.28,165.18c.8-2.51.84-5.55-.45-7.53-1.29-1.99-3.29-2.67-6.48-.45.86-.7,2.19-2.08,3.83-2.02,1.03.04,1.89.44,2.57,1.29.52.65,1.08,1.66,1.31,2.53.55,2.05.31,4.09-.77,6.19Z"/><path class="cls-34" d="M634,157.8c-1.16.29-2.54-.46-3.12-1.58-.58-1.12-.33-3.28-.64-4.76.7,1.11.5,2.83.87,4.19.38,1.4,1.25,1.9,2.89,2.15Z"/><path class="cls-34" d="M619.88,157.43c-.22-1.53.86-4.63,1.8-5.82.88-1.12,1.46-1.86,2.68-2.29,1.22-.43,3.46-.33,4.5.38-1.56-1.4-3.97-1.46-5.79-.14-.84.6-1.54,1.45-2.17,2.34-.47.66-1.44,3.13-1.02,5.54Z"/></g></g></svg>