<svg xmlns="http://www.w3.org/2000/svg" xmlns:xlink="http://www.w3.org/1999/xlink" width="1920" zoomAndPan="magnify" viewBox="0 0 1440 809.999993" height="1080" preserveAspectRatio="xMidYMid meet" version="1.0"><defs><clipPath id="c6c04ffbdf"><path d="M 375 79.390625 L 1064.941406 79.390625 L 1064.941406 730.390625 L 375 730.390625 Z M 375 79.390625 " clip-rule="nonzero"/></clipPath></defs><g clip-path="url(#c6c04ffbdf)"><path fill="#000000" d="M 665.679688 726.855469 C 667.046875 724.648438 657.726562 723.375 640.167969 723.375 C 622.402344 723.375 608.9375 721.515625 602.53125 718.171875 C 597.042969 715.3125 589.816406 712.964844 586.460938 712.953125 C 583.109375 712.941406 580.371094 711.363281 580.371094 709.449219 C 580.371094 707.535156 577.1875 705.964844 573.296875 705.964844 C 569.40625 705.964844 565.320312 703.617188 564.21875 700.746094 C 563.117188 697.871094 560.375 695.523438 558.132812 695.523438 C 555.886719 695.523438 551.746094 692.195312 548.929688 688.132812 C 546.113281 684.066406 541.847656 678.695312 539.453125 676.195312 C 537.0625 673.695312 535.101562 669.878906 535.101562 667.710938 C 535.101562 665.546875 533.730469 664.625 532.054688 665.660156 C 530.378906 666.695312 528.011719 661.304688 526.789062 653.679688 C 525.570312 646.054688 523.023438 639.816406 521.132812 639.816406 C 516.871094 639.816406 516.484375 588.75 520.722656 586.132812 C 522.390625 585.101562 524.746094 579.316406 525.953125 573.273438 C 527.160156 567.230469 531.058594 559.757812 534.609375 556.664062 C 538.164062 553.570312 542.191406 547.492188 543.558594 543.15625 C 544.929688 538.820312 547.335938 536.066406 548.910156 537.039062 C 550.484375 538.011719 552.785156 534.765625 554.023438 529.828125 C 555.992188 521.992188 561.4375 515.714844 579.5 500.472656 C 581.894531 498.453125 583.851562 493.730469 583.851562 489.976562 C 583.851562 486.21875 585.265625 483.148438 586.992188 483.148438 C 588.71875 483.148438 591.222656 473.75 592.558594 462.257812 C 593.890625 450.769531 596.394531 441.371094 598.121094 441.371094 C 599.847656 441.371094 601.261719 439.128906 601.261719 436.390625 C 601.261719 433.652344 604.75 430.910156 609.007812 430.296875 C 613.269531 429.683594 618.730469 425.269531 621.144531 420.480469 C 623.558594 415.695312 625.558594 413.265625 625.585938 415.085938 C 625.613281 416.902344 627.515625 416.511719 629.816406 414.214844 C 632.113281 411.917969 636.8125 410.035156 640.261719 410.035156 C 643.707031 410.035156 646.53125 408.019531 646.53125 405.554688 C 646.53125 403.089844 649.789062 400.828125 653.773438 400.527344 C 657.757812 400.226562 665.023438 395.976562 669.917969 391.082031 C 675.320312 385.683594 682.738281 382.183594 688.789062 382.183594 C 694.273438 382.183594 698.761719 380.617188 698.761719 378.703125 C 698.761719 376.789062 704.246094 375.21875 710.949219 375.21875 C 717.652344 375.21875 723.136719 376.789062 723.136719 378.703125 C 723.136719 380.617188 730.1875 382.183594 738.804688 382.183594 C 748.421875 382.183594 754.476562 383.753906 754.476562 386.246094 C 754.476562 388.480469 755.453125 389.328125 756.648438 388.132812 C 759.863281 384.921875 788.207031 400.882812 797.945312 411.386719 C 802.582031 416.386719 808.109375 420.480469 810.230469 420.480469 C 812.347656 420.480469 813.191406 421.917969 812.105469 423.679688 C 811.019531 425.4375 814.84375 427.910156 820.605469 429.175781 C 826.367188 430.441406 831.082031 433.03125 831.082031 434.933594 C 831.082031 439.265625 837.050781 445.265625 849.363281 453.316406 C 854.628906 456.761719 858.9375 461.078125 858.9375 462.90625 C 858.9375 467.402344 867.988281 476.183594 872.617188 476.183594 C 874.667969 476.183594 876.347656 479.320312 876.347656 483.148438 C 876.347656 486.976562 877.886719 490.109375 879.765625 490.109375 C 881.644531 490.109375 884.164062 494.027344 885.363281 498.816406 C 886.566406 503.601562 888.839844 507.519531 890.421875 507.519531 C 892 507.519531 894.386719 510.972656 895.726562 515.191406 C 897.0625 519.410156 900.304688 525.003906 902.921875 527.625 C 905.542969 530.242188 907.6875 534.625 907.6875 537.359375 C 907.6875 540.097656 909.253906 542.335938 911.167969 542.335938 C 913.085938 542.335938 914.652344 546.25 914.652344 551.039062 C 914.652344 555.824219 916.148438 559.742188 917.976562 559.742188 C 919.804688 559.742188 922.328125 565.226562 923.585938 571.929688 C 924.84375 578.628906 927.089844 584.113281 928.582031 584.113281 C 930.070312 584.113281 932.316406 589.597656 933.574219 596.296875 C 934.832031 603 937.355469 608.484375 939.183594 608.484375 C 941.011719 608.484375 942.507812 617.882812 942.507812 629.375 C 942.507812 640.980469 940.960938 650.261719 939.027344 650.261719 C 937.109375 650.261719 935.542969 653.445312 935.542969 657.335938 C 935.542969 661.226562 933.0625 665.359375 930.027344 666.523438 C 925.804688 668.144531 925.546875 669.277344 928.917969 671.359375 C 931.746094 673.109375 928.734375 674.941406 920.503906 676.484375 C 913.453125 677.808594 907.6875 680.28125 907.6875 681.984375 C 907.6875 683.6875 905.289062 685.078125 902.355469 685.078125 C 899.421875 685.078125 896.121094 687.429688 895.019531 690.300781 C 893.914062 693.171875 890.960938 695.523438 888.453125 695.523438 C 885.945312 695.523438 883.34375 697.164062 882.675781 699.171875 C 882.007812 701.179688 872.476562 703.75 861.492188 704.882812 C 850.511719 706.015625 841.527344 708.148438 841.527344 709.621094 C 841.527344 711.09375 821.15625 713.425781 796.257812 714.804688 C 771.363281 716.179688 750.992188 718.671875 750.992188 720.339844 C 750.992188 722.011719 742.371094 723.375 731.839844 723.375 C 721.308594 723.375 712.6875 724.941406 712.6875 726.855469 C 712.6875 728.851562 702.171875 730.339844 688.109375 730.339844 C 672.609375 730.339844 664.324219 729.054688 665.679688 726.855469 Z M 709.859375 379.796875 C 707.347656 378.792969 704.34375 378.917969 703.1875 380.074219 C 702.03125 381.230469 704.085938 382.054688 707.757812 381.902344 C 711.8125 381.734375 712.640625 380.910156 709.859375 379.796875 Z M 453.332031 512.726562 C 447.621094 509.621094 440.117188 504.046875 436.65625 500.335938 C 433.199219 496.621094 429.035156 493.585938 427.402344 493.585938 C 425.765625 493.585938 423.449219 489.667969 422.246094 484.882812 C 421.042969 480.09375 418.523438 476.179688 416.644531 476.179688 C 414.765625 476.179688 413.230469 472.210938 413.230469 467.363281 C 413.230469 462.519531 410.878906 457.648438 408.007812 456.546875 C 405.132812 455.445312 402.785156 451.671875 402.785156 448.160156 C 402.785156 444.648438 401.363281 440.894531 399.628906 439.824219 C 397.890625 438.75 395.351562 429.648438 393.984375 419.597656 C 392.613281 409.550781 389.726562 400.207031 387.5625 398.84375 C 385.007812 397.230469 383.632812 382.027344 383.632812 355.34375 L 383.632812 314.324219 L 395.820312 310.152344 C 402.523438 307.855469 406.441406 305.800781 404.523438 305.582031 C 402.609375 305.367188 406.527344 303.234375 413.230469 300.84375 C 425.675781 296.410156 444.570312 299.46875 444.570312 305.921875 C 444.570312 307.652344 447.703125 309.066406 451.535156 309.066406 C 455.363281 309.066406 458.496094 310.632812 458.496094 312.546875 C 458.496094 314.460938 460.1875 316.027344 462.253906 316.027344 C 464.320312 316.027344 473.0625 323.078125 481.679688 331.695312 C 490.296875 340.3125 498.761719 347.363281 500.492188 347.363281 C 502.21875 347.363281 504.613281 351.277344 505.816406 356.066406 C 507.019531 360.851562 509.199219 364.769531 510.660156 364.769531 C 512.125 364.769531 514.324219 371.035156 515.546875 378.695312 C 516.773438 386.355469 519.292969 392.621094 521.148438 392.621094 C 523.003906 392.621094 525.507812 396.539062 526.707031 401.324219 C 527.910156 406.113281 530.289062 410.03125 532 410.03125 C 533.707031 410.03125 535.101562 413.164062 535.101562 416.992188 C 535.101562 420.824219 536.671875 423.957031 538.585938 423.957031 C 540.613281 423.957031 542.066406 435.492188 542.066406 451.601562 C 542.066406 466.808594 540.5 480.21875 538.585938 481.402344 C 536.671875 482.585938 535.101562 486.6875 535.101562 490.515625 C 535.101562 494.34375 533.535156 496.511719 531.621094 495.328125 C 529.707031 494.144531 528.140625 495.667969 528.140625 498.710938 C 528.140625 501.757812 525.398438 505.261719 522.046875 506.496094 C 518.695312 507.734375 514.953125 510.230469 513.734375 512.046875 C 512.515625 513.863281 500.765625 516.027344 487.621094 516.859375 C 469.914062 517.976562 461.027344 516.90625 453.332031 512.726562 Z M 943.882812 502.605469 C 942.847656 499.90625 938.296875 496.769531 933.777344 495.632812 C 929.253906 494.496094 924.457031 490.046875 923.113281 485.746094 C 921.769531 481.441406 919.707031 477.136719 918.527344 476.179688 C 911.585938 470.535156 907.679688 456.066406 907.679688 435.984375 C 907.679688 420.230469 906.488281 413.839844 903.851562 415.46875 C 901.066406 417.1875 901.066406 415.882812 903.851562 410.679688 C 905.957031 406.746094 907.679688 397.921875 907.679688 391.078125 C 907.679688 382.9375 910.089844 376.566406 914.644531 372.667969 C 918.476562 369.386719 921.632812 362.742188 921.664062 357.902344 C 921.710938 350.203125 928.382812 334.195312 928.519531 341.449219 C 928.65625 348.496094 945.984375 324.496094 945.984375 317.261719 C 945.984375 312.078125 948.027344 309.066406 951.539062 309.066406 C 954.597656 309.066406 961.519531 305.914062 966.929688 302.066406 C 983.0625 290.578125 1040 293.25 1040 305.496094 C 1040 307.460938 1042.101562 309.066406 1044.664062 309.066406 C 1049.539062 309.066406 1057.410156 323.140625 1057.410156 331.859375 C 1057.410156 334.640625 1058.976562 336.917969 1060.894531 336.917969 C 1062.992188 336.917969 1064.375 351.425781 1064.375 373.472656 C 1064.375 393.578125 1063.007812 410.03125 1061.339844 410.03125 C 1059.667969 410.03125 1057.28125 416.402344 1056.035156 424.191406 C 1054.742188 432.289062 1050.078125 442.050781 1045.144531 446.980469 C 1040.402344 451.722656 1036.519531 457.882812 1036.519531 460.667969 C 1036.519531 463.457031 1034.953125 465.734375 1033.035156 465.734375 C 1031.121094 465.734375 1029.554688 468.132812 1029.554688 471.066406 C 1029.554688 474 1027.359375 477.238281 1024.675781 478.269531 C 1021.992188 479.300781 1019.003906 483.164062 1018.039062 486.855469 C 1017.074219 490.546875 1012.609375 495.039062 1008.121094 496.839844 C 1003.292969 498.769531 1002.09375 500.296875 1005.179688 500.574219 C 1019.828125 501.878906 993.507812 507.050781 971.121094 507.269531 C 952.34375 507.449219 945.277344 506.238281 943.882812 502.605469 Z M 375.476562 343.875 C 375.476562 339.089844 376.269531 337.128906 377.234375 339.523438 C 378.199219 341.917969 378.199219 345.832031 377.234375 348.226562 C 376.269531 350.621094 375.476562 348.664062 375.476562 343.875 Z M 595.414062 341.410156 C 596.710938 339.3125 593.457031 336.917969 587.769531 335.78125 C 576.488281 333.523438 552.515625 311.847656 552.515625 303.898438 C 552.515625 300.992188 551.042969 298.617188 549.246094 298.617188 C 547.449219 298.617188 544.921875 291.582031 543.632812 282.984375 C 542.34375 274.386719 539.898438 268.210938 538.195312 269.261719 C 536.496094 270.3125 535.105469 266.289062 535.105469 260.316406 C 535.105469 253.96875 533.660156 250.355469 531.621094 251.613281 C 529.585938 252.871094 528.042969 248.992188 527.902344 242.246094 C 527.148438 206.222656 524.492188 152.824219 523.035156 144.554688 C 522.109375 139.289062 522.878906 134.980469 524.746094 134.980469 C 526.613281 134.980469 528.140625 130.1875 528.140625 124.332031 C 528.140625 118.117188 529.589844 114.578125 531.621094 115.832031 C 533.539062 117.015625 535.105469 115.542969 535.105469 112.558594 C 535.105469 109.570312 537.457031 107.128906 540.328125 107.128906 C 543.199219 107.128906 545.550781 104.609375 545.550781 101.53125 C 545.550781 97.292969 547.671875 96.460938 554.257812 98.113281 C 560.679688 99.726562 562.960938 98.914062 562.960938 95.011719 C 562.960938 88.988281 576.941406 87.800781 586.511719 93.011719 C 589.839844 94.824219 598.4375 97.242188 605.617188 98.394531 C 612.800781 99.542969 618.675781 101.855469 618.675781 103.539062 C 618.675781 107.351562 639.105469 128.019531 642.871094 128.019531 C 644.394531 128.019531 646.621094 134.152344 647.824219 141.652344 C 649.023438 149.152344 651.179688 155.808594 652.621094 156.449219 C 654.058594 157.089844 658.371094 163.777344 662.203125 171.316406 C 668.261719 183.242188 669.125 191.519531 668.851562 235.175781 C 668.667969 264.496094 667.089844 286.28125 665.046875 287.621094 C 663.125 288.878906 660.582031 294.917969 659.390625 301.042969 C 656.945312 313.613281 647.308594 326.46875 640.328125 326.46875 C 637.769531 326.46875 636.484375 327.78125 637.476562 329.382812 C 638.46875 330.988281 631.902344 334.011719 622.882812 336.101562 C 613.867188 338.195312 603.488281 341.066406 599.824219 342.480469 C 595.515625 344.144531 593.957031 343.765625 595.414062 341.410156 Z M 789.292969 312.542969 C 789.292969 310.628906 786.550781 309.035156 783.199219 309 C 774.832031 308.917969 761.4375 294.058594 761.4375 284.863281 C 761.4375 280.710938 759.867188 278.285156 757.953125 279.46875 C 755.691406 280.863281 754.472656 263.449219 754.472656 229.769531 C 754.472656 201.253906 753.390625 176.839844 752.070312 175.519531 C 750.746094 174.195312 750.089844 164.925781 750.609375 154.917969 C 751.589844 136.054688 761.949219 114.09375 769.867188 114.09375 C 772.277344 114.09375 776.125 109.972656 778.417969 104.9375 C 780.710938 99.90625 783.488281 96.683594 784.582031 97.777344 C 785.679688 98.875 791.847656 96.945312 798.289062 93.492188 C 810.949219 86.710938 840.449219 85.886719 844.441406 92.207031 C 845.710938 94.21875 854.515625 96.628906 864.007812 97.5625 C 873.5 98.5 881.917969 101.210938 882.710938 103.59375 C 883.503906 105.972656 887.097656 110.441406 890.695312 113.519531 C 894.292969 116.601562 897.238281 120.992188 897.238281 123.28125 C 897.238281 125.566406 899.15625 128.078125 901.503906 128.859375 C 907.398438 130.824219 907.742188 224.644531 901.867188 228.273438 C 899.625 229.660156 896.714844 235.085938 895.394531 240.335938 C 894.078125 245.582031 891.730469 249.875 890.171875 249.875 C 888.617188 249.875 886.3125 254.574219 885.050781 260.316406 C 883.789062 266.0625 881.3125 270.761719 879.550781 270.761719 C 877.789062 270.761719 876.347656 273.1875 876.347656 276.152344 C 876.347656 282.710938 859.816406 298.613281 853 298.613281 C 850.292969 298.613281 848.941406 300.007812 849.996094 301.714844 C 851.046875 303.417969 846.441406 305.839844 839.753906 307.09375 C 833.066406 308.347656 827.597656 310.871094 827.597656 312.699219 C 827.597656 314.527344 818.980469 316.023438 808.445312 316.023438 C 797.914062 316.023438 789.292969 314.457031 789.292969 312.539062 Z M 821.574219 80.65625 C 822.730469 79.496094 825.734375 79.375 828.25 80.378906 C 831.027344 81.492188 830.203125 82.316406 826.144531 82.484375 C 822.476562 82.632812 820.417969 81.8125 821.574219 80.65625 Z M 821.574219 80.65625 " fill-opacity="1" fill-rule="nonzero"/></g></svg>