<svg xmlns="http://www.w3.org/2000/svg" xmlns:xlink="http://www.w3.org/1999/xlink" width="1920" zoomAndPan="magnify" viewBox="0 0 1440 809.999993" height="1080" preserveAspectRatio="xMidYMid meet" version="1.0"><defs><clipPath id="f05afe68cf"><path d="M 400.242188 85.242188 L 1039.757812 85.242188 L 1039.757812 724.757812 L 400.242188 724.757812 Z M 400.242188 85.242188 " clip-rule="nonzero"/></clipPath><clipPath id="2578ba61b4"><path d="M 720 85.242188 C 543.402344 85.242188 400.242188 228.402344 400.242188 405 C 400.242188 581.597656 543.402344 724.757812 720 724.757812 C 896.597656 724.757812 1039.757812 581.597656 1039.757812 405 C 1039.757812 228.402344 896.597656 85.242188 720 85.242188 Z M 720 85.242188 " clip-rule="nonzero"/></clipPath><clipPath id="de70618218"><path d="M 516.1875 212 L 923.4375 212 L 923.4375 401 L 516.1875 401 Z M 516.1875 212 " clip-rule="nonzero"/></clipPath></defs><g clip-path="url(#f05afe68cf)"><g clip-path="url(#2578ba61b4)"><path fill="#eb8128" d="M 400.242188 85.242188 L 1039.757812 85.242188 L 1039.757812 724.757812 L 400.242188 724.757812 Z M 400.242188 85.242188 " fill-opacity="1" fill-rule="nonzero"/></g></g><path fill="#f16c7a" d="M 811.816406 252 L 881.855469 252 L 881.855469 382.890625 L 811.816406 382.890625 Z M 811.816406 252 " fill-opacity="1" fill-rule="nonzero"/><path fill="#3a312a" d="M 881.855469 385.453125 L 811.816406 385.453125 C 810.402344 385.453125 809.253906 384.308594 809.253906 382.890625 L 809.253906 252 C 809.253906 250.582031 810.402344 249.4375 811.816406 249.4375 L 881.855469 249.4375 C 883.273438 249.4375 884.417969 250.582031 884.417969 252 L 884.417969 382.890625 C 884.417969 384.308594 883.269531 385.453125 881.855469 385.453125 Z M 814.378906 380.328125 L 879.292969 380.328125 L 879.292969 254.5625 L 814.378906 254.5625 Z M 814.378906 380.328125 " fill-opacity="1" fill-rule="nonzero"/><path fill="#f16c7a" d="M 890.886719 215.128906 L 802.789062 215.128906 C 798.105469 215.128906 794.308594 218.925781 794.308594 223.613281 L 794.308594 243.515625 C 794.308594 248.199219 798.105469 252 802.789062 252 L 890.886719 252 C 895.570312 252 899.367188 248.199219 899.367188 243.515625 L 899.367188 223.613281 C 899.367188 218.925781 895.570312 215.128906 890.886719 215.128906 Z M 890.886719 215.128906 " fill-opacity="1" fill-rule="nonzero"/><path fill="#3a312a" d="M 890.886719 254.5625 L 802.792969 254.5625 C 796.703125 254.5625 791.746094 249.605469 791.746094 243.515625 L 791.746094 223.613281 C 791.746094 217.519531 796.703125 212.566406 802.792969 212.566406 L 890.886719 212.566406 C 896.976562 212.566406 901.929688 217.519531 901.929688 223.613281 L 901.929688 243.515625 C 901.929688 249.605469 896.972656 254.5625 890.886719 254.5625 Z M 802.789062 217.691406 C 799.523438 217.691406 796.871094 220.347656 796.871094 223.613281 L 796.871094 243.515625 C 796.871094 246.78125 799.527344 249.433594 802.789062 249.433594 L 890.882812 249.433594 C 894.148438 249.433594 896.800781 246.777344 896.800781 243.515625 L 896.800781 223.613281 C 896.800781 220.347656 894.144531 217.691406 890.882812 217.691406 Z M 802.789062 217.691406 " fill-opacity="1" fill-rule="nonzero"/><path fill="#d7e057" d="M 583.230469 231.863281 C 583.230469 231.863281 589.050781 253.492188 605.816406 254.496094 C 605.816406 254.496094 583.4375 262.226562 583.0625 278.761719 C 583.0625 278.761719 578.65625 255.570312 560.980469 254.738281 C 560.980469 254.742188 581.566406 251.621094 583.230469 231.863281 Z M 583.230469 231.863281 " fill-opacity="1" fill-rule="nonzero"/><path fill="#3a312a" d="M 583.058594 281.324219 C 581.839844 281.324219 580.777344 280.460938 580.542969 279.246094 C 580.503906 279.035156 576.28125 258.027344 560.859375 257.304688 C 559.546875 257.238281 558.492188 256.191406 558.421875 254.875 C 558.355469 253.558594 559.296875 252.40625 560.597656 252.207031 C 561.351562 252.089844 579.207031 249.101562 580.675781 231.648438 C 580.78125 230.410156 581.757812 229.425781 582.996094 229.3125 C 584.253906 229.21875 585.378906 229.996094 585.703125 231.195312 C 585.757812 231.394531 591.269531 251.058594 605.96875 251.9375 C 607.1875 252.011719 608.183594 252.9375 608.351562 254.144531 C 608.519531 255.355469 607.808594 256.515625 606.652344 256.917969 C 606.445312 256.992188 585.953125 264.285156 585.621094 278.820312 C 585.589844 280.132812 584.578125 281.207031 583.269531 281.316406 C 583.203125 281.320312 583.128906 281.324219 583.058594 281.324219 Z M 569.835938 254.449219 C 576.460938 257.8125 580.476562 264.265625 582.796875 269.617188 C 586.257812 262.746094 592.945312 258.019531 598.082031 255.214844 C 591.023438 252.070312 586.496094 245.5625 583.847656 240.3125 C 580.78125 247.761719 574.839844 252.046875 569.835938 254.449219 Z M 569.835938 254.449219 " fill-opacity="1" fill-rule="nonzero"/><path fill="#d7e057" d="M 546.164062 260.878906 C 546.164062 260.878906 550.28125 276.175781 562.136719 276.886719 C 562.136719 276.886719 546.308594 282.355469 546.042969 294.050781 C 546.042969 294.050781 542.925781 277.644531 530.425781 277.058594 C 530.425781 277.058594 544.984375 274.851562 546.164062 260.878906 Z M 546.164062 260.878906 " fill-opacity="1" fill-rule="nonzero"/><path fill="#3a312a" d="M 546.039062 296.613281 C 544.820312 296.613281 543.753906 295.746094 543.523438 294.53125 C 543.496094 294.390625 540.613281 280.105469 530.304688 279.621094 C 528.988281 279.554688 527.933594 278.507812 527.867188 277.191406 C 527.796875 275.875 528.738281 274.722656 530.042969 274.527344 C 530.546875 274.445312 542.621094 272.402344 543.609375 260.664062 C 543.714844 259.421875 544.695312 258.4375 545.933594 258.324219 C 547.175781 258.207031 548.308594 259.007812 548.632812 260.207031 C 548.671875 260.34375 552.441406 273.738281 562.289062 274.328125 C 563.511719 274.402344 564.507812 275.324219 564.675781 276.539062 C 564.84375 277.75 564.128906 278.910156 562.972656 279.308594 C 562.835938 279.355469 548.824219 284.355469 548.601562 294.109375 C 548.570312 295.417969 547.558594 296.496094 546.25 296.605469 C 546.179688 296.609375 546.109375 296.613281 546.039062 296.613281 Z M 538.320312 276.917969 C 541.921875 279.195312 544.339844 282.714844 545.917969 285.9375 C 548.269531 282.125 551.921875 279.324219 555.082031 277.441406 C 551.175781 275.273438 548.449219 271.71875 546.644531 268.515625 C 544.636719 272.425781 541.492188 275.136719 538.320312 276.917969 Z M 538.320312 276.917969 " fill-opacity="1" fill-rule="nonzero"/><path fill="#d7e057" d="M 546.164062 215.328125 C 546.164062 215.328125 550.28125 230.628906 562.136719 231.335938 C 562.136719 231.335938 546.308594 236.804688 546.042969 248.5 C 546.042969 248.5 542.925781 232.097656 530.425781 231.507812 C 530.425781 231.511719 544.984375 229.304688 546.164062 215.328125 Z M 546.164062 215.328125 " fill-opacity="1" fill-rule="nonzero"/><path fill="#3a312a" d="M 546.039062 251.066406 C 544.820312 251.066406 543.753906 250.199219 543.523438 248.980469 C 543.496094 248.839844 540.613281 234.554688 530.304688 234.070312 C 528.988281 234.007812 527.933594 232.957031 527.867188 231.640625 C 527.796875 230.324219 528.738281 229.171875 530.042969 228.976562 C 530.546875 228.894531 542.621094 226.851562 543.609375 215.109375 C 543.714844 213.871094 544.695312 212.882812 545.933594 212.773438 C 547.175781 212.652344 548.308594 213.457031 548.632812 214.65625 C 548.671875 214.792969 552.441406 228.1875 562.289062 228.777344 C 563.511719 228.851562 564.507812 229.777344 564.675781 230.988281 C 564.84375 232.199219 564.128906 233.359375 562.972656 233.757812 C 562.835938 233.808594 548.824219 238.804688 548.601562 248.558594 C 548.570312 249.871094 547.558594 250.945312 546.25 251.054688 C 546.179688 251.0625 546.109375 251.066406 546.039062 251.066406 Z M 538.320312 231.367188 C 541.921875 233.644531 544.339844 237.167969 545.917969 240.390625 C 548.269531 236.574219 551.921875 233.773438 555.082031 231.894531 C 551.175781 229.722656 548.449219 226.167969 546.644531 222.96875 C 544.636719 226.875 541.492188 229.589844 538.320312 231.367188 Z M 538.320312 231.367188 " fill-opacity="1" fill-rule="nonzero"/><path fill="#8ac6dd" d="M 548.320312 498.917969 L 548.320312 596.140625 L 891.679688 596.140625 L 891.679688 367.949219 L 722.902344 224.765625 C 721.230469 223.347656 718.769531 223.347656 717.09375 224.765625 L 548.320312 367.949219 Z M 548.320312 498.917969 " fill-opacity="1" fill-rule="nonzero"/><path fill="#3a312a" d="M 891.679688 598.703125 L 548.320312 598.703125 C 546.902344 598.703125 545.757812 597.558594 545.757812 596.140625 L 545.757812 498.917969 C 545.757812 497.503906 546.902344 496.355469 548.320312 496.355469 C 549.734375 496.355469 550.878906 497.503906 550.878906 498.917969 L 550.878906 593.578125 L 889.117188 593.578125 L 889.117188 369.136719 L 721.246094 226.71875 C 720.523438 226.109375 719.472656 226.109375 718.75 226.71875 L 550.878906 369.136719 L 550.878906 472.910156 C 550.878906 474.328125 549.734375 475.472656 548.320312 475.472656 C 546.902344 475.472656 545.757812 474.328125 545.757812 472.910156 L 545.757812 367.949219 C 545.757812 367.195312 546.085938 366.480469 546.660156 365.992188 L 715.4375 222.808594 C 718.082031 220.570312 721.917969 220.570312 724.558594 222.808594 L 893.335938 365.992188 C 893.910156 366.480469 894.242188 367.195312 894.242188 367.949219 L 894.242188 596.140625 C 894.242188 597.558594 893.09375 598.703125 891.679688 598.703125 Z M 891.679688 598.703125 " fill-opacity="1" fill-rule="nonzero"/><path fill="#87796f" d="M 562.867188 343.1875 L 523.261719 376.785156 C 518.226562 381.058594 517.609375 388.609375 521.882812 393.644531 C 526.152344 398.683594 533.699219 399.300781 538.738281 395.027344 L 719.8125 241.402344 L 900.890625 395.027344 C 903.140625 396.933594 905.886719 397.867188 908.621094 397.867188 C 912.011719 397.867188 915.382812 396.433594 917.746094 393.644531 C 922.019531 388.609375 921.398438 381.058594 916.363281 376.785156 L 730.449219 219.054688 C 724.285156 213.835938 715.34375 213.832031 709.175781 219.0625 L 583.066406 326.050781 Z M 562.867188 343.1875 " fill-opacity="1" fill-rule="nonzero"/><g clip-path="url(#de70618218)"><path fill="#3a312a" d="M 908.621094 400.433594 C 905.191406 400.433594 901.855469 399.207031 899.234375 396.984375 L 719.8125 244.761719 L 540.394531 396.984375 C 534.285156 402.164062 525.105469 401.410156 519.925781 395.304688 C 517.417969 392.347656 516.210938 388.589844 516.527344 384.722656 C 516.84375 380.855469 518.648438 377.34375 521.605469 374.835938 L 561.207031 341.234375 C 562.285156 340.316406 563.90625 340.453125 564.820312 341.53125 C 565.734375 342.613281 565.601562 344.230469 564.523438 345.144531 L 524.921875 378.742188 C 523.007812 380.367188 521.839844 382.636719 521.636719 385.140625 C 521.429688 387.640625 522.210938 390.074219 523.832031 391.984375 C 527.1875 395.941406 533.128906 396.425781 537.078125 393.074219 L 718.15625 239.445312 C 719.113281 238.632812 720.515625 238.632812 721.472656 239.445312 L 902.550781 393.074219 C 904.246094 394.511719 906.402344 395.304688 908.621094 395.304688 C 911.390625 395.304688 914.003906 394.09375 915.792969 391.984375 C 917.414062 390.070312 918.195312 387.640625 917.992188 385.140625 C 917.785156 382.636719 916.621094 380.367188 914.707031 378.742188 L 728.789062 221.007812 C 723.589844 216.605469 716.035156 216.605469 710.832031 221.015625 L 584.722656 328.003906 C 583.644531 328.921875 582.027344 328.792969 581.113281 327.707031 C 580.195312 326.628906 580.328125 325.011719 581.410156 324.097656 L 707.519531 217.105469 C 714.640625 211.070312 724.980469 211.070312 732.105469 217.097656 L 918.023438 374.832031 C 920.980469 377.339844 922.785156 380.851562 923.101562 384.71875 C 923.417969 388.585938 922.210938 392.34375 919.703125 395.300781 C 916.9375 398.5625 912.898438 400.433594 908.621094 400.433594 Z M 908.621094 400.433594 " fill-opacity="1" fill-rule="nonzero"/></g><path fill="#87796f" d="M 720 465.445312 C 689.632812 465.445312 665.019531 490.066406 665.019531 520.4375 L 665.019531 596.140625 L 774.980469 596.140625 L 774.980469 520.4375 C 774.976562 490.066406 750.363281 465.445312 720 465.445312 Z M 720 465.445312 " fill-opacity="1" fill-rule="nonzero"/><path fill="#3a312a" d="M 774.976562 598.703125 L 665.019531 598.703125 C 663.605469 598.703125 662.457031 597.558594 662.457031 596.140625 L 662.457031 520.4375 C 662.457031 488.699219 688.269531 462.882812 720 462.882812 C 751.726562 462.882812 777.542969 488.699219 777.542969 520.4375 L 777.542969 596.140625 C 777.539062 597.558594 776.394531 598.703125 774.976562 598.703125 Z M 667.582031 593.578125 L 772.417969 593.578125 L 772.417969 520.4375 C 772.417969 491.527344 748.902344 468.007812 720 468.007812 C 691.09375 468.007812 667.582031 491.527344 667.582031 520.4375 Z M 667.582031 593.578125 " fill-opacity="1" fill-rule="nonzero"/><path fill="#d6df58" d="M 731.230469 309.265625 C 732.304688 309.4375 733.375 309.636719 734.441406 309.863281 C 735.511719 310.089844 736.570312 310.339844 737.625 310.617188 C 738.679688 310.894531 739.726562 311.195312 740.765625 311.527344 C 741.804688 311.855469 742.835938 312.207031 743.859375 312.585938 C 744.878906 312.96875 745.890625 313.371094 746.894531 313.800781 C 747.894531 314.230469 748.886719 314.683594 749.867188 315.160156 C 750.847656 315.636719 751.816406 316.140625 752.769531 316.664062 C 753.726562 317.191406 754.667969 317.738281 755.597656 318.308594 C 756.523438 318.882812 757.4375 319.476562 758.335938 320.089844 C 759.238281 320.707031 760.121094 321.347656 760.988281 322.007812 C 761.855469 322.664062 762.707031 323.347656 763.542969 324.046875 C 764.375 324.75 765.195312 325.472656 765.992188 326.210938 C 766.792969 326.953125 767.570312 327.714844 768.332031 328.496094 C 769.097656 329.273438 769.839844 330.074219 770.5625 330.890625 C 771.28125 331.707031 771.984375 332.539062 772.667969 333.390625 C 773.347656 334.242188 774.007812 335.109375 774.648438 335.992188 C 775.289062 336.875 775.90625 337.773438 776.5 338.6875 C 777.09375 339.601562 777.667969 340.53125 778.214844 341.472656 C 778.765625 342.414062 779.292969 343.367188 779.792969 344.335938 C 780.296875 345.304688 780.777344 346.28125 781.230469 347.273438 C 781.683594 348.265625 782.113281 349.265625 782.519531 350.277344 C 782.925781 351.289062 783.304688 352.3125 783.660156 353.34375 C 784.015625 354.375 784.34375 355.414062 784.648438 356.460938 C 784.953125 357.507812 785.234375 358.5625 785.484375 359.621094 C 785.738281 360.683594 785.964844 361.75 786.164062 362.820312 C 786.363281 363.890625 786.539062 364.96875 786.683594 366.050781 C 786.832031 367.128906 786.953125 368.210938 787.046875 369.300781 C 787.140625 370.386719 787.207031 371.472656 787.25 372.5625 C 787.289062 373.652344 787.304688 374.742188 787.292969 375.832031 C 787.277344 376.921875 787.238281 378.011719 787.171875 379.101562 C 787.105469 380.1875 787.015625 381.277344 786.894531 382.359375 C 786.773438 383.441406 786.628906 384.523438 786.457031 385.601562 C 786.285156 386.675781 786.085938 387.75 785.859375 388.816406 C 785.632812 389.882812 785.382812 390.941406 785.105469 391.996094 C 784.828125 393.050781 784.527344 394.097656 784.199219 395.140625 C 783.867188 396.179688 783.515625 397.210938 783.136719 398.230469 C 782.757812 399.253906 782.351562 400.265625 781.921875 401.269531 C 781.496094 402.269531 781.039062 403.261719 780.5625 404.242188 C 780.085938 405.222656 779.585938 406.191406 779.058594 407.148438 C 778.535156 408.101562 777.984375 409.042969 777.414062 409.972656 C 776.84375 410.902344 776.25 411.816406 775.632812 412.714844 C 775.015625 413.613281 774.378906 414.5 773.71875 415.367188 C 773.058594 416.234375 772.378906 417.085938 771.679688 417.921875 C 770.976562 418.753906 770.253906 419.574219 769.511719 420.371094 C 768.773438 421.171875 768.011719 421.953125 767.230469 422.714844 C 766.453125 423.476562 765.652344 424.21875 764.835938 424.941406 C 764.019531 425.664062 763.1875 426.367188 762.335938 427.046875 C 761.484375 427.730469 760.621094 428.390625 759.734375 429.03125 C 758.851562 429.667969 757.953125 430.285156 757.042969 430.882812 C 756.128906 431.476562 755.199219 432.046875 754.257812 432.597656 C 753.316406 433.148438 752.363281 433.675781 751.394531 434.175781 C 750.429688 434.679688 749.449219 435.15625 748.457031 435.613281 C 747.46875 436.066406 746.464844 436.496094 745.453125 436.902344 C 744.441406 437.308594 743.421875 437.6875 742.390625 438.042969 C 741.359375 438.398438 740.320312 438.730469 739.273438 439.035156 C 738.226562 439.335938 737.171875 439.617188 736.113281 439.867188 C 735.050781 440.121094 733.984375 440.347656 732.914062 440.546875 C 731.84375 440.75 730.765625 440.921875 729.6875 441.070312 C 728.605469 441.214844 727.523438 441.335938 726.4375 441.429688 C 725.351562 441.527344 724.261719 441.59375 723.175781 441.632812 C 722.085938 441.675781 720.996094 441.6875 719.90625 441.675781 C 718.816406 441.664062 717.726562 441.625 716.636719 441.558594 C 715.550781 441.492188 714.464844 441.398438 713.378906 441.277344 C 712.296875 441.160156 711.214844 441.011719 710.140625 440.839844 C 709.0625 440.667969 707.992188 440.46875 706.925781 440.242188 C 705.859375 440.019531 704.796875 439.765625 703.742188 439.488281 C 702.691406 439.210938 701.644531 438.910156 700.601562 438.582031 C 699.5625 438.253906 698.53125 437.898438 697.511719 437.519531 C 696.488281 437.140625 695.476562 436.734375 694.472656 436.304688 C 693.472656 435.878906 692.480469 435.421875 691.5 434.945312 C 690.519531 434.46875 689.554688 433.96875 688.597656 433.441406 C 687.644531 432.917969 686.699219 432.367188 685.773438 431.796875 C 684.84375 431.226562 683.929688 430.632812 683.03125 430.015625 C 682.132812 429.398438 681.246094 428.761719 680.378906 428.101562 C 679.511719 427.441406 678.660156 426.761719 677.828125 426.058594 C 676.992188 425.355469 676.175781 424.636719 675.375 423.894531 C 674.578125 423.152344 673.796875 422.390625 673.035156 421.609375 C 672.273438 420.832031 671.53125 420.03125 670.808594 419.214844 C 670.085938 418.398438 669.382812 417.566406 668.703125 416.714844 C 668.019531 415.863281 667.359375 414.996094 666.71875 414.113281 C 666.082031 413.230469 665.464844 412.332031 664.867188 411.417969 C 664.273438 410.503906 663.703125 409.578125 663.152344 408.636719 C 662.601562 407.695312 662.078125 406.738281 661.574219 405.769531 C 661.070312 404.804688 660.59375 403.824219 660.136719 402.832031 C 659.683594 401.84375 659.253906 400.839844 658.847656 399.828125 C 658.441406 398.816406 658.0625 397.792969 657.707031 396.761719 C 657.351562 395.734375 657.023438 394.695312 656.71875 393.648438 C 656.414062 392.601562 656.136719 391.546875 655.882812 390.484375 C 655.632812 389.425781 655.40625 388.359375 655.203125 387.285156 C 655.003906 386.214844 654.832031 385.136719 654.683594 384.058594 C 654.535156 382.976562 654.414062 381.894531 654.320312 380.808594 C 654.226562 379.722656 654.160156 378.632812 654.117188 377.542969 C 654.078125 376.453125 654.0625 375.363281 654.078125 374.273438 C 654.089844 373.183594 654.128906 372.09375 654.195312 371.003906 C 654.261719 369.917969 654.355469 368.832031 654.472656 367.746094 C 654.59375 366.664062 654.738281 365.582031 654.910156 364.507812 C 655.085938 363.429688 655.285156 362.359375 655.507812 361.292969 C 655.734375 360.222656 655.984375 359.164062 656.261719 358.109375 C 656.539062 357.054688 656.84375 356.007812 657.171875 354.96875 C 657.5 353.929688 657.855469 352.898438 658.234375 351.875 C 658.613281 350.851562 659.015625 349.839844 659.445312 348.835938 C 659.875 347.835938 660.328125 346.84375 660.804688 345.863281 C 661.28125 344.882812 661.785156 343.914062 662.308594 342.960938 C 662.835938 342.003906 663.382812 341.0625 663.953125 340.132812 C 664.523438 339.203125 665.117188 338.289062 665.734375 337.390625 C 666.351562 336.492188 666.988281 335.609375 667.648438 334.738281 C 668.308594 333.871094 668.988281 333.019531 669.691406 332.1875 C 670.390625 331.351562 671.113281 330.535156 671.855469 329.734375 C 672.597656 328.933594 673.355469 328.15625 674.136719 327.394531 C 674.917969 326.628906 675.714844 325.886719 676.53125 325.164062 C 677.347656 324.441406 678.179688 323.742188 679.03125 323.058594 C 679.882812 322.375 680.75 321.714844 681.632812 321.078125 C 682.515625 320.4375 683.414062 319.820312 684.328125 319.226562 C 685.242188 318.628906 686.167969 318.058594 687.109375 317.507812 C 688.050781 316.957031 689.003906 316.433594 689.972656 315.929688 C 690.941406 315.425781 691.917969 314.949219 692.910156 314.492188 C 693.902344 314.039062 694.902344 313.609375 695.914062 313.203125 C 696.925781 312.796875 697.949219 312.417969 698.980469 312.0625 C 700.007812 311.707031 701.046875 311.378906 702.09375 311.074219 C 703.140625 310.769531 704.195312 310.492188 705.257812 310.238281 C 706.316406 309.984375 707.382812 309.757812 708.453125 309.558594 C 709.527344 309.359375 710.601562 309.183594 711.683594 309.039062 C 712.761719 308.890625 713.84375 308.769531 714.929688 308.675781 C 716.015625 308.582031 717.105469 308.511719 718.195312 308.472656 C 719.285156 308.433594 720.375 308.417969 721.464844 308.429688 C 722.554688 308.445312 723.644531 308.484375 724.730469 308.550781 C 725.820312 308.617188 726.90625 308.707031 727.988281 308.828125 C 729.070312 308.949219 730.152344 309.09375 731.230469 309.265625 Z M 731.230469 309.265625 " fill-opacity="1" fill-rule="nonzero"/><path fill="#3a312a" d="M 720.675781 444.238281 C 682.53125 444.238281 651.5 413.199219 651.5 375.046875 C 651.5 336.894531 682.535156 305.855469 720.675781 305.855469 C 758.816406 305.855469 789.851562 336.894531 789.851562 375.046875 C 789.851562 413.199219 758.816406 444.238281 720.675781 444.238281 Z M 720.675781 310.980469 C 685.359375 310.980469 656.625 339.722656 656.625 375.046875 C 656.625 410.371094 685.359375 439.109375 720.675781 439.109375 C 755.992188 439.109375 784.726562 410.371094 784.726562 375.046875 C 784.726562 339.722656 755.992188 310.980469 720.675781 310.980469 Z M 720.675781 310.980469 " fill-opacity="1" fill-rule="nonzero"/><path fill="#87796f" d="M 715.113281 348.382812 C 715.839844 355.78125 711.761719 362.234375 705.996094 362.800781 C 700.234375 363.371094 694.972656 357.832031 694.246094 350.433594 C 693.519531 343.039062 697.601562 336.582031 703.363281 336.015625 C 709.128906 335.449219 714.386719 340.984375 715.113281 348.382812 Z M 715.113281 348.382812 " fill-opacity="1" fill-rule="nonzero"/><path fill="#3a312a" d="M 705.167969 365.40625 C 701.960938 365.40625 698.871094 363.996094 696.378906 361.367188 C 693.765625 358.621094 692.105469 354.824219 691.699219 350.683594 C 691.289062 346.539062 692.179688 342.496094 694.207031 339.289062 C 696.363281 335.886719 699.523438 333.816406 703.113281 333.460938 C 706.707031 333.105469 710.210938 334.523438 712.988281 337.445312 C 715.597656 340.191406 717.257812 343.988281 717.664062 348.128906 C 718.527344 356.921875 713.40625 364.644531 706.25 365.351562 C 705.886719 365.386719 705.527344 365.40625 705.167969 365.40625 Z M 704.171875 338.539062 C 703.988281 338.539062 703.800781 338.546875 703.613281 338.566406 C 701.632812 338.761719 699.828125 339.992188 698.539062 342.035156 C 697.117188 344.277344 696.5 347.171875 696.796875 350.183594 C 697.09375 353.195312 698.261719 355.914062 700.089844 357.839844 C 701.753906 359.589844 703.75 360.449219 705.746094 360.25 C 710.09375 359.824219 713.152344 354.613281 712.566406 348.632812 C 712.269531 345.621094 711.097656 342.902344 709.269531 340.980469 C 707.761719 339.390625 705.96875 338.539062 704.171875 338.539062 Z M 704.171875 338.539062 " fill-opacity="1" fill-rule="nonzero"/><path fill="#87796f" d="M 691.214844 367.761719 C 693.457031 374.847656 690.792969 382.007812 685.273438 383.75 C 679.753906 385.496094 673.460938 381.167969 671.222656 374.078125 C 668.984375 366.992188 671.644531 359.832031 677.164062 358.085938 C 682.683594 356.339844 688.976562 360.671875 691.214844 367.761719 Z M 691.214844 367.761719 " fill-opacity="1" fill-rule="nonzero"/><path fill="#3a312a" d="M 682.792969 386.695312 C 676.894531 386.695312 671.027344 381.960938 668.78125 374.851562 C 666.117188 366.429688 669.535156 357.8125 676.394531 355.644531 C 683.253906 353.472656 691 358.5625 693.660156 366.988281 C 696.324219 375.410156 692.90625 384.027344 686.046875 386.195312 C 684.976562 386.535156 683.882812 386.695312 682.792969 386.695312 Z M 679.710938 360.257812 C 679.113281 360.257812 678.519531 360.347656 677.9375 360.53125 C 673.773438 361.847656 671.855469 367.578125 673.664062 373.308594 C 675.476562 379.035156 680.335938 382.621094 684.5 381.308594 C 688.664062 379.992188 690.582031 374.261719 688.773438 368.53125 C 687.214844 363.601562 683.398438 360.257812 679.710938 360.257812 Z M 679.710938 360.257812 " fill-opacity="1" fill-rule="nonzero"/><path fill="#87796f" d="M 726.234375 348.382812 C 725.507812 355.78125 729.589844 362.234375 735.351562 362.800781 C 741.113281 363.371094 746.375 357.832031 747.101562 350.433594 C 747.828125 343.039062 743.746094 336.582031 737.984375 336.015625 C 732.222656 335.449219 726.960938 340.984375 726.234375 348.382812 Z M 726.234375 348.382812 " fill-opacity="1" fill-rule="nonzero"/><path fill="#3a312a" d="M 736.183594 365.40625 C 735.824219 365.40625 735.464844 365.386719 735.101562 365.351562 C 731.511719 365 728.347656 362.929688 726.195312 359.523438 C 724.167969 356.320312 723.277344 352.273438 723.683594 348.132812 C 724.09375 343.988281 725.753906 340.191406 728.363281 337.449219 C 731.136719 334.527344 734.648438 333.109375 738.234375 333.464844 C 741.824219 333.816406 744.988281 335.886719 747.140625 339.292969 C 749.167969 342.496094 750.058594 346.542969 749.652344 350.683594 C 749.246094 354.828125 747.582031 358.621094 744.972656 361.371094 C 742.476562 363.996094 739.390625 365.40625 736.183594 365.40625 Z M 737.179688 338.539062 C 735.378906 338.539062 733.585938 339.390625 732.078125 340.976562 C 730.25 342.902344 729.082031 345.621094 728.785156 348.632812 C 728.492188 351.644531 729.105469 354.539062 730.527344 356.78125 C 731.816406 358.824219 733.621094 360.054688 735.605469 360.25 C 737.585938 360.449219 739.59375 359.589844 741.261719 357.835938 C 743.085938 355.910156 744.257812 353.195312 744.554688 350.183594 C 744.847656 347.167969 744.230469 344.273438 742.8125 342.03125 C 741.519531 339.988281 739.71875 338.757812 737.734375 338.566406 C 737.550781 338.546875 737.363281 338.539062 737.179688 338.539062 Z M 726.234375 348.382812 L 726.253906 348.382812 Z M 726.234375 348.382812 " fill-opacity="1" fill-rule="nonzero"/><path fill="#87796f" d="M 750.132812 367.761719 C 747.894531 374.847656 750.554688 382.007812 756.078125 383.75 C 761.597656 385.496094 767.890625 381.167969 770.128906 374.078125 C 772.367188 366.992188 769.707031 359.832031 764.1875 358.085938 C 758.664062 356.339844 752.375 360.671875 750.132812 367.761719 Z M 750.132812 367.761719 " fill-opacity="1" fill-rule="nonzero"/><path fill="#3a312a" d="M 758.613281 386.707031 C 757.496094 386.707031 756.386719 386.535156 755.304688 386.195312 C 751.863281 385.109375 749.195312 382.429688 747.792969 378.652344 C 746.472656 375.097656 746.4375 370.957031 747.691406 366.988281 C 750.351562 358.566406 758.09375 353.472656 764.957031 355.644531 C 771.816406 357.8125 775.230469 366.429688 772.570312 374.851562 C 771.316406 378.820312 768.90625 382.191406 765.785156 384.335938 C 763.511719 385.90625 761.046875 386.707031 758.613281 386.707031 Z M 761.636719 360.257812 C 757.949219 360.257812 754.136719 363.605469 752.578125 368.53125 C 751.664062 371.417969 751.671875 374.378906 752.597656 376.867188 C 753.4375 379.128906 754.949219 380.707031 756.847656 381.308594 C 758.753906 381.910156 760.894531 381.484375 762.882812 380.117188 C 765.066406 378.613281 766.773438 376.195312 767.683594 373.308594 C 769.496094 367.582031 767.578125 361.851562 763.414062 360.53125 C 762.832031 360.347656 762.234375 360.257812 761.636719 360.257812 Z M 761.636719 360.257812 " fill-opacity="1" fill-rule="nonzero"/><path fill="#87796f" d="M 741.722656 383.246094 C 739.007812 381.691406 736.648438 379.558594 735.160156 376.808594 C 732.367188 371.648438 726.910156 368.148438 720.632812 368.148438 C 714.359375 368.148438 708.902344 371.648438 706.109375 376.800781 C 704.617188 379.554688 702.257812 381.691406 699.535156 383.242188 C 694.121094 386.328125 690.621094 392.382812 691.261719 399.191406 C 691.996094 407.054688 698.449219 413.417969 706.316406 414.0625 C 709.054688 414.285156 711.664062 413.835938 714.003906 412.867188 C 718.269531 411.097656 722.984375 411.097656 727.25 412.867188 C 729.589844 413.839844 732.199219 414.285156 734.9375 414.0625 C 742.804688 413.417969 749.257812 407.054688 749.996094 399.195312 C 750.632812 392.386719 747.136719 386.332031 741.722656 383.246094 Z M 741.722656 383.246094 " fill-opacity="1" fill-rule="nonzero"/><path fill="#3a312a" d="M 707.71875 416.683594 C 707.183594 416.683594 706.648438 416.660156 706.105469 416.617188 C 697.035156 415.875 689.558594 408.484375 688.707031 399.433594 C 688.007812 391.953125 691.757812 384.722656 698.265625 381.011719 C 700.804688 379.566406 702.683594 377.738281 703.855469 375.578125 C 707.195312 369.414062 713.625 365.582031 720.632812 365.582031 C 727.640625 365.582031 734.070312 369.414062 737.414062 375.585938 C 738.582031 377.742188 740.457031 379.570312 742.996094 381.015625 C 749.5 384.726562 753.246094 391.957031 752.546875 399.433594 C 751.695312 408.484375 744.21875 415.871094 735.148438 416.613281 C 732.070312 416.867188 729.085938 416.402344 726.269531 415.234375 C 722.632812 413.726562 718.625 413.726562 714.984375 415.234375 C 712.664062 416.199219 710.226562 416.683594 707.71875 416.683594 Z M 720.632812 370.710938 C 715.507812 370.710938 710.808594 373.511719 708.359375 378.023438 C 706.726562 381.035156 704.183594 383.539062 700.804688 385.46875 C 696.042969 388.179688 693.296875 393.476562 693.8125 398.953125 C 694.429688 405.570312 699.894531 410.964844 706.523438 411.507812 C 708.777344 411.691406 710.964844 411.351562 713.019531 410.5 C 717.925781 408.46875 723.328125 408.46875 728.230469 410.5 C 730.289062 411.351562 732.472656 411.691406 734.730469 411.507812 C 741.355469 410.964844 746.820312 405.570312 747.441406 398.957031 C 747.957031 393.480469 745.214844 388.183594 740.457031 385.46875 C 737.078125 383.542969 734.535156 381.039062 732.90625 378.027344 C 730.460938 373.511719 725.757812 370.710938 720.632812 370.710938 Z M 720.632812 370.710938 " fill-opacity="1" fill-rule="nonzero"/><path fill="#f16c7a" d="M 630.316406 456.046875 L 579.066406 456.046875 L 579.066406 430.417969 C 579.066406 416.265625 590.539062 404.789062 604.691406 404.789062 C 618.84375 404.789062 630.316406 416.265625 630.316406 430.417969 Z M 630.316406 456.046875 " fill-opacity="1" fill-rule="nonzero"/><path fill="#3a312a" d="M 630.316406 458.613281 L 579.066406 458.613281 C 577.652344 458.613281 576.503906 457.464844 576.503906 456.046875 L 576.503906 430.417969 C 576.503906 414.875 589.148438 402.226562 604.691406 402.226562 C 620.234375 402.226562 632.878906 414.875 632.878906 430.417969 L 632.878906 456.046875 C 632.878906 457.464844 631.730469 458.613281 630.316406 458.613281 Z M 581.628906 453.484375 L 627.753906 453.484375 L 627.753906 430.417969 C 627.753906 417.699219 617.40625 407.351562 604.691406 407.351562 C 591.976562 407.351562 581.628906 417.699219 581.628906 430.417969 Z M 581.628906 453.484375 " fill-opacity="1" fill-rule="nonzero"/><path fill="#f16c7a" d="M 630.316406 560.277344 L 579.066406 560.277344 L 579.066406 534.644531 C 579.066406 520.492188 590.539062 509.015625 604.691406 509.015625 C 618.84375 509.015625 630.316406 520.492188 630.316406 534.644531 Z M 630.316406 560.277344 " fill-opacity="1" fill-rule="nonzero"/><path fill="#3a312a" d="M 630.316406 562.839844 L 579.066406 562.839844 C 577.652344 562.839844 576.503906 561.691406 576.503906 560.277344 L 576.503906 534.644531 C 576.503906 519.101562 589.148438 506.453125 604.691406 506.453125 C 620.234375 506.453125 632.878906 519.101562 632.878906 534.644531 L 632.878906 560.277344 C 632.878906 561.691406 631.730469 562.839844 630.316406 562.839844 Z M 581.628906 557.714844 L 627.753906 557.714844 L 627.753906 534.644531 C 627.753906 521.925781 617.40625 511.578125 604.691406 511.578125 C 591.976562 511.578125 581.628906 521.925781 581.628906 534.644531 Z M 581.628906 557.714844 " fill-opacity="1" fill-rule="nonzero"/><path fill="#f16c7a" d="M 860.929688 456.046875 L 809.683594 456.046875 L 809.683594 430.417969 C 809.683594 416.265625 821.15625 404.789062 835.304688 404.789062 C 849.457031 404.789062 860.929688 416.265625 860.929688 430.417969 Z M 860.929688 456.046875 " fill-opacity="1" fill-rule="nonzero"/><path fill="#3a312a" d="M 860.929688 458.613281 L 809.683594 458.613281 C 808.265625 458.613281 807.121094 457.464844 807.121094 456.046875 L 807.121094 430.417969 C 807.121094 414.875 819.765625 402.226562 835.304688 402.226562 C 850.847656 402.226562 863.492188 414.875 863.492188 430.417969 L 863.492188 456.046875 C 863.492188 457.464844 862.34375 458.613281 860.929688 458.613281 Z M 812.246094 453.484375 L 858.367188 453.484375 L 858.367188 430.417969 C 858.367188 417.699219 848.023438 407.351562 835.304688 407.351562 C 822.589844 407.351562 812.246094 417.699219 812.246094 430.417969 Z M 812.246094 453.484375 " fill-opacity="1" fill-rule="nonzero"/><path fill="#f16c7a" d="M 860.929688 560.277344 L 809.683594 560.277344 L 809.683594 534.644531 C 809.683594 520.492188 821.15625 509.015625 835.304688 509.015625 C 849.457031 509.015625 860.929688 520.492188 860.929688 534.644531 Z M 860.929688 560.277344 " fill-opacity="1" fill-rule="nonzero"/><path fill="#3a312a" d="M 860.929688 562.839844 L 809.683594 562.839844 C 808.265625 562.839844 807.121094 561.691406 807.121094 560.277344 L 807.121094 534.644531 C 807.121094 519.101562 819.765625 506.453125 835.304688 506.453125 C 850.847656 506.453125 863.492188 519.101562 863.492188 534.644531 L 863.492188 560.277344 C 863.492188 561.691406 862.34375 562.839844 860.929688 562.839844 Z M 812.246094 557.714844 L 858.367188 557.714844 L 858.367188 534.644531 C 858.367188 521.925781 848.023438 511.578125 835.304688 511.578125 C 822.589844 511.578125 812.246094 521.925781 812.246094 534.644531 Z M 812.246094 557.714844 " fill-opacity="1" fill-rule="nonzero"/><path fill="#6ca8bf" d="M 719.8125 244.757812 L 707 255.625 L 863.492188 388.402344 L 863.492188 593.578125 L 889.117188 593.578125 L 889.117188 388.402344 Z M 719.8125 244.757812 " fill-opacity="1" fill-rule="nonzero"/></svg>