<svg xmlns="http://www.w3.org/2000/svg" xmlns:xlink="http://www.w3.org/1999/xlink" width="1920" zoomAndPan="magnify" viewBox="0 0 1440 809.999993" height="1080" preserveAspectRatio="xMidYMid meet" version="1.0"><defs><clipPath id="7755b8b659"><path d="M 400.242188 85.242188 L 1039.757812 85.242188 L 1039.757812 724.757812 L 400.242188 724.757812 Z M 400.242188 85.242188 " clip-rule="nonzero"/></clipPath><clipPath id="69a3b2bc0c"><path d="M 720 85.242188 C 543.402344 85.242188 400.242188 228.402344 400.242188 405 C 400.242188 581.597656 543.402344 724.757812 720 724.757812 C 896.597656 724.757812 1039.757812 581.597656 1039.757812 405 C 1039.757812 228.402344 896.597656 85.242188 720 85.242188 Z M 720 85.242188 " clip-rule="nonzero"/></clipPath></defs><g clip-path="url(#7755b8b659)"><g clip-path="url(#69a3b2bc0c)"><path fill="#eb8128" d="M 400.242188 85.242188 L 1039.757812 85.242188 L 1039.757812 724.757812 L 400.242188 724.757812 Z M 400.242188 85.242188 " fill-opacity="1" fill-rule="nonzero"/></g></g><path fill="#ffffff" d="M 856.832031 301.820312 C 856.832031 303.15625 856.742188 304.496094 856.476562 305.835938 C 856.386719 306.910156 856.117188 308.070312 855.851562 309.140625 C 855.582031 310.300781 855.136719 311.375 854.691406 312.535156 C 854.242188 313.605469 853.707031 314.679688 853.171875 315.660156 L 853.082031 315.75 C 852.546875 316.820312 851.832031 317.804688 851.117188 318.695312 C 850.40625 319.679688 849.691406 320.570312 848.796875 321.464844 L 848.53125 321.734375 C 847.726562 322.535156 846.921875 323.25 846.03125 323.964844 C 845.046875 324.769531 844.066406 325.394531 842.996094 326.019531 C 841.925781 326.734375 840.851562 327.269531 839.691406 327.714844 L 839.601562 327.804688 C 838.53125 328.253906 837.371094 328.699219 836.210938 328.964844 C 835.140625 329.324219 833.980469 329.503906 832.820312 329.679688 C 831.480469 329.949219 830.050781 330.039062 828.621094 330.039062 C 827.460938 330.039062 826.300781 329.949219 825.140625 329.769531 L 823.714844 329.589844 C 822.820312 329.414062 821.839844 329.234375 820.945312 328.964844 C 819.785156 328.699219 818.625 328.253906 817.464844 327.714844 C 815.144531 326.734375 813.089844 325.484375 811.125 323.964844 L 811.035156 323.964844 C 808.359375 321.734375 806.039062 319.054688 804.164062 316.019531 L 803.984375 315.660156 C 803.359375 314.5 802.734375 313.160156 802.199219 311.820312 C 801.84375 310.75 801.484375 309.675781 801.21875 308.605469 L 645.441406 308.605469 C 645.175781 309.675781 644.816406 310.75 644.460938 311.820312 L 643.925781 313.070312 C 643.480469 313.964844 643.03125 314.855469 642.585938 315.660156 C 642.050781 316.644531 641.425781 317.625 640.710938 318.519531 L 640.355469 319.054688 C 639.640625 319.945312 638.925781 320.75 638.210938 321.554688 C 637.410156 322.359375 636.515625 323.160156 635.535156 323.964844 L 635.445312 323.964844 C 634.550781 324.769531 633.480469 325.394531 632.5 326.019531 C 631.515625 326.644531 630.625 327.089844 629.640625 327.539062 L 629.195312 327.714844 C 628.035156 328.253906 626.875 328.699219 625.714844 328.964844 C 624.820312 329.234375 623.839844 329.414062 622.945312 329.589844 L 621.519531 329.769531 C 620.445312 329.949219 619.285156 330.039062 618.125 330.039062 C 616.609375 330.039062 615.179688 329.949219 613.753906 329.679688 C 612.679688 329.503906 611.519531 329.324219 610.449219 328.964844 C 609.289062 328.699219 608.128906 328.253906 607.058594 327.804688 L 606.96875 327.714844 C 605.808594 327.269531 604.648438 326.734375 603.574219 326.019531 C 602.683594 325.484375 601.699219 324.859375 600.808594 324.144531 C 599.738281 323.339844 598.753906 322.449219 597.773438 321.464844 C 596.96875 320.570312 596.167969 319.679688 595.453125 318.695312 C 594.738281 317.804688 594.023438 316.820312 593.488281 315.75 L 593.398438 315.660156 C 592.863281 314.679688 592.328125 313.605469 591.882812 312.535156 C 591.433594 311.375 590.988281 310.300781 590.71875 309.140625 C 590.453125 308.070312 590.183594 306.910156 590.097656 305.835938 C 589.828125 304.496094 589.738281 303.15625 589.738281 301.820312 C 589.738281 288.871094 598.398438 278.152344 610.179688 274.761719 L 610.179688 272.347656 C 602.949219 270.296875 596.878906 265.382812 593.308594 258.953125 C 590.988281 254.933594 589.738281 250.203125 589.738281 245.289062 C 589.738281 229.664062 602.414062 216.980469 618.125 216.980469 C 631.25 216.980469 642.316406 226.089844 645.441406 238.503906 L 801.21875 238.503906 C 804.253906 226.089844 815.320312 216.980469 828.621094 216.980469 C 844.15625 216.980469 856.832031 229.664062 856.832031 245.289062 C 856.832031 250.203125 855.492188 254.84375 853.351562 258.953125 C 848.621094 267.527344 839.601562 273.332031 829.246094 273.511719 C 844.511719 273.867188 856.832031 286.371094 856.832031 301.820312 Z M 856.832031 301.820312 " fill-opacity="1" fill-rule="nonzero"/><path fill="#000000" d="M 828.621094 336.734375 C 827.285156 336.734375 825.855469 336.644531 824.515625 336.46875 L 822.910156 336.289062 C 821.035156 335.933594 819.964844 335.753906 818.980469 335.394531 C 817.910156 335.21875 816.394531 334.683594 814.695312 333.789062 C 812.375 332.804688 809.964844 331.46875 807.644531 329.679688 L 806.753906 329.054688 C 803.539062 326.375 800.769531 323.160156 798.449219 319.5 L 798.003906 318.519531 C 797.378906 317.355469 796.84375 316.285156 796.398438 315.214844 L 650.261719 315.214844 L 649.90625 315.929688 C 649.460938 316.910156 648.925781 317.894531 648.476562 318.785156 C 647.851562 319.945312 647.050781 321.195312 646.15625 322.359375 L 645.085938 323.699219 C 644.816406 324.144531 644.015625 325.039062 643.210938 325.929688 C 641.960938 327.179688 640.980469 328.074219 639.730469 329.054688 L 639.105469 329.679688 C 638.300781 330.304688 637.410156 330.929688 636.515625 331.46875 C 634.820312 332.539062 633.75 333.074219 632.410156 333.699219 L 631.875 333.878906 C 630.175781 334.683594 628.660156 335.21875 627.140625 335.484375 C 626.605469 335.664062 625.535156 335.84375 624.554688 336.109375 C 623.660156 336.289062 622.859375 336.378906 622.144531 336.46875 C 619.019531 336.914062 615.539062 336.914062 612.414062 336.289062 C 610.984375 336.019531 609.554688 335.753906 608.21875 335.308594 C 607.324219 335.128906 605.808594 334.59375 604.378906 333.96875 L 603.753906 333.699219 C 602.238281 333.074219 600.988281 332.359375 599.738281 331.644531 C 598.84375 331.109375 597.683594 330.304688 596.523438 329.414062 C 595.363281 328.519531 594.113281 327.449219 592.953125 326.289062 C 591.703125 324.949219 590.808594 323.875 589.917969 322.714844 C 589.382812 322 588.488281 320.839844 587.683594 319.410156 L 587.417969 318.964844 C 586.792969 317.804688 586.167969 316.464844 585.632812 315.214844 C 584.917969 313.25 584.472656 312.089844 584.113281 310.75 C 583.757812 309.5 583.488281 307.980469 583.3125 306.550781 C 583.042969 305.480469 582.953125 303.785156 582.953125 301.996094 C 582.953125 290.476562 588.488281 280.117188 597.414062 273.6875 C 593.398438 270.5625 589.917969 266.722656 587.417969 262.167969 C 584.5625 257.257812 583.042969 251.363281 583.042969 245.289062 C 583.042969 226 598.753906 210.285156 618.125 210.285156 C 632.320312 210.285156 644.90625 218.945312 650.261719 231.804688 L 796.398438 231.804688 C 801.753906 218.945312 814.339844 210.285156 828.621094 210.285156 C 847.90625 210.285156 863.527344 226 863.527344 245.289062 C 863.527344 251.003906 862.097656 256.632812 859.332031 262.078125 C 856.742188 266.722656 853.261719 270.652344 849.15625 273.597656 C 857.902344 280.027344 863.527344 290.296875 863.527344 301.820312 C 863.527344 303.605469 863.4375 305.390625 863.082031 307.175781 C 863.082031 307.800781 862.722656 309.320312 862.367188 310.75 C 862.097656 312 861.652344 313.25 861.117188 314.5 C 860.3125 316.464844 859.6875 317.714844 859.0625 318.875 L 858.796875 319.410156 C 857.992188 320.839844 857.101562 322 856.386719 322.894531 C 855.671875 323.875 854.691406 325.039062 853.617188 326.199219 C 852.367188 327.449219 851.386719 328.339844 850.226562 329.234375 C 849.066406 330.214844 847.816406 331.019531 846.386719 331.824219 C 845.496094 332.449219 844.246094 333.164062 842.816406 333.699219 L 842.191406 333.96875 C 840.761719 334.59375 839.246094 335.128906 837.726562 335.484375 C 836.925781 335.753906 835.40625 336.019531 833.890625 336.289062 C 832.371094 336.558594 830.496094 336.734375 828.621094 336.734375 Z M 814.785156 318.339844 L 815.234375 318.605469 C 816.839844 319.859375 818.355469 320.75 820.054688 321.464844 C 821.125 322 821.839844 322.179688 822.464844 322.359375 C 823.445312 322.625 824.070312 322.714844 824.605469 322.894531 L 826.125 323.074219 C 827.910156 323.339844 829.785156 323.339844 831.480469 323.074219 C 832.550781 322.894531 833.355469 322.804688 834.066406 322.535156 C 835.140625 322.269531 835.855469 322 836.480469 321.734375 L 837.28125 321.375 L 839.246094 320.304688 C 840.316406 319.679688 841.03125 319.234375 841.746094 318.695312 L 843.796875 316.910156 C 844.691406 316.019531 845.226562 315.390625 845.761719 314.679688 L 847.101562 312.714844 L 847.546875 311.910156 L 848.53125 309.855469 C 848.886719 308.875 849.15625 308.25 849.332031 307.535156 L 849.78125 305.210938 C 850.046875 303.515625 850.136719 302.621094 850.136719 301.730469 C 850.136719 290.121094 840.675781 280.386719 829.070312 280.117188 C 825.410156 280.027344 822.550781 277.082031 822.550781 273.421875 C 822.550781 269.757812 825.5 266.8125 829.160156 266.722656 C 836.746094 266.632812 843.796875 262.347656 847.546875 255.648438 C 849.242188 252.34375 850.226562 248.773438 850.226562 245.199219 C 850.226562 233.324219 840.585938 223.589844 828.710938 223.589844 C 818.804688 223.589844 810.144531 230.375 807.824219 240.023438 C 807.109375 243.058594 804.429688 245.113281 801.304688 245.113281 L 645.441406 245.113281 C 642.40625 245.113281 639.730469 243.058594 638.925781 240.023438 C 636.515625 230.289062 627.945312 223.589844 618.125 223.589844 C 606.164062 223.589844 596.433594 233.324219 596.433594 245.199219 C 596.433594 248.953125 597.328125 252.523438 599.113281 255.472656 C 601.878906 260.472656 606.609375 264.222656 612.054688 265.742188 C 614.914062 266.542969 616.875 269.222656 616.875 272.171875 L 616.875 274.582031 C 616.875 277.527344 614.914062 280.207031 612.054688 281.011719 C 602.683594 283.691406 596.433594 291.996094 596.433594 301.640625 C 596.433594 302.53125 596.523438 303.425781 596.703125 304.320312 C 596.878906 305.746094 597.058594 306.550781 597.238281 307.265625 C 597.414062 308.070312 597.683594 308.695312 597.953125 309.320312 C 598.308594 310.300781 598.664062 311.015625 599.023438 311.730469 L 599.46875 312.535156 L 600.71875 314.320312 C 601.433594 315.304688 602.058594 316.019531 602.683594 316.730469 C 603.21875 317.269531 604.023438 317.980469 604.824219 318.605469 C 605.628906 319.234375 606.34375 319.679688 606.96875 320.125 C 607.769531 320.660156 608.484375 321.019531 609.378906 321.375 L 610.179688 321.734375 L 611.878906 322.269531 C 613.128906 322.625 613.839844 322.714844 614.554688 322.894531 C 616.964844 323.339844 618.660156 323.339844 620.359375 322.984375 L 621.429688 322.894531 C 622.5 322.625 623.125 322.535156 623.660156 322.359375 C 624.644531 322.089844 625.355469 321.824219 626.339844 321.464844 L 626.964844 321.195312 C 627.765625 320.839844 628.304688 320.570312 628.75 320.214844 C 629.820312 319.589844 630.355469 319.234375 630.800781 318.875 L 631.695312 318.160156 L 633.300781 316.730469 L 635 314.765625 C 635.800781 313.695312 636.246094 312.980469 636.605469 312.355469 C 637.050781 311.640625 637.410156 310.839844 637.855469 310.035156 C 638.300781 308.695312 638.65625 307.800781 638.835938 306.910156 C 639.550781 303.960938 642.230469 301.820312 645.351562 301.820312 L 801.128906 301.820312 C 804.164062 301.820312 806.839844 303.871094 807.644531 306.910156 C 807.824219 307.710938 808.089844 308.515625 808.359375 309.320312 C 808.714844 310.300781 809.25 311.464844 809.789062 312.445312 L 809.875 312.625 C 811.304688 314.855469 812.910156 316.730469 814.785156 318.339844 Z M 853.082031 315.75 Z M 853.082031 315.75 " fill-opacity="1" fill-rule="nonzero"/><path fill="#8dc8e0" d="M 568.136719 353.347656 L 870.757812 353.347656 L 870.757812 565.082031 L 568.136719 565.082031 Z M 568.136719 353.347656 " fill-opacity="1" fill-rule="nonzero"/><path fill="#000000" d="M 870.757812 571.777344 L 568.136719 571.777344 C 564.476562 571.777344 561.441406 568.742188 561.441406 565.082031 L 561.441406 353.347656 C 561.441406 349.683594 564.476562 346.648438 568.136719 346.648438 L 870.757812 346.648438 C 874.417969 346.648438 877.453125 349.683594 877.453125 353.347656 L 877.453125 565.082031 C 877.453125 568.742188 874.417969 571.777344 870.757812 571.777344 Z M 574.832031 558.382812 L 864.0625 558.382812 L 864.0625 360.042969 L 574.832031 360.042969 Z M 574.832031 558.382812 " fill-opacity="1" fill-rule="nonzero"/><path fill="#d6aa96" d="M 877.453125 593.210938 L 561.441406 593.210938 C 555.371094 593.210938 551.085938 587.316406 552.960938 581.601562 L 555.011719 575.261719 C 556.886719 569.277344 562.511719 565.171875 568.761719 565.171875 L 870.3125 565.171875 C 876.648438 565.171875 882.183594 569.277344 884.058594 575.261719 L 886.113281 581.601562 C 887.808594 587.316406 883.523438 593.210938 877.453125 593.210938 Z M 877.453125 593.210938 " fill-opacity="1" fill-rule="nonzero"/><path fill="#000000" d="M 877.453125 599.910156 L 561.441406 599.910156 C 556.441406 599.910156 551.800781 597.585938 548.851562 593.480469 C 545.90625 589.371094 545.015625 584.28125 546.53125 579.546875 L 548.585938 573.207031 C 551.351562 564.367188 559.476562 558.472656 568.761719 558.472656 L 870.3125 558.472656 C 879.59375 558.472656 887.628906 564.367188 890.488281 573.207031 L 892.539062 579.546875 C 894.058594 584.371094 893.253906 589.460938 890.308594 593.480469 C 887.09375 597.585938 882.542969 599.910156 877.453125 599.910156 Z M 568.671875 571.777344 C 565.277344 571.777344 562.332031 573.921875 561.261719 577.226562 L 559.296875 583.566406 C 559.03125 584.550781 559.386719 585.261719 559.65625 585.53125 C 559.921875 585.890625 560.457031 586.425781 561.441406 586.425781 L 877.453125 586.425781 C 878.433594 586.425781 878.96875 585.886719 879.238281 585.53125 C 879.507812 585.175781 879.863281 584.460938 879.59375 583.566406 L 877.542969 577.226562 C 876.558594 574.011719 873.523438 571.777344 870.132812 571.777344 Z M 568.671875 571.777344 " fill-opacity="1" fill-rule="nonzero"/><path fill="#ffd3a4" d="M 607.144531 396.121094 L 723.285156 396.121094 L 723.285156 512.304688 L 607.144531 512.304688 Z M 607.144531 396.121094 " fill-opacity="1" fill-rule="nonzero"/><path fill="#000000" d="M 723.285156 519.089844 L 607.144531 519.089844 C 603.484375 519.089844 600.449219 516.054688 600.449219 512.394531 L 600.449219 396.121094 C 600.449219 392.460938 603.484375 389.425781 607.144531 389.425781 L 723.285156 389.425781 C 726.945312 389.425781 729.980469 392.460938 729.980469 396.121094 L 729.980469 512.304688 C 729.980469 516.054688 727.035156 519.089844 723.285156 519.089844 Z M 613.839844 505.695312 L 716.589844 505.695312 L 716.589844 402.820312 L 613.839844 402.820312 Z M 613.839844 505.695312 " fill-opacity="1" fill-rule="nonzero"/><path fill="#d6aa96" d="M 756.582031 457.113281 L 833.890625 457.113281 L 833.890625 565.171875 L 756.582031 565.171875 Z M 756.582031 457.113281 " fill-opacity="1" fill-rule="nonzero"/><path fill="#000000" d="M 833.890625 571.777344 L 756.582031 571.777344 C 752.921875 571.777344 749.886719 568.742188 749.886719 565.082031 L 749.886719 457.027344 C 749.886719 453.363281 752.921875 450.328125 756.582031 450.328125 L 833.890625 450.328125 C 837.550781 450.328125 840.585938 453.363281 840.585938 457.027344 L 840.585938 565.082031 C 840.585938 568.832031 837.550781 571.777344 833.890625 571.777344 Z M 763.277344 558.382812 L 827.195312 558.382812 L 827.195312 463.722656 L 763.277344 463.722656 Z M 763.277344 558.382812 " fill-opacity="1" fill-rule="nonzero"/><path fill="#ff9494" d="M 890.21875 353.347656 L 549.03125 353.347656 C 539.660156 353.347656 532.964844 344.503906 535.464844 335.484375 L 554.296875 269.132812 C 555.996094 263.152344 561.53125 258.953125 567.777344 258.953125 L 593.308594 258.953125 C 596.878906 265.382812 602.949219 270.296875 610.179688 272.347656 L 610.179688 274.761719 C 598.398438 278.152344 589.738281 288.871094 589.738281 301.820312 C 589.738281 303.15625 589.828125 304.496094 590.097656 305.835938 C 590.183594 306.910156 590.453125 308.070312 590.71875 309.140625 C 590.988281 310.300781 591.433594 311.375 591.882812 312.535156 C 592.328125 313.605469 592.863281 314.679688 593.398438 315.660156 L 593.488281 315.75 C 594.023438 316.820312 594.738281 317.804688 595.453125 318.695312 C 596.167969 319.679688 596.96875 320.570312 597.773438 321.464844 C 598.753906 322.449219 599.738281 323.339844 600.808594 324.144531 C 601.699219 324.859375 602.683594 325.484375 603.574219 326.019531 C 604.648438 326.734375 605.808594 327.269531 606.96875 327.714844 L 607.058594 327.804688 C 608.128906 328.253906 609.289062 328.699219 610.449219 328.964844 C 611.519531 329.324219 612.679688 329.503906 613.753906 329.679688 C 615.179688 329.949219 616.609375 330.039062 618.125 330.039062 C 619.285156 330.039062 620.449219 329.949219 621.519531 329.769531 L 622.945312 329.589844 C 623.839844 329.414062 624.820312 329.234375 625.714844 328.964844 C 626.875 328.699219 628.035156 328.253906 629.195312 327.714844 L 629.640625 327.539062 C 630.625 327.089844 631.515625 326.644531 632.5 326.019531 C 633.480469 325.394531 634.550781 324.769531 635.445312 323.964844 L 635.535156 323.964844 C 636.515625 323.160156 637.410156 322.359375 638.210938 321.554688 C 638.925781 320.75 639.640625 319.945312 640.355469 319.054688 L 640.710938 318.519531 C 641.425781 317.625 642.050781 316.644531 642.585938 315.660156 C 643.03125 314.855469 643.480469 313.964844 643.925781 313.070312 L 644.460938 311.820312 C 644.816406 310.75 645.175781 309.675781 645.441406 308.605469 L 801.21875 308.605469 C 801.484375 309.675781 801.84375 310.75 802.199219 311.820312 C 802.734375 313.160156 803.359375 314.5 803.984375 315.660156 L 804.164062 316.019531 C 805.949219 319.054688 808.269531 321.734375 811.035156 323.964844 L 811.125 323.964844 C 813.089844 325.574219 815.144531 326.824219 817.464844 327.714844 C 818.625 328.253906 819.785156 328.699219 820.945312 328.964844 C 821.839844 329.234375 822.820312 329.414062 823.714844 329.589844 L 825.140625 329.769531 C 826.300781 329.949219 827.460938 330.039062 828.621094 330.039062 C 830.050781 330.039062 831.480469 329.949219 832.820312 329.679688 C 833.980469 329.503906 835.140625 329.324219 836.210938 328.964844 C 837.371094 328.699219 838.53125 328.253906 839.601562 327.804688 L 839.691406 327.714844 C 840.851562 327.269531 841.925781 326.734375 842.996094 326.019531 C 844.066406 325.394531 845.046875 324.769531 846.03125 323.964844 C 846.921875 323.25 847.726562 322.535156 848.53125 321.734375 L 848.796875 321.464844 C 849.691406 320.570312 850.40625 319.679688 851.117188 318.695312 C 851.832031 317.804688 852.546875 316.820312 853.082031 315.75 L 853.171875 315.660156 C 853.707031 314.679688 854.242188 313.605469 854.691406 312.535156 C 855.136719 311.375 855.582031 310.300781 855.851562 309.140625 C 856.117188 308.070312 856.386719 306.910156 856.476562 305.835938 C 856.742188 304.496094 856.832031 303.15625 856.832031 301.820312 C 856.832031 286.371094 844.511719 273.867188 829.246094 273.511719 C 839.601562 273.332031 848.621094 267.527344 853.351562 258.953125 L 871.382812 258.953125 C 877.632812 258.953125 883.167969 263.152344 884.863281 269.132812 L 903.699219 335.484375 C 906.199219 344.503906 899.503906 353.347656 890.21875 353.347656 Z M 890.21875 353.347656 " fill-opacity="1" fill-rule="nonzero"/><path fill="#000000" d="M 890.21875 360.042969 L 549.03125 360.042969 C 542.425781 360.042969 536.445312 357.097656 532.429688 351.828125 C 528.410156 346.558594 527.25 340.039062 528.945312 333.699219 L 547.78125 267.347656 C 550.371094 258.417969 558.582031 252.257812 567.777344 252.257812 L 593.308594 252.257812 C 595.71875 252.257812 597.953125 253.59375 599.203125 255.738281 C 601.96875 260.648438 606.609375 264.402344 612.054688 265.917969 C 614.914062 266.722656 616.875 269.402344 616.875 272.347656 L 616.875 274.761719 C 616.875 277.707031 614.914062 280.386719 612.054688 281.191406 C 602.683594 283.867188 596.433594 292.175781 596.433594 301.820312 C 596.433594 302.710938 596.523438 303.605469 596.703125 304.496094 C 596.878906 305.925781 597.058594 306.730469 597.238281 307.445312 C 597.414062 308.25 597.683594 308.875 597.953125 309.5 C 598.308594 310.480469 598.664062 311.195312 599.023438 311.910156 L 599.46875 312.714844 L 600.71875 314.5 C 601.433594 315.480469 602.058594 316.195312 602.683594 316.910156 C 603.21875 317.445312 604.023438 318.160156 604.824219 318.785156 C 605.628906 319.410156 606.34375 319.859375 606.96875 320.304688 C 607.769531 320.839844 608.484375 321.195312 609.378906 321.554688 L 610.179688 321.910156 L 611.878906 322.449219 C 613.128906 322.804688 613.839844 322.894531 614.554688 323.074219 C 616.964844 323.519531 618.660156 323.519531 620.359375 323.160156 L 621.429688 323.074219 C 622.5 322.804688 623.125 322.714844 623.660156 322.535156 C 624.644531 322.269531 625.355469 322 626.339844 321.644531 L 626.964844 321.375 C 627.765625 321.019531 628.304688 320.75 628.75 320.394531 C 629.820312 319.769531 630.355469 319.410156 630.800781 319.054688 L 631.695312 318.339844 L 633.300781 316.910156 L 635 314.945312 C 635.800781 313.875 636.246094 313.160156 636.605469 312.535156 C 637.050781 311.820312 637.410156 311.015625 637.855469 310.214844 C 638.300781 308.875 638.65625 307.980469 638.835938 307.085938 C 639.550781 304.140625 642.230469 301.996094 645.351562 301.996094 L 801.128906 301.996094 C 804.164062 301.996094 806.839844 304.050781 807.644531 307.085938 C 807.824219 307.890625 808.089844 308.695312 808.359375 309.5 C 808.714844 310.480469 809.25 311.640625 809.789062 312.625 L 809.875 312.890625 C 811.125 314.945312 812.734375 316.820312 814.609375 318.429688 L 815.234375 318.875 C 816.75 320.125 818.179688 320.929688 819.695312 321.554688 C 820.945312 322.089844 821.660156 322.359375 822.285156 322.535156 C 823.265625 322.804688 823.890625 322.894531 824.425781 323.074219 L 825.945312 323.25 C 827.730469 323.519531 829.605469 323.519531 831.300781 323.25 C 832.371094 323.074219 833.175781 322.984375 833.890625 322.714844 C 834.960938 322.449219 835.675781 322.179688 836.300781 321.910156 L 837.101562 321.554688 L 839.066406 320.484375 C 840.136719 319.859375 840.851562 319.410156 841.566406 318.875 L 843.621094 317.089844 C 844.511719 316.195312 845.046875 315.570312 845.585938 314.855469 L 846.921875 312.890625 L 847.371094 312.089844 L 848.351562 310.035156 C 848.707031 309.050781 848.976562 308.425781 849.15625 307.710938 L 849.601562 305.390625 C 849.867188 303.695312 849.957031 302.800781 849.957031 301.90625 C 849.957031 290.296875 840.496094 280.566406 828.890625 280.296875 C 825.230469 280.207031 822.375 277.261719 822.375 273.597656 C 822.375 269.9375 825.320312 266.992188 828.980469 266.902344 C 836.566406 266.8125 843.621094 262.527344 847.371094 255.828125 C 848.707031 253.59375 850.941406 252.257812 853.351562 252.257812 L 871.382812 252.257812 C 880.578125 252.257812 888.789062 258.417969 891.289062 267.347656 L 910.125 333.699219 C 911.910156 340.128906 910.660156 346.738281 906.644531 351.917969 C 902.714844 357.097656 896.734375 360.042969 890.21875 360.042969 Z M 567.777344 265.652344 C 564.566406 265.652344 561.617188 267.792969 560.726562 270.921875 L 541.890625 337.273438 C 541.265625 339.503906 541.710938 341.824219 543.140625 343.703125 C 544.570312 345.578125 546.710938 346.558594 549.03125 346.558594 L 890.21875 346.558594 C 892.539062 346.558594 894.683594 345.488281 896.019531 343.703125 C 897.449219 341.824219 897.894531 339.503906 897.269531 337.183594 L 878.433594 271.007812 C 877.542969 267.882812 874.6875 265.652344 871.382812 265.652344 L 857.011719 265.652344 C 854.777344 268.6875 852.101562 271.367188 849.15625 273.597656 C 857.8125 280.027344 863.527344 290.296875 863.527344 301.820312 C 863.527344 303.605469 863.4375 305.390625 863.082031 307.175781 C 863.082031 307.800781 862.722656 309.320312 862.367188 310.75 C 862.097656 312 861.652344 313.25 861.117188 314.5 C 860.3125 316.464844 859.6875 317.714844 859.0625 318.875 L 858.796875 319.410156 C 857.992188 320.839844 857.101562 322 856.386719 322.894531 C 855.671875 323.875 854.691406 325.039062 853.617188 326.199219 C 852.367188 327.449219 851.386719 328.339844 850.226562 329.234375 C 849.066406 330.214844 847.816406 331.019531 846.386719 331.824219 C 845.496094 332.449219 844.246094 333.164062 842.816406 333.699219 L 842.191406 333.96875 C 840.761719 334.59375 839.246094 335.128906 837.726562 335.484375 C 836.925781 335.753906 835.40625 336.019531 833.890625 336.289062 C 831.300781 336.824219 827.820312 336.914062 824.515625 336.46875 L 822.910156 336.289062 C 821.035156 335.933594 819.964844 335.753906 818.980469 335.394531 C 817.910156 335.21875 816.394531 334.683594 814.695312 333.789062 C 812.375 332.894531 809.964844 331.554688 807.554688 329.679688 L 806.839844 329.144531 C 803.449219 326.375 800.59375 323.074219 798.449219 319.410156 L 798.003906 318.605469 C 797.378906 317.355469 796.84375 316.375 796.398438 315.304688 L 650.261719 315.304688 L 649.90625 316.019531 C 649.460938 317 648.925781 317.980469 648.476562 318.875 C 647.851562 320.035156 647.050781 321.285156 646.15625 322.449219 L 645.085938 323.785156 C 644.816406 324.234375 644.015625 325.125 643.210938 326.019531 C 641.960938 327.269531 640.980469 328.164062 639.730469 329.144531 L 639.105469 329.589844 C 638.300781 330.214844 637.410156 330.839844 636.515625 331.378906 C 634.820312 332.449219 633.75 332.984375 632.410156 333.609375 L 631.875 333.789062 C 630.175781 334.59375 628.660156 335.128906 627.140625 335.394531 C 626.605469 335.574219 625.535156 335.753906 624.554688 336.019531 C 623.660156 336.199219 622.859375 336.289062 622.144531 336.378906 C 619.019531 336.824219 615.539062 336.824219 612.414062 336.199219 C 610.984375 335.933594 609.554688 335.664062 608.21875 335.21875 C 607.324219 335.039062 605.808594 334.503906 604.378906 333.878906 L 603.753906 333.609375 C 602.238281 332.984375 600.988281 332.269531 599.738281 331.554688 C 598.84375 331.019531 597.683594 330.214844 596.523438 329.324219 C 595.363281 328.429688 594.113281 327.359375 592.953125 326.199219 C 591.703125 324.859375 590.808594 323.785156 589.917969 322.625 C 589.382812 321.910156 588.488281 320.75 587.683594 319.320312 L 587.417969 318.875 C 586.792969 317.714844 586.167969 316.375 585.632812 315.125 C 584.917969 313.160156 584.472656 312 584.113281 310.660156 C 583.757812 309.410156 583.488281 307.890625 583.3125 306.460938 C 583.042969 305.390625 582.953125 303.695312 582.953125 301.90625 C 582.953125 290.386719 588.488281 280.027344 597.414062 273.597656 C 594.46875 271.367188 591.882812 268.6875 589.648438 265.652344 Z M 567.777344 265.652344 " fill-opacity="1" fill-rule="nonzero"/><path fill="#ffffff" d="M 811.035156 323.964844 C 808.269531 321.734375 805.949219 319.054688 804.164062 316.019531 C 806.039062 319.054688 808.359375 321.734375 811.035156 323.964844 Z M 811.035156 323.964844 " fill-opacity="1" fill-rule="nonzero"/><path fill="#000000" d="M 811.035156 330.664062 C 809.519531 330.664062 808.089844 330.214844 806.839844 329.144531 C 803.449219 326.375 800.59375 323.074219 798.449219 319.410156 C 796.574219 316.285156 797.644531 312.175781 800.769531 310.300781 C 803.894531 308.425781 808 309.410156 809.964844 312.535156 C 811.484375 314.945312 813.269531 317.089844 815.410156 318.875 C 818.269531 321.195312 818.625 325.394531 816.304688 328.253906 C 814.875 329.859375 813 330.664062 811.035156 330.664062 Z M 811.035156 330.664062 " fill-opacity="1" fill-rule="nonzero"/><path fill="#ffffff" d="M 817.464844 327.714844 C 815.144531 326.824219 813.089844 325.574219 811.125 323.964844 C 813.089844 325.484375 815.144531 326.734375 817.464844 327.714844 Z M 817.464844 327.714844 " fill-opacity="1" fill-rule="nonzero"/><path fill="#000000" d="M 817.464844 334.414062 L 815.054688 333.96875 C 812.109375 332.894531 809.519531 331.289062 806.839844 329.144531 C 803.984375 326.824219 803.539062 322.625 805.859375 319.769531 C 808.089844 316.910156 812.285156 316.375 815.144531 318.605469 C 816.75 319.859375 818.269531 320.75 819.964844 321.464844 C 823.355469 322.894531 824.964844 326.734375 823.535156 330.128906 C 822.640625 332.804688 820.140625 334.414062 817.464844 334.414062 Z M 817.464844 334.414062 " fill-opacity="1" fill-rule="nonzero"/><path fill="#ffffff" d="M 811.035156 323.964844 C 808.269531 321.734375 805.949219 319.054688 804.164062 316.019531 C 806.039062 319.054688 808.359375 321.734375 811.035156 323.964844 Z M 811.035156 323.964844 " fill-opacity="1" fill-rule="nonzero"/><path fill="#000000" d="M 811.035156 330.664062 C 809.519531 330.664062 808.089844 330.214844 806.839844 329.144531 C 803.449219 326.375 800.59375 323.074219 798.449219 319.410156 C 796.574219 316.285156 797.644531 312.175781 800.769531 310.300781 C 803.894531 308.425781 808 309.410156 809.964844 312.535156 C 811.484375 314.945312 813.269531 317.089844 815.410156 318.875 C 818.269531 321.195312 818.625 325.394531 816.304688 328.253906 C 814.875 329.859375 813 330.664062 811.035156 330.664062 Z M 811.035156 330.664062 " fill-opacity="1" fill-rule="nonzero"/><path fill="#ffffff" d="M 817.464844 327.714844 C 815.144531 326.824219 813.089844 325.574219 811.125 323.964844 C 813.089844 325.484375 815.144531 326.734375 817.464844 327.714844 Z M 817.464844 327.714844 " fill-opacity="1" fill-rule="nonzero"/><path fill="#000000" d="M 817.464844 334.414062 L 815.054688 333.96875 C 812.109375 332.894531 809.519531 331.289062 806.839844 329.144531 C 803.984375 326.824219 803.539062 322.625 805.859375 319.769531 C 808.089844 316.910156 812.285156 316.375 815.144531 318.605469 C 816.75 319.859375 818.269531 320.75 819.964844 321.464844 C 823.355469 322.894531 824.964844 326.734375 823.535156 330.128906 C 822.640625 332.804688 820.140625 334.414062 817.464844 334.414062 Z M 817.464844 334.414062 " fill-opacity="1" fill-rule="nonzero"/><path fill="#000000" d="M 812.820312 515.160156 L 797.109375 515.160156 C 793.449219 515.160156 790.414062 512.125 790.414062 508.464844 C 790.414062 504.800781 793.449219 501.765625 797.109375 501.765625 L 812.820312 501.765625 C 816.480469 501.765625 819.515625 504.800781 819.515625 508.464844 C 819.515625 512.125 816.570312 515.160156 812.820312 515.160156 Z M 812.820312 515.160156 " fill-opacity="1" fill-rule="nonzero"/><path fill="#000000" d="M 815.234375 522.304688 C 811.574219 522.304688 808.539062 519.269531 808.539062 515.609375 L 808.539062 501.320312 C 808.539062 497.660156 811.574219 494.621094 815.234375 494.621094 C 818.890625 494.621094 821.925781 497.660156 821.925781 501.320312 L 821.925781 515.609375 C 821.925781 519.269531 818.980469 522.304688 815.234375 522.304688 Z M 815.234375 522.304688 " fill-opacity="1" fill-rule="nonzero"/><path fill="#ffd3a4" d="M 759.351562 400.585938 L 835.050781 400.585938 L 835.050781 432.019531 L 759.351562 432.019531 Z M 759.351562 400.585938 " fill-opacity="1" fill-rule="nonzero"/><path fill="#000000" d="M 835.050781 438.71875 L 759.351562 438.71875 C 755.691406 438.71875 752.65625 435.683594 752.65625 432.019531 L 752.65625 400.585938 C 752.65625 396.925781 755.691406 393.890625 759.351562 393.890625 L 835.050781 393.890625 C 838.710938 393.890625 841.746094 396.925781 841.746094 400.585938 L 841.746094 432.019531 C 841.746094 435.773438 838.710938 438.71875 835.050781 438.71875 Z M 766.046875 425.324219 L 828.355469 425.324219 L 828.355469 407.285156 L 766.046875 407.285156 Z M 766.046875 425.324219 " fill-opacity="1" fill-rule="nonzero"/><path fill="#ffffff" d="M 680.4375 462.472656 C 678.738281 461.222656 677.847656 459.257812 677.9375 457.292969 L 677.9375 456.757812 C 677.9375 451.488281 671.332031 447.203125 663.207031 447.203125 C 655.082031 447.203125 648.476562 451.488281 648.476562 456.757812 L 648.476562 457.292969 C 648.65625 459.347656 647.675781 461.3125 645.976562 462.472656 C 644.640625 463.457031 641.515625 467.472656 641.15625 470.601562 C 640.710938 474.707031 645.621094 479.796875 650.796875 481.046875 C 654.90625 482.03125 655.796875 479.796875 662.851562 479.441406 C 669.992188 479.082031 670.972656 481.226562 675.527344 479.976562 C 680.347656 478.636719 685.347656 474.441406 685.167969 470.601562 C 685.167969 467.652344 682.398438 463.8125 680.4375 462.472656 Z M 680.4375 462.472656 " fill-opacity="1" fill-rule="nonzero"/><path fill="#000000" d="M 652.941406 487.925781 C 651.871094 487.925781 650.710938 487.835938 649.460938 487.476562 C 641.691406 485.601562 633.925781 478.101562 634.730469 469.886719 C 635.265625 464.347656 639.996094 458.722656 642.230469 457.113281 C 641.960938 447.648438 651.335938 440.503906 663.386719 440.503906 C 675.347656 440.503906 684.808594 447.648438 684.808594 456.757812 L 684.808594 457.292969 C 687.757812 459.617188 691.773438 464.972656 692.042969 470.242188 C 692.398438 478.011719 684.898438 484.351562 677.578125 486.40625 C 673.652344 487.476562 670.972656 486.941406 668.832031 486.585938 C 667.3125 486.316406 665.972656 486.050781 663.386719 486.136719 C 660.886719 486.226562 659.546875 486.675781 658.117188 487.121094 C 656.601562 487.386719 654.996094 487.925781 652.941406 487.925781 Z M 663.296875 453.8125 C 658.386719 453.8125 655.53125 455.953125 655.261719 456.757812 C 655.621094 460.953125 653.65625 465.152344 650.085938 467.832031 C 649.460938 468.367188 648.121094 470.421875 647.941406 471.3125 C 648.210938 471.761719 650.261719 473.902344 652.496094 474.441406 C 652.851562 474.527344 652.851562 474.527344 654.191406 474.171875 C 655.886719 473.636719 658.476562 472.921875 662.671875 472.652344 C 666.867188 472.476562 669.457031 472.921875 671.332031 473.367188 C 672.847656 473.636719 673.027344 473.726562 673.832031 473.457031 C 676.242188 472.742188 678.292969 470.957031 678.652344 470.242188 L 676.417969 467.832031 C 672.847656 465.152344 670.882812 461.042969 671.242188 456.667969 C 671.0625 455.953125 668.207031 453.8125 663.296875 453.8125 Z M 684.722656 457.738281 Z M 684.722656 457.738281 " fill-opacity="1" fill-rule="nonzero"/><path fill="#000000" d="M 694.808594 457.917969 C 693.113281 457.917969 691.417969 457.292969 690.078125 455.953125 C 687.488281 453.363281 687.488281 449.078125 690.078125 446.488281 L 694.363281 442.203125 C 696.949219 439.613281 701.234375 439.613281 703.824219 442.203125 C 706.414062 444.792969 706.414062 449.078125 703.824219 451.667969 L 699.539062 455.953125 C 698.289062 457.203125 696.59375 457.917969 694.808594 457.917969 Z M 694.808594 457.917969 " fill-opacity="1" fill-rule="nonzero"/><path fill="#000000" d="M 677.757812 440.058594 C 676.867188 440.058594 675.882812 439.878906 674.992188 439.433594 C 671.597656 437.914062 670.082031 433.984375 671.597656 430.59375 L 673.917969 425.503906 C 675.4375 422.109375 679.363281 420.589844 682.757812 422.109375 C 686.148438 423.625 687.667969 427.554688 686.148438 430.949219 L 683.828125 436.039062 C 682.847656 438.539062 680.347656 440.058594 677.757812 440.058594 Z M 677.757812 440.058594 " fill-opacity="1" fill-rule="nonzero"/><path fill="#000000" d="M 650.796875 439.789062 C 647.941406 439.789062 645.265625 437.914062 644.371094 434.96875 L 642.585938 428.894531 C 641.515625 425.324219 643.566406 421.660156 647.050781 420.589844 C 650.621094 419.519531 654.28125 421.574219 655.351562 425.054688 L 657.136719 431.128906 C 658.207031 434.699219 656.15625 438.363281 652.671875 439.433594 Z M 650.796875 439.789062 " fill-opacity="1" fill-rule="nonzero"/><path fill="#000000" d="M 632.410156 457.5625 C 631.160156 457.5625 629.820312 457.203125 628.660156 456.402344 L 624.019531 453.273438 C 620.984375 451.222656 620.179688 447.023438 622.234375 443.988281 C 624.285156 440.953125 628.480469 440.148438 631.515625 442.203125 L 636.160156 445.328125 C 639.195312 447.382812 639.996094 451.578125 637.945312 454.613281 C 636.695312 456.488281 634.550781 457.5625 632.410156 457.5625 Z M 632.410156 457.5625 " fill-opacity="1" fill-rule="nonzero"/></svg>