<svg xmlns="http://www.w3.org/2000/svg" xmlns:xlink="http://www.w3.org/1999/xlink" width="1920" zoomAndPan="magnify" viewBox="0 0 1440 809.999993" height="1080" preserveAspectRatio="xMidYMid meet" version="1.0"><defs><clipPath id="49ef1fe743"><path d="M 400.242188 85.242188 L 1039.757812 85.242188 L 1039.757812 724.757812 L 400.242188 724.757812 Z M 400.242188 85.242188 " clip-rule="nonzero"/></clipPath><clipPath id="906b2f14d0"><path d="M 720 85.242188 C 543.402344 85.242188 400.242188 228.402344 400.242188 405 C 400.242188 581.597656 543.402344 724.757812 720 724.757812 C 896.597656 724.757812 1039.757812 581.597656 1039.757812 405 C 1039.757812 228.402344 896.597656 85.242188 720 85.242188 Z M 720 85.242188 " clip-rule="nonzero"/></clipPath><clipPath id="808d5db9d2"><path d="M 639 170 L 667 170 L 667 196 L 639 196 Z M 639 170 " clip-rule="nonzero"/></clipPath><clipPath id="6c578aa0d4"><path d="M 575.992188 144.527344 L 982.5625 218.523438 L 901.179688 665.675781 L 494.609375 591.679688 Z M 575.992188 144.527344 " clip-rule="nonzero"/></clipPath><clipPath id="aa4849872d"><path d="M 575.992188 144.527344 L 982.5625 218.523438 L 901.179688 665.675781 L 494.609375 591.679688 Z M 575.992188 144.527344 " clip-rule="nonzero"/></clipPath><clipPath id="889308b52d"><path d="M 575.992188 144.527344 L 982.5625 218.523438 L 901.179688 665.675781 L 494.609375 591.679688 Z M 575.992188 144.527344 " clip-rule="nonzero"/></clipPath><clipPath id="ada8cfe092"><path d="M 590 316 L 705 316 L 705 425 L 590 425 Z M 590 316 " clip-rule="nonzero"/></clipPath><clipPath id="456358cee5"><path d="M 575.992188 144.527344 L 982.5625 218.523438 L 901.179688 665.675781 L 494.609375 591.679688 Z M 575.992188 144.527344 " clip-rule="nonzero"/></clipPath><clipPath id="428a0c43da"><path d="M 575.992188 144.527344 L 982.5625 218.523438 L 901.179688 665.675781 L 494.609375 591.679688 Z M 575.992188 144.527344 " clip-rule="nonzero"/></clipPath><clipPath id="1e1561cd8e"><path d="M 575.992188 144.527344 L 982.5625 218.523438 L 901.179688 665.675781 L 494.609375 591.679688 Z M 575.992188 144.527344 " clip-rule="nonzero"/></clipPath><clipPath id="597aae50e7"><path d="M 683 178 L 711 178 L 711 205 L 683 205 Z M 683 178 " clip-rule="nonzero"/></clipPath><clipPath id="79f59004eb"><path d="M 575.992188 144.527344 L 982.5625 218.523438 L 901.179688 665.675781 L 494.609375 591.679688 Z M 575.992188 144.527344 " clip-rule="nonzero"/></clipPath><clipPath id="5eeed343bb"><path d="M 575.992188 144.527344 L 982.5625 218.523438 L 901.179688 665.675781 L 494.609375 591.679688 Z M 575.992188 144.527344 " clip-rule="nonzero"/></clipPath><clipPath id="81ddf0466c"><path d="M 575.992188 144.527344 L 982.5625 218.523438 L 901.179688 665.675781 L 494.609375 591.679688 Z M 575.992188 144.527344 " clip-rule="nonzero"/></clipPath><clipPath id="82cf553e54"><path d="M 694 185 L 767 185 L 767 348 L 694 348 Z M 694 185 " clip-rule="nonzero"/></clipPath><clipPath id="997db17e14"><path d="M 575.992188 144.527344 L 982.5625 218.523438 L 901.179688 665.675781 L 494.609375 591.679688 Z M 575.992188 144.527344 " clip-rule="nonzero"/></clipPath><clipPath id="5337f47fa0"><path d="M 575.992188 144.527344 L 982.5625 218.523438 L 901.179688 665.675781 L 494.609375 591.679688 Z M 575.992188 144.527344 " clip-rule="nonzero"/></clipPath><clipPath id="3e87f8b6c4"><path d="M 575.992188 144.527344 L 982.5625 218.523438 L 901.179688 665.675781 L 494.609375 591.679688 Z M 575.992188 144.527344 " clip-rule="nonzero"/></clipPath><clipPath id="1ff4fc4d04"><path d="M 566 172 L 644 172 L 644 327 L 566 327 Z M 566 172 " clip-rule="nonzero"/></clipPath><clipPath id="84204ca5b7"><path d="M 575.992188 144.527344 L 982.5625 218.523438 L 901.179688 665.675781 L 494.609375 591.679688 Z M 575.992188 144.527344 " clip-rule="nonzero"/></clipPath><clipPath id="2e9e9f69a3"><path d="M 575.992188 144.527344 L 982.5625 218.523438 L 901.179688 665.675781 L 494.609375 591.679688 Z M 575.992188 144.527344 " clip-rule="nonzero"/></clipPath><clipPath id="0d101f6492"><path d="M 575.992188 144.527344 L 982.5625 218.523438 L 901.179688 665.675781 L 494.609375 591.679688 Z M 575.992188 144.527344 " clip-rule="nonzero"/></clipPath><clipPath id="a735e83a86"><path d="M 608 419 L 830 419 L 830 627 L 608 627 Z M 608 419 " clip-rule="nonzero"/></clipPath><clipPath id="8d3a680b89"><path d="M 575.992188 144.527344 L 982.5625 218.523438 L 901.179688 665.675781 L 494.609375 591.679688 Z M 575.992188 144.527344 " clip-rule="nonzero"/></clipPath><clipPath id="644804aaee"><path d="M 575.992188 144.527344 L 982.5625 218.523438 L 901.179688 665.675781 L 494.609375 591.679688 Z M 575.992188 144.527344 " clip-rule="nonzero"/></clipPath><clipPath id="9dff859744"><path d="M 575.992188 144.527344 L 982.5625 218.523438 L 901.179688 665.675781 L 494.609375 591.679688 Z M 575.992188 144.527344 " clip-rule="nonzero"/></clipPath><clipPath id="ffe0416f1a"><path d="M 810 472 L 843 472 L 843 532 L 810 532 Z M 810 472 " clip-rule="nonzero"/></clipPath><clipPath id="a48ae4a672"><path d="M 575.992188 144.527344 L 982.5625 218.523438 L 901.179688 665.675781 L 494.609375 591.679688 Z M 575.992188 144.527344 " clip-rule="nonzero"/></clipPath><clipPath id="22ace5c4cf"><path d="M 575.992188 144.527344 L 982.5625 218.523438 L 901.179688 665.675781 L 494.609375 591.679688 Z M 575.992188 144.527344 " clip-rule="nonzero"/></clipPath><clipPath id="c09446fc09"><path d="M 575.992188 144.527344 L 982.5625 218.523438 L 901.179688 665.675781 L 494.609375 591.679688 Z M 575.992188 144.527344 " clip-rule="nonzero"/></clipPath><clipPath id="19a1f9d721"><path d="M 745 298 L 944 298 L 944 497 L 745 497 Z M 745 298 " clip-rule="nonzero"/></clipPath><clipPath id="eb84547021"><path d="M 575.992188 144.527344 L 982.5625 218.523438 L 901.179688 665.675781 L 494.609375 591.679688 Z M 575.992188 144.527344 " clip-rule="nonzero"/></clipPath><clipPath id="db50ad84ff"><path d="M 575.992188 144.527344 L 982.5625 218.523438 L 901.179688 665.675781 L 494.609375 591.679688 Z M 575.992188 144.527344 " clip-rule="nonzero"/></clipPath><clipPath id="8fa25da5e2"><path d="M 575.992188 144.527344 L 982.5625 218.523438 L 901.179688 665.675781 L 494.609375 591.679688 Z M 575.992188 144.527344 " clip-rule="nonzero"/></clipPath><clipPath id="68c9f516bf"><path d="M 765 318 L 924 318 L 924 477 L 765 477 Z M 765 318 " clip-rule="nonzero"/></clipPath><clipPath id="5f0cd6268f"><path d="M 575.992188 144.527344 L 982.5625 218.523438 L 901.179688 665.675781 L 494.609375 591.679688 Z M 575.992188 144.527344 " clip-rule="nonzero"/></clipPath><clipPath id="aba283292f"><path d="M 575.992188 144.527344 L 982.5625 218.523438 L 901.179688 665.675781 L 494.609375 591.679688 Z M 575.992188 144.527344 " clip-rule="nonzero"/></clipPath><clipPath id="2004f91576"><path d="M 575.992188 144.527344 L 982.5625 218.523438 L 901.179688 665.675781 L 494.609375 591.679688 Z M 575.992188 144.527344 " clip-rule="nonzero"/></clipPath><clipPath id="1da8319a8c"><path d="M 799 383 L 881 383 L 881 448 L 799 448 Z M 799 383 " clip-rule="nonzero"/></clipPath><clipPath id="d383d81aeb"><path d="M 575.992188 144.527344 L 982.5625 218.523438 L 901.179688 665.675781 L 494.609375 591.679688 Z M 575.992188 144.527344 " clip-rule="nonzero"/></clipPath><clipPath id="3ad267cac7"><path d="M 575.992188 144.527344 L 982.5625 218.523438 L 901.179688 665.675781 L 494.609375 591.679688 Z M 575.992188 144.527344 " clip-rule="nonzero"/></clipPath><clipPath id="e15792bc15"><path d="M 575.992188 144.527344 L 982.5625 218.523438 L 901.179688 665.675781 L 494.609375 591.679688 Z M 575.992188 144.527344 " clip-rule="nonzero"/></clipPath><clipPath id="cd16f0b3e4"><path d="M 877 380 L 900 380 L 900 405 L 877 405 Z M 877 380 " clip-rule="nonzero"/></clipPath><clipPath id="3ad07a17d6"><path d="M 575.992188 144.527344 L 982.5625 218.523438 L 901.179688 665.675781 L 494.609375 591.679688 Z M 575.992188 144.527344 " clip-rule="nonzero"/></clipPath><clipPath id="4e1cd36886"><path d="M 575.992188 144.527344 L 982.5625 218.523438 L 901.179688 665.675781 L 494.609375 591.679688 Z M 575.992188 144.527344 " clip-rule="nonzero"/></clipPath><clipPath id="8ec16ed173"><path d="M 575.992188 144.527344 L 982.5625 218.523438 L 901.179688 665.675781 L 494.609375 591.679688 Z M 575.992188 144.527344 " clip-rule="nonzero"/></clipPath><clipPath id="80d958f5a8"><path d="M 855 355 L 882 355 L 882 386 L 855 386 Z M 855 355 " clip-rule="nonzero"/></clipPath><clipPath id="296416e094"><path d="M 575.992188 144.527344 L 982.5625 218.523438 L 901.179688 665.675781 L 494.609375 591.679688 Z M 575.992188 144.527344 " clip-rule="nonzero"/></clipPath><clipPath id="78391e4395"><path d="M 575.992188 144.527344 L 982.5625 218.523438 L 901.179688 665.675781 L 494.609375 591.679688 Z M 575.992188 144.527344 " clip-rule="nonzero"/></clipPath><clipPath id="35ada0dabc"><path d="M 575.992188 144.527344 L 982.5625 218.523438 L 901.179688 665.675781 L 494.609375 591.679688 Z M 575.992188 144.527344 " clip-rule="nonzero"/></clipPath><clipPath id="b81be3a971"><path d="M 795 365 L 817 365 L 817 391 L 795 391 Z M 795 365 " clip-rule="nonzero"/></clipPath><clipPath id="1f8fe71771"><path d="M 575.992188 144.527344 L 982.5625 218.523438 L 901.179688 665.675781 L 494.609375 591.679688 Z M 575.992188 144.527344 " clip-rule="nonzero"/></clipPath><clipPath id="d136bff26c"><path d="M 575.992188 144.527344 L 982.5625 218.523438 L 901.179688 665.675781 L 494.609375 591.679688 Z M 575.992188 144.527344 " clip-rule="nonzero"/></clipPath><clipPath id="f4932b6d41"><path d="M 575.992188 144.527344 L 982.5625 218.523438 L 901.179688 665.675781 L 494.609375 591.679688 Z M 575.992188 144.527344 " clip-rule="nonzero"/></clipPath><clipPath id="d1f520a8d1"><path d="M 819 348 L 846 348 L 846 380 L 819 380 Z M 819 348 " clip-rule="nonzero"/></clipPath><clipPath id="47ca4e6979"><path d="M 575.992188 144.527344 L 982.5625 218.523438 L 901.179688 665.675781 L 494.609375 591.679688 Z M 575.992188 144.527344 " clip-rule="nonzero"/></clipPath><clipPath id="a60878caa3"><path d="M 575.992188 144.527344 L 982.5625 218.523438 L 901.179688 665.675781 L 494.609375 591.679688 Z M 575.992188 144.527344 " clip-rule="nonzero"/></clipPath><clipPath id="c073276762"><path d="M 575.992188 144.527344 L 982.5625 218.523438 L 901.179688 665.675781 L 494.609375 591.679688 Z M 575.992188 144.527344 " clip-rule="nonzero"/></clipPath><clipPath id="acbdb67d38"><path d="M 635 166 L 671 166 L 671 201 L 635 201 Z M 635 166 " clip-rule="nonzero"/></clipPath><clipPath id="a43967be4b"><path d="M 575.992188 144.527344 L 982.5625 218.523438 L 901.179688 665.675781 L 494.609375 591.679688 Z M 575.992188 144.527344 " clip-rule="nonzero"/></clipPath><clipPath id="7e02f46901"><path d="M 575.992188 144.527344 L 982.5625 218.523438 L 901.179688 665.675781 L 494.609375 591.679688 Z M 575.992188 144.527344 " clip-rule="nonzero"/></clipPath><clipPath id="c2ee71a837"><path d="M 575.992188 144.527344 L 982.5625 218.523438 L 901.179688 665.675781 L 494.609375 591.679688 Z M 575.992188 144.527344 " clip-rule="nonzero"/></clipPath><clipPath id="bbbd94d748"><path d="M 586 311 L 710 311 L 710 430 L 586 430 Z M 586 311 " clip-rule="nonzero"/></clipPath><clipPath id="5064df08df"><path d="M 575.992188 144.527344 L 982.5625 218.523438 L 901.179688 665.675781 L 494.609375 591.679688 Z M 575.992188 144.527344 " clip-rule="nonzero"/></clipPath><clipPath id="490dea7579"><path d="M 575.992188 144.527344 L 982.5625 218.523438 L 901.179688 665.675781 L 494.609375 591.679688 Z M 575.992188 144.527344 " clip-rule="nonzero"/></clipPath><clipPath id="1099b2d64e"><path d="M 575.992188 144.527344 L 982.5625 218.523438 L 901.179688 665.675781 L 494.609375 591.679688 Z M 575.992188 144.527344 " clip-rule="nonzero"/></clipPath><clipPath id="e15e2ac46d"><path d="M 679 174 L 715 174 L 715 209 L 679 209 Z M 679 174 " clip-rule="nonzero"/></clipPath><clipPath id="a4a28ead3e"><path d="M 575.992188 144.527344 L 982.5625 218.523438 L 901.179688 665.675781 L 494.609375 591.679688 Z M 575.992188 144.527344 " clip-rule="nonzero"/></clipPath><clipPath id="4f5735720f"><path d="M 575.992188 144.527344 L 982.5625 218.523438 L 901.179688 665.675781 L 494.609375 591.679688 Z M 575.992188 144.527344 " clip-rule="nonzero"/></clipPath><clipPath id="5e3e874c8a"><path d="M 575.992188 144.527344 L 982.5625 218.523438 L 901.179688 665.675781 L 494.609375 591.679688 Z M 575.992188 144.527344 " clip-rule="nonzero"/></clipPath><clipPath id="e79717b242"><path d="M 690 181 L 772 181 L 772 352 L 690 352 Z M 690 181 " clip-rule="nonzero"/></clipPath><clipPath id="f865069f1b"><path d="M 575.992188 144.527344 L 982.5625 218.523438 L 901.179688 665.675781 L 494.609375 591.679688 Z M 575.992188 144.527344 " clip-rule="nonzero"/></clipPath><clipPath id="4121b6b0b2"><path d="M 575.992188 144.527344 L 982.5625 218.523438 L 901.179688 665.675781 L 494.609375 591.679688 Z M 575.992188 144.527344 " clip-rule="nonzero"/></clipPath><clipPath id="dc3d31b752"><path d="M 575.992188 144.527344 L 982.5625 218.523438 L 901.179688 665.675781 L 494.609375 591.679688 Z M 575.992188 144.527344 " clip-rule="nonzero"/></clipPath><clipPath id="578401762e"><path d="M 561 168 L 649 168 L 649 332 L 561 332 Z M 561 168 " clip-rule="nonzero"/></clipPath><clipPath id="2b1095f027"><path d="M 575.992188 144.527344 L 982.5625 218.523438 L 901.179688 665.675781 L 494.609375 591.679688 Z M 575.992188 144.527344 " clip-rule="nonzero"/></clipPath><clipPath id="e2f3157eb7"><path d="M 575.992188 144.527344 L 982.5625 218.523438 L 901.179688 665.675781 L 494.609375 591.679688 Z M 575.992188 144.527344 " clip-rule="nonzero"/></clipPath><clipPath id="4a0596ad7d"><path d="M 575.992188 144.527344 L 982.5625 218.523438 L 901.179688 665.675781 L 494.609375 591.679688 Z M 575.992188 144.527344 " clip-rule="nonzero"/></clipPath><clipPath id="18a903cd12"><path d="M 603 414 L 835 414 L 835 631 L 603 631 Z M 603 414 " clip-rule="nonzero"/></clipPath><clipPath id="bc00e2e59c"><path d="M 575.992188 144.527344 L 982.5625 218.523438 L 901.179688 665.675781 L 494.609375 591.679688 Z M 575.992188 144.527344 " clip-rule="nonzero"/></clipPath><clipPath id="229e9f607f"><path d="M 575.992188 144.527344 L 982.5625 218.523438 L 901.179688 665.675781 L 494.609375 591.679688 Z M 575.992188 144.527344 " clip-rule="nonzero"/></clipPath><clipPath id="5ace15ed45"><path d="M 575.992188 144.527344 L 982.5625 218.523438 L 901.179688 665.675781 L 494.609375 591.679688 Z M 575.992188 144.527344 " clip-rule="nonzero"/></clipPath><clipPath id="285a938b6b"><path d="M 805 467 L 848 467 L 848 536 L 805 536 Z M 805 467 " clip-rule="nonzero"/></clipPath><clipPath id="0ee9e4800d"><path d="M 575.992188 144.527344 L 982.5625 218.523438 L 901.179688 665.675781 L 494.609375 591.679688 Z M 575.992188 144.527344 " clip-rule="nonzero"/></clipPath><clipPath id="824e227c14"><path d="M 575.992188 144.527344 L 982.5625 218.523438 L 901.179688 665.675781 L 494.609375 591.679688 Z M 575.992188 144.527344 " clip-rule="nonzero"/></clipPath><clipPath id="5a6723a0b8"><path d="M 575.992188 144.527344 L 982.5625 218.523438 L 901.179688 665.675781 L 494.609375 591.679688 Z M 575.992188 144.527344 " clip-rule="nonzero"/></clipPath><clipPath id="770f88badf"><path d="M 740 293 L 949 293 L 949 502 L 740 502 Z M 740 293 " clip-rule="nonzero"/></clipPath><clipPath id="46e3560950"><path d="M 575.992188 144.527344 L 982.5625 218.523438 L 901.179688 665.675781 L 494.609375 591.679688 Z M 575.992188 144.527344 " clip-rule="nonzero"/></clipPath><clipPath id="0be417edac"><path d="M 575.992188 144.527344 L 982.5625 218.523438 L 901.179688 665.675781 L 494.609375 591.679688 Z M 575.992188 144.527344 " clip-rule="nonzero"/></clipPath><clipPath id="b28ed31b40"><path d="M 575.992188 144.527344 L 982.5625 218.523438 L 901.179688 665.675781 L 494.609375 591.679688 Z M 575.992188 144.527344 " clip-rule="nonzero"/></clipPath><clipPath id="3783d5f8bb"><path d="M 523 454 L 554 454 L 554 486 L 523 486 Z M 523 454 " clip-rule="nonzero"/></clipPath><clipPath id="010a29d6d7"><path d="M 575.992188 144.527344 L 982.5625 218.523438 L 901.179688 665.675781 L 494.609375 591.679688 Z M 575.992188 144.527344 " clip-rule="nonzero"/></clipPath><clipPath id="421ef7039e"><path d="M 575.992188 144.527344 L 982.5625 218.523438 L 901.179688 665.675781 L 494.609375 591.679688 Z M 575.992188 144.527344 " clip-rule="nonzero"/></clipPath><clipPath id="e666e14f9b"><path d="M 575.992188 144.527344 L 982.5625 218.523438 L 901.179688 665.675781 L 494.609375 591.679688 Z M 575.992188 144.527344 " clip-rule="nonzero"/></clipPath><clipPath id="ac3292c8fa"><path d="M 552 553 L 565 553 L 565 566 L 552 566 Z M 552 553 " clip-rule="nonzero"/></clipPath><clipPath id="1845a4c9df"><path d="M 575.992188 144.527344 L 982.5625 218.523438 L 901.179688 665.675781 L 494.609375 591.679688 Z M 575.992188 144.527344 " clip-rule="nonzero"/></clipPath><clipPath id="1018bfbfa9"><path d="M 575.992188 144.527344 L 982.5625 218.523438 L 901.179688 665.675781 L 494.609375 591.679688 Z M 575.992188 144.527344 " clip-rule="nonzero"/></clipPath><clipPath id="2fa55c5fcd"><path d="M 575.992188 144.527344 L 982.5625 218.523438 L 901.179688 665.675781 L 494.609375 591.679688 Z M 575.992188 144.527344 " clip-rule="nonzero"/></clipPath><clipPath id="240b9b2eb5"><path d="M 867 553 L 891 553 L 891 576 L 867 576 Z M 867 553 " clip-rule="nonzero"/></clipPath><clipPath id="57fdb6daf4"><path d="M 575.992188 144.527344 L 982.5625 218.523438 L 901.179688 665.675781 L 494.609375 591.679688 Z M 575.992188 144.527344 " clip-rule="nonzero"/></clipPath><clipPath id="57b0897ee5"><path d="M 575.992188 144.527344 L 982.5625 218.523438 L 901.179688 665.675781 L 494.609375 591.679688 Z M 575.992188 144.527344 " clip-rule="nonzero"/></clipPath><clipPath id="dc12551eeb"><path d="M 575.992188 144.527344 L 982.5625 218.523438 L 901.179688 665.675781 L 494.609375 591.679688 Z M 575.992188 144.527344 " clip-rule="nonzero"/></clipPath><clipPath id="c8cf4c3904"><path d="M 796 185 L 809 185 L 809 198 L 796 198 Z M 796 185 " clip-rule="nonzero"/></clipPath><clipPath id="11784dca49"><path d="M 575.992188 144.527344 L 982.5625 218.523438 L 901.179688 665.675781 L 494.609375 591.679688 Z M 575.992188 144.527344 " clip-rule="nonzero"/></clipPath><clipPath id="553969b0de"><path d="M 575.992188 144.527344 L 982.5625 218.523438 L 901.179688 665.675781 L 494.609375 591.679688 Z M 575.992188 144.527344 " clip-rule="nonzero"/></clipPath><clipPath id="4aad93e122"><path d="M 575.992188 144.527344 L 982.5625 218.523438 L 901.179688 665.675781 L 494.609375 591.679688 Z M 575.992188 144.527344 " clip-rule="nonzero"/></clipPath><clipPath id="32ec6bc36a"><path d="M 856 228 L 890 228 L 890 261 L 856 261 Z M 856 228 " clip-rule="nonzero"/></clipPath><clipPath id="7d5ce6e6c3"><path d="M 575.992188 144.527344 L 982.5625 218.523438 L 901.179688 665.675781 L 494.609375 591.679688 Z M 575.992188 144.527344 " clip-rule="nonzero"/></clipPath><clipPath id="9534d9cc36"><path d="M 575.992188 144.527344 L 982.5625 218.523438 L 901.179688 665.675781 L 494.609375 591.679688 Z M 575.992188 144.527344 " clip-rule="nonzero"/></clipPath><clipPath id="1beb8e2c6f"><path d="M 575.992188 144.527344 L 982.5625 218.523438 L 901.179688 665.675781 L 494.609375 591.679688 Z M 575.992188 144.527344 " clip-rule="nonzero"/></clipPath><clipPath id="87185998fd"><path d="M 761 314 L 928 314 L 928 481 L 761 481 Z M 761 314 " clip-rule="nonzero"/></clipPath><clipPath id="6fab83beb5"><path d="M 575.992188 144.527344 L 982.5625 218.523438 L 901.179688 665.675781 L 494.609375 591.679688 Z M 575.992188 144.527344 " clip-rule="nonzero"/></clipPath><clipPath id="2a02bc02cc"><path d="M 575.992188 144.527344 L 982.5625 218.523438 L 901.179688 665.675781 L 494.609375 591.679688 Z M 575.992188 144.527344 " clip-rule="nonzero"/></clipPath><clipPath id="58a8fdf514"><path d="M 575.992188 144.527344 L 982.5625 218.523438 L 901.179688 665.675781 L 494.609375 591.679688 Z M 575.992188 144.527344 " clip-rule="nonzero"/></clipPath><clipPath id="e2f3b995cc"><path d="M 794 379 L 885 379 L 885 452 L 794 452 Z M 794 379 " clip-rule="nonzero"/></clipPath><clipPath id="1d80cb21d4"><path d="M 575.992188 144.527344 L 982.5625 218.523438 L 901.179688 665.675781 L 494.609375 591.679688 Z M 575.992188 144.527344 " clip-rule="nonzero"/></clipPath><clipPath id="d5bb50132f"><path d="M 575.992188 144.527344 L 982.5625 218.523438 L 901.179688 665.675781 L 494.609375 591.679688 Z M 575.992188 144.527344 " clip-rule="nonzero"/></clipPath><clipPath id="a85e953ffb"><path d="M 575.992188 144.527344 L 982.5625 218.523438 L 901.179688 665.675781 L 494.609375 591.679688 Z M 575.992188 144.527344 " clip-rule="nonzero"/></clipPath><clipPath id="7155c119a8"><path d="M 872 375 L 904 375 L 904 410 L 872 410 Z M 872 375 " clip-rule="nonzero"/></clipPath><clipPath id="0056aedf13"><path d="M 575.992188 144.527344 L 982.5625 218.523438 L 901.179688 665.675781 L 494.609375 591.679688 Z M 575.992188 144.527344 " clip-rule="nonzero"/></clipPath><clipPath id="21d5e8b7c6"><path d="M 575.992188 144.527344 L 982.5625 218.523438 L 901.179688 665.675781 L 494.609375 591.679688 Z M 575.992188 144.527344 " clip-rule="nonzero"/></clipPath><clipPath id="1ae038c6f4"><path d="M 575.992188 144.527344 L 982.5625 218.523438 L 901.179688 665.675781 L 494.609375 591.679688 Z M 575.992188 144.527344 " clip-rule="nonzero"/></clipPath><clipPath id="dfccfec147"><path d="M 850 350 L 887 350 L 887 390 L 850 390 Z M 850 350 " clip-rule="nonzero"/></clipPath><clipPath id="8b3bd5d352"><path d="M 575.992188 144.527344 L 982.5625 218.523438 L 901.179688 665.675781 L 494.609375 591.679688 Z M 575.992188 144.527344 " clip-rule="nonzero"/></clipPath><clipPath id="8b0e94fe2a"><path d="M 575.992188 144.527344 L 982.5625 218.523438 L 901.179688 665.675781 L 494.609375 591.679688 Z M 575.992188 144.527344 " clip-rule="nonzero"/></clipPath><clipPath id="41f9ce9986"><path d="M 575.992188 144.527344 L 982.5625 218.523438 L 901.179688 665.675781 L 494.609375 591.679688 Z M 575.992188 144.527344 " clip-rule="nonzero"/></clipPath><clipPath id="7e55947bcb"><path d="M 790 360 L 821 360 L 821 395 L 790 395 Z M 790 360 " clip-rule="nonzero"/></clipPath><clipPath id="25b98ad8f8"><path d="M 575.992188 144.527344 L 982.5625 218.523438 L 901.179688 665.675781 L 494.609375 591.679688 Z M 575.992188 144.527344 " clip-rule="nonzero"/></clipPath><clipPath id="8748a2477f"><path d="M 575.992188 144.527344 L 982.5625 218.523438 L 901.179688 665.675781 L 494.609375 591.679688 Z M 575.992188 144.527344 " clip-rule="nonzero"/></clipPath><clipPath id="68acf64c86"><path d="M 575.992188 144.527344 L 982.5625 218.523438 L 901.179688 665.675781 L 494.609375 591.679688 Z M 575.992188 144.527344 " clip-rule="nonzero"/></clipPath><clipPath id="7d256563db"><path d="M 814 344 L 850 344 L 850 384 L 814 384 Z M 814 344 " clip-rule="nonzero"/></clipPath><clipPath id="93453bfd24"><path d="M 575.992188 144.527344 L 982.5625 218.523438 L 901.179688 665.675781 L 494.609375 591.679688 Z M 575.992188 144.527344 " clip-rule="nonzero"/></clipPath><clipPath id="89d4812a45"><path d="M 575.992188 144.527344 L 982.5625 218.523438 L 901.179688 665.675781 L 494.609375 591.679688 Z M 575.992188 144.527344 " clip-rule="nonzero"/></clipPath><clipPath id="7fda49fb88"><path d="M 575.992188 144.527344 L 982.5625 218.523438 L 901.179688 665.675781 L 494.609375 591.679688 Z M 575.992188 144.527344 " clip-rule="nonzero"/></clipPath></defs><g clip-path="url(#49ef1fe743)"><g clip-path="url(#906b2f14d0)"><path fill="#eb8128" d="M 400.242188 85.242188 L 1039.757812 85.242188 L 1039.757812 724.757812 L 400.242188 724.757812 Z M 400.242188 85.242188 " fill-opacity="1" fill-rule="nonzero"/></g></g><g clip-path="url(#808d5db9d2)"><g clip-path="url(#6c578aa0d4)"><g clip-path="url(#aa4849872d)"><g clip-path="url(#889308b52d)"><path fill="#6cadef" d="M 649.804688 195.59375 C 650.351562 195.691406 650.90625 195.753906 651.472656 195.78125 L 653.558594 195.878906 C 660.40625 196.191406 666.214844 190.890625 666.53125 184.035156 C 666.847656 177.179688 661.546875 171.367188 654.699219 171.054688 L 652.617188 170.957031 C 645.765625 170.644531 639.957031 175.945312 639.644531 182.800781 C 639.351562 189.085938 643.785156 194.496094 649.804688 195.59375 Z M 649.804688 195.59375 " fill-opacity="1" fill-rule="nonzero"/></g></g></g></g><g clip-path="url(#ada8cfe092)"><g clip-path="url(#456358cee5)"><g clip-path="url(#428a0c43da)"><g clip-path="url(#1e1561cd8e)"><path fill="#fc657e" d="M 703.210938 338.578125 C 699.648438 332.554688 691.851562 330.675781 685.949219 334.363281 C 679.484375 338.402344 672.484375 341.980469 665.003906 345.085938 C 652.804688 350.148438 638.6875 347.679688 629.042969 338.65625 C 623.203125 333.195312 617.964844 327.46875 613.371094 321.503906 C 609.238281 316.140625 601.554688 314.582031 596.027344 318.496094 C 590.253906 322.585938 589.066406 330.617188 593.328125 336.191406 C 601.429688 346.796875 611.175781 356.71875 622.40625 365.808594 C 626.433594 369.074219 628.421875 374.234375 627.492188 379.335938 L 621.945312 409.828125 C 620.726562 416.519531 624.816406 423.296875 631.464844 424.714844 C 638.34375 426.179688 645.027344 421.660156 646.28125 414.785156 L 651.925781 383.765625 C 652.851562 378.679688 656.503906 374.546875 661.40625 372.921875 C 674.949219 368.433594 687.417969 362.679688 698.625 355.734375 C 704.445312 352.128906 706.695312 344.46875 703.210938 338.578125 Z M 703.210938 338.578125 " fill-opacity="1" fill-rule="nonzero"/></g></g></g></g><g clip-path="url(#597aae50e7)"><g clip-path="url(#79f59004eb)"><g clip-path="url(#5eeed343bb)"><g clip-path="url(#81ddf0466c)"><path fill="#6cadef" d="M 692.171875 202.90625 L 694.15625 203.550781 C 694.699219 203.726562 695.238281 203.859375 695.785156 203.960938 C 701.804688 205.054688 707.859375 201.554688 709.800781 195.566406 C 711.921875 189.042969 708.351562 182.03125 701.832031 179.914062 L 699.847656 179.269531 C 693.324219 177.152344 686.320312 180.722656 684.199219 187.25 C 682.082031 193.777344 685.652344 200.789062 692.171875 202.90625 Z M 692.171875 202.90625 " fill-opacity="1" fill-rule="nonzero"/></g></g></g></g><g clip-path="url(#82cf553e54)"><g clip-path="url(#997db17e14)"><g clip-path="url(#5337f47fa0)"><g clip-path="url(#3e87f8b6c4)"><path fill="#edf4fc" d="M 709.800781 195.570312 C 708.726562 198.878906 706.390625 201.425781 703.503906 202.859375 L 730.765625 211.726562 C 742.976562 215.699219 750.464844 227.835938 748.5625 240.589844 C 744.40625 268.496094 731.613281 306.367188 694.796875 332.703125 C 698.09375 333.316406 701.136719 335.25 703.054688 338.324219 C 704.824219 341.15625 705.296875 344.425781 704.664062 347.453125 C 746.839844 317.5625 761.414062 274.710938 766.105469 243.199219 C 769.285156 221.84375 756.730469 201.503906 736.25 194.84375 L 708.992188 185.976562 C 710.484375 188.832031 710.875 192.261719 709.800781 195.570312 Z M 709.800781 195.570312 " fill-opacity="1" fill-rule="nonzero"/></g></g></g></g><g clip-path="url(#1ff4fc4d04)"><g clip-path="url(#84204ca5b7)"><g clip-path="url(#2e9e9f69a3)"><g clip-path="url(#0d101f6492)"><path fill="#edf4fc" d="M 595.652344 318.769531 C 598.53125 316.566406 602.058594 315.832031 605.363281 316.417969 C 580.191406 278.804688 581.5625 238.855469 587.503906 211.277344 C 590.21875 198.671875 601.503906 189.949219 614.335938 190.535156 L 642.96875 191.839844 C 640.773438 189.480469 639.484375 186.277344 639.644531 182.800781 C 639.804688 179.328125 641.378906 176.257812 643.78125 174.109375 L 615.144531 172.804688 C 593.632812 171.820312 574.714844 186.429688 570.164062 207.539062 C 563.453125 238.679688 561.996094 283.917969 590.929688 326.75 C 591.402344 323.691406 593 320.800781 595.652344 318.769531 Z M 595.652344 318.769531 " fill-opacity="1" fill-rule="nonzero"/></g></g></g></g><g clip-path="url(#a735e83a86)"><g clip-path="url(#8d3a680b89)"><g clip-path="url(#644804aaee)"><g clip-path="url(#9dff859744)"><path fill="#edf4fc" d="M 820.234375 531.238281 C 816.8125 530.617188 813.984375 528.644531 812.179688 525.976562 L 811.128906 531.746094 C 801.902344 582.425781 753.207031 616.152344 702.574219 606.9375 C 651.9375 597.722656 618.25 549 627.472656 498.320312 L 641.238281 422.691406 C 638.511719 424.621094 635.019531 425.46875 631.46875 424.714844 C 628.179688 424.011719 625.523438 422 623.820312 419.339844 L 610.023438 495.144531 C 599.046875 555.449219 639.136719 613.4375 699.394531 624.402344 C 759.648438 635.367188 817.601562 595.226562 828.578125 534.921875 L 829.628906 529.152344 C 826.996094 531.011719 823.652344 531.863281 820.234375 531.238281 Z M 820.234375 531.238281 " fill-opacity="1" fill-rule="nonzero"/></g></g></g></g><g clip-path="url(#ffe0416f1a)"><g clip-path="url(#a48ae4a672)"><g clip-path="url(#22ace5c4cf)"><g clip-path="url(#c09446fc09)"><path fill="#6cadef" d="M 830.421875 475.269531 C 826.265625 474.511719 822.246094 473.433594 818.382812 472.082031 L 810.242188 516.792969 C 809.015625 523.546875 813.488281 530.015625 820.234375 531.242188 C 826.980469 532.46875 833.445312 527.992188 834.671875 521.238281 L 842.808594 476.527344 C 838.714844 476.429688 834.578125 476.023438 830.421875 475.269531 Z M 830.421875 475.269531 " fill-opacity="1" fill-rule="nonzero"/></g></g></g></g><g clip-path="url(#19a1f9d721)"><g clip-path="url(#eb84547021)"><g clip-path="url(#db50ad84ff)"><g clip-path="url(#8fa25da5e2)"><path fill="#70d6f9" d="M 862.363281 299.757812 C 808.394531 289.933594 756.679688 325.757812 746.847656 379.769531 C 737.773438 429.636719 767.589844 477.550781 814.695312 492.339844 L 818.382812 472.078125 C 822.246094 473.433594 826.265625 474.511719 830.421875 475.265625 C 834.578125 476.023438 838.714844 476.429688 842.8125 476.523438 L 839.121094 496.785156 C 888.417969 499.539062 933.203125 465.207031 942.28125 415.339844 C 952.109375 361.324219 916.332031 309.578125 862.363281 299.757812 Z M 862.363281 299.757812 " fill-opacity="1" fill-rule="nonzero"/></g></g></g></g><g clip-path="url(#68c9f516bf)"><g clip-path="url(#5f0cd6268f)"><g clip-path="url(#aba283292f)"><g clip-path="url(#2004f91576)"><path fill="#edf4fc" d="M 922.214844 411.6875 C 921.984375 412.957031 921.71875 414.222656 921.425781 415.480469 C 921.132812 416.742188 920.808594 417.992188 920.453125 419.234375 C 920.097656 420.476562 919.714844 421.710938 919.296875 422.9375 C 918.882812 424.160156 918.4375 425.375 917.960938 426.574219 C 917.488281 427.777344 916.984375 428.96875 916.449219 430.144531 C 915.917969 431.324219 915.355469 432.488281 914.765625 433.636719 C 914.175781 434.785156 913.554688 435.921875 912.910156 437.042969 C 912.265625 438.160156 911.589844 439.265625 910.890625 440.351562 C 910.191406 441.4375 909.464844 442.503906 908.710938 443.554688 C 907.957031 444.605469 907.179688 445.640625 906.378906 446.652344 C 905.574219 447.664062 904.746094 448.65625 903.894531 449.628906 C 903.042969 450.601562 902.167969 451.550781 901.269531 452.480469 C 900.371094 453.410156 899.449219 454.316406 898.507812 455.199219 C 897.566406 456.082031 896.601562 456.941406 895.617188 457.78125 C 894.628906 458.617188 893.625 459.429688 892.601562 460.214844 C 891.574219 461 890.53125 461.761719 889.46875 462.5 C 888.40625 463.234375 887.328125 463.945312 886.230469 464.625 C 885.132812 465.308594 884.019531 465.964844 882.890625 466.59375 C 881.761719 467.222656 880.617188 467.820312 879.460938 468.394531 C 878.300781 468.964844 877.128906 469.507812 875.945312 470.023438 C 874.757812 470.535156 873.5625 471.019531 872.351562 471.476562 C 871.144531 471.933594 869.925781 472.359375 868.695312 472.753906 C 867.464844 473.148438 866.226562 473.515625 864.976562 473.847656 C 863.730469 474.183594 862.476562 474.488281 861.210938 474.761719 C 859.949219 475.035156 858.679688 475.277344 857.40625 475.484375 C 856.132812 475.695312 854.851562 475.875 853.570312 476.023438 C 852.285156 476.171875 851 476.289062 849.710938 476.371094 C 848.421875 476.457031 847.132812 476.511719 845.839844 476.53125 C 844.550781 476.554688 843.257812 476.542969 841.96875 476.5 C 840.675781 476.457031 839.386719 476.382812 838.097656 476.277344 C 836.8125 476.171875 835.527344 476.035156 834.246094 475.867188 C 832.964844 475.699219 831.691406 475.5 830.421875 475.269531 C 829.148438 475.035156 827.886719 474.773438 826.628906 474.480469 C 825.371094 474.1875 824.121094 473.863281 822.878906 473.507812 C 821.636719 473.152344 820.402344 472.769531 819.179688 472.351562 C 817.957031 471.9375 816.746094 471.492188 815.542969 471.019531 C 814.34375 470.542969 813.152344 470.039062 811.976562 469.503906 C 810.800781 468.972656 809.636719 468.410156 808.488281 467.820312 C 807.339844 467.230469 806.207031 466.609375 805.085938 465.964844 C 803.96875 465.316406 802.867188 464.644531 801.78125 463.945312 C 800.695312 463.242188 799.628906 462.515625 798.578125 461.765625 C 797.527344 461.011719 796.496094 460.234375 795.488281 459.429688 C 794.476562 458.625 793.484375 457.796875 792.511719 456.945312 C 791.542969 456.09375 790.59375 455.21875 789.664062 454.320312 C 788.734375 453.421875 787.832031 452.5 786.949219 451.554688 C 786.066406 450.613281 785.207031 449.648438 784.371094 448.664062 C 783.535156 447.675781 782.722656 446.671875 781.9375 445.644531 C 781.152344 444.621094 780.390625 443.574219 779.65625 442.511719 C 778.921875 441.449219 778.210938 440.371094 777.53125 439.273438 C 776.847656 438.175781 776.195312 437.0625 775.566406 435.929688 C 774.941406 434.800781 774.339844 433.65625 773.769531 432.496094 C 773.199219 431.335938 772.65625 430.164062 772.144531 428.980469 C 771.628906 427.792969 771.144531 426.59375 770.691406 425.386719 C 770.234375 424.175781 769.8125 422.957031 769.414062 421.722656 C 769.019531 420.492188 768.65625 419.253906 768.320312 418.003906 C 767.988281 416.757812 767.683594 415.5 767.414062 414.238281 C 767.140625 412.972656 766.898438 411.703125 766.6875 410.429688 C 766.476562 409.152344 766.300781 407.875 766.152344 406.589844 C 766.003906 405.304688 765.890625 404.019531 765.804688 402.726562 C 765.71875 401.4375 765.667969 400.148438 765.648438 398.855469 C 765.625 397.5625 765.636719 396.269531 765.679688 394.976562 C 765.722656 393.6875 765.796875 392.394531 765.902344 391.105469 C 766.007812 389.820312 766.144531 388.535156 766.3125 387.25 C 766.484375 385.96875 766.683594 384.695312 766.914062 383.421875 C 767.144531 382.148438 767.410156 380.882812 767.703125 379.625 C 767.996094 378.367188 768.320312 377.117188 768.675781 375.871094 C 769.03125 374.628906 769.414062 373.394531 769.832031 372.171875 C 770.246094 370.949219 770.691406 369.734375 771.164062 368.53125 C 771.640625 367.328125 772.144531 366.140625 772.679688 364.960938 C 773.210938 363.785156 773.773438 362.621094 774.363281 361.472656 C 774.953125 360.320312 775.574219 359.1875 776.21875 358.066406 C 776.863281 356.945312 777.539062 355.84375 778.238281 354.757812 C 778.9375 353.671875 779.664062 352.601562 780.417969 351.550781 C 781.167969 350.5 781.949219 349.46875 782.75 348.457031 C 783.554688 347.445312 784.382812 346.449219 785.234375 345.480469 C 786.085938 344.507812 786.960938 343.558594 787.859375 342.628906 C 788.757812 341.699219 789.679688 340.792969 790.621094 339.910156 C 791.5625 339.023438 792.527344 338.164062 793.511719 337.328125 C 794.496094 336.492188 795.503906 335.679688 796.527344 334.894531 C 797.554688 334.105469 798.597656 333.34375 799.660156 332.609375 C 800.722656 331.871094 801.800781 331.164062 802.898438 330.480469 C 803.996094 329.796875 805.109375 329.144531 806.238281 328.515625 C 807.367188 327.886719 808.511719 327.285156 809.667969 326.714844 C 810.828125 326.144531 812 325.601562 813.183594 325.085938 C 814.371094 324.570312 815.566406 324.085938 816.777344 323.628906 C 817.984375 323.175781 819.203125 322.75 820.433594 322.355469 C 821.664062 321.957031 822.902344 321.59375 824.152344 321.257812 C 825.398438 320.925781 826.652344 320.621094 827.917969 320.347656 C 829.179688 320.074219 830.449219 319.832031 831.722656 319.621094 C 832.996094 319.410156 834.273438 319.230469 835.558594 319.082031 C 836.84375 318.9375 838.128906 318.820312 839.417969 318.734375 C 840.707031 318.648438 841.996094 318.597656 843.289062 318.574219 C 844.578125 318.554688 845.871094 318.566406 847.160156 318.605469 C 848.453125 318.648438 849.742188 318.722656 851.027344 318.828125 C 852.316406 318.933594 853.601562 319.070312 854.882812 319.238281 C 856.160156 319.410156 857.4375 319.609375 858.707031 319.839844 C 859.980469 320.070312 861.242188 320.332031 862.5 320.625 C 863.757812 320.921875 865.007812 321.246094 866.25 321.597656 C 867.492188 321.953125 868.726562 322.339844 869.949219 322.753906 C 871.171875 323.167969 872.382812 323.613281 873.585938 324.089844 C 874.785156 324.566406 875.976562 325.070312 877.152344 325.601562 C 878.328125 326.136719 879.492188 326.699219 880.640625 327.289062 C 881.789062 327.878906 882.921875 328.496094 884.039062 329.144531 C 885.160156 329.789062 886.261719 330.464844 887.347656 331.164062 C 888.433594 331.863281 889.5 332.589844 890.550781 333.34375 C 891.597656 334.097656 892.628906 334.875 893.640625 335.679688 C 894.652344 336.480469 895.644531 337.308594 896.617188 338.160156 C 897.585938 339.015625 898.535156 339.890625 899.464844 340.789062 C 900.390625 341.6875 901.296875 342.609375 902.179688 343.550781 C 903.0625 344.496094 903.921875 345.460938 904.757812 346.445312 C 905.59375 347.429688 906.40625 348.4375 907.191406 349.460938 C 907.976562 350.488281 908.738281 351.53125 909.472656 352.59375 C 910.207031 353.65625 910.914062 354.738281 911.597656 355.835938 C 912.28125 356.933594 912.933594 358.046875 913.5625 359.175781 C 914.1875 360.308594 914.789062 361.453125 915.359375 362.609375 C 915.929688 363.769531 916.472656 364.941406 916.984375 366.128906 C 917.5 367.316406 917.984375 368.511719 918.4375 369.722656 C 918.894531 370.933594 919.316406 372.152344 919.710938 373.382812 C 920.109375 374.613281 920.472656 375.855469 920.804688 377.101562 C 921.140625 378.351562 921.445312 379.605469 921.714844 380.871094 C 921.988281 382.132812 922.230469 383.402344 922.441406 384.679688 C 922.648438 385.953125 922.828125 387.234375 922.976562 388.519531 C 923.125 389.800781 923.238281 391.089844 923.324219 392.378906 C 923.40625 393.667969 923.460938 394.960938 923.480469 396.253906 C 923.503906 397.546875 923.492188 398.839844 923.449219 400.128906 C 923.40625 401.421875 923.332031 402.710938 923.226562 404 C 923.121094 405.289062 922.984375 406.574219 922.816406 407.855469 C 922.644531 409.136719 922.445312 410.414062 922.214844 411.6875 Z M 922.214844 411.6875 " fill-opacity="1" fill-rule="nonzero"/></g></g></g></g><g clip-path="url(#1da8319a8c)"><g clip-path="url(#d383d81aeb)"><g clip-path="url(#3ad267cac7)"><g clip-path="url(#e15792bc15)"><path fill="#fc657e" d="M 876.652344 417.59375 C 875.265625 415.617188 873.480469 413.667969 871.1875 411.882812 C 868.566406 409.84375 866.761719 406.9375 866.007812 403.699219 C 865.210938 400.273438 863.945312 397.136719 862.21875 394.375 C 854.886719 382.628906 840.1875 379.945312 829.175781 388.34375 C 826.585938 390.320312 824.289062 392.816406 822.328125 395.753906 C 820.484375 398.519531 817.773438 400.601562 814.597656 401.585938 C 811.824219 402.449219 809.46875 403.644531 807.46875 405.003906 C 799.097656 410.71875 796.511719 422.097656 801.964844 430.636719 C 807.347656 439.070312 817.523438 441.324219 825.484375 437.457031 C 828.0625 436.203125 830.550781 435.433594 832.753906 434.976562 C 836.085938 434.277344 839.558594 434.910156 842.429688 436.734375 C 844.328125 437.945312 846.386719 439.539062 848.359375 441.621094 C 854.445312 448.042969 864.761719 449.523438 872.773438 443.523438 C 880.886719 437.449219 882.476562 425.890625 876.652344 417.59375 Z M 876.652344 417.59375 " fill-opacity="1" fill-rule="nonzero"/></g></g></g></g><g clip-path="url(#cd16f0b3e4)"><g clip-path="url(#3ad07a17d6)"><g clip-path="url(#4e1cd36886)"><g clip-path="url(#8ec16ed173)"><path fill="#fc657e" d="M 893.949219 381.796875 C 889.3125 379.039062 883.265625 380.234375 880.195312 384.671875 C 879.496094 385.683594 878.886719 386.8125 878.402344 388.035156 C 875.695312 394.886719 877.871094 402.175781 883.269531 404.3125 C 888.667969 406.449219 895.242188 402.625 897.949219 395.773438 C 898.46875 394.460938 898.808594 393.132812 898.980469 391.828125 C 899.507812 387.800781 897.4375 383.871094 893.949219 381.796875 Z M 893.949219 381.796875 " fill-opacity="1" fill-rule="nonzero"/></g></g></g></g><g clip-path="url(#80d958f5a8)"><g clip-path="url(#296416e094)"><g clip-path="url(#78391e4395)"><g clip-path="url(#35ada0dabc)"><path fill="#fc657e" d="M 881.691406 369.113281 C 882.269531 364.257812 879.710938 359.5625 875.511719 357.066406 L 875.488281 357.050781 C 869.9375 353.75 862.652344 355.023438 858.871094 360.261719 C 857.914062 361.585938 857.09375 363.074219 856.449219 364.703125 C 853.128906 373.101562 855.796875 382.027344 862.414062 384.648438 C 869.027344 387.265625 877.082031 382.582031 880.402344 374.183594 C 881.066406 372.5 881.492188 370.789062 881.691406 369.113281 Z M 881.691406 369.113281 " fill-opacity="1" fill-rule="nonzero"/></g></g></g></g><g clip-path="url(#b81be3a971)"><g clip-path="url(#1f8fe71771)"><g clip-path="url(#d136bff26c)"><g clip-path="url(#f4932b6d41)"><path fill="#fc657e" d="M 816.25 376.722656 C 816.226562 375.40625 816.058594 374.136719 815.757812 372.941406 C 814.445312 367.710938 809.207031 364.460938 803.902344 365.40625 C 799.902344 366.117188 796.582031 369.066406 795.65625 373.023438 C 795.359375 374.304688 795.207031 375.667969 795.230469 377.078125 C 795.351562 384.445312 800.15625 390.339844 805.960938 390.242188 C 811.765625 390.144531 816.371094 384.089844 816.25 376.722656 Z M 816.25 376.722656 " fill-opacity="1" fill-rule="nonzero"/></g></g></g></g><g clip-path="url(#d1f520a8d1)"><g clip-path="url(#47ca4e6979)"><g clip-path="url(#a60878caa3)"><g clip-path="url(#c073276762)"><path fill="#fc657e" d="M 845.015625 362.625 C 844.988281 360.875 844.742188 359.1875 844.3125 357.613281 C 842.617188 351.378906 836.253906 347.621094 829.898438 348.753906 C 824.789062 349.664062 820.6875 353.566406 819.660156 358.65625 C 819.375 360.058594 819.234375 361.535156 819.261719 363.058594 C 819.410156 372.089844 825.296875 379.308594 832.410156 379.1875 C 839.519531 379.066406 845.167969 371.652344 845.015625 362.625 Z M 845.015625 362.625 " fill-opacity="1" fill-rule="nonzero"/></g></g></g></g><g clip-path="url(#acbdb67d38)"><g clip-path="url(#a43967be4b)"><g clip-path="url(#7e02f46901)"><g clip-path="url(#c2ee71a837)"><path fill="#000000" d="M 649.011719 199.960938 C 640.757812 198.457031 634.828125 190.992188 635.214844 182.597656 C 635.421875 178.097656 637.367188 173.949219 640.695312 170.914062 C 644.019531 167.878906 648.328125 166.320312 652.824219 166.527344 L 654.90625 166.621094 C 659.40625 166.824219 663.546875 168.773438 666.578125 172.101562 C 669.613281 175.429688 671.167969 179.742188 670.960938 184.238281 C 670.53125 193.527344 662.632812 200.738281 653.351562 200.3125 L 651.269531 200.214844 C 650.519531 200.179688 649.757812 200.09375 649.011719 199.960938 Z M 655.574219 175.609375 C 655.222656 175.542969 654.863281 175.503906 654.5 175.484375 L 652.414062 175.390625 C 648.019531 175.1875 644.277344 178.605469 644.074219 183.003906 C 643.875 187.339844 647.226562 191.160156 651.675781 191.347656 L 653.761719 191.445312 C 658.160156 191.648438 661.898438 188.230469 662.101562 183.832031 C 662.199219 181.703125 661.464844 179.660156 660.027344 178.078125 C 658.835938 176.773438 657.285156 175.917969 655.574219 175.609375 Z M 655.574219 175.609375 " fill-opacity="1" fill-rule="nonzero"/></g></g></g></g><g clip-path="url(#bbbd94d748)"><g clip-path="url(#5064df08df)"><g clip-path="url(#490dea7579)"><g clip-path="url(#1099b2d64e)"><path fill="#000000" d="M 631.054688 429.152344 C 630.886719 429.121094 630.714844 429.089844 630.542969 429.050781 C 621.730469 427.171875 615.917969 418.191406 617.585938 409.03125 L 623.132812 378.542969 C 623.765625 375.082031 622.417969 371.523438 619.621094 369.257812 C 608.125 359.953125 598.097656 349.734375 589.808594 338.886719 C 587 335.21875 585.839844 330.679688 586.535156 326.109375 C 587.230469 321.539062 589.691406 317.550781 593.46875 314.871094 C 600.867188 309.628906 611.152344 311.351562 616.882812 318.792969 C 621.308594 324.535156 626.417969 330.125 632.070312 335.417969 C 640.410156 343.210938 652.671875 345.402344 663.308594 340.988281 C 670.558594 337.980469 677.386719 334.488281 683.605469 330.601562 C 687.484375 328.175781 692.066406 327.425781 696.519531 328.523438 C 700.964844 329.605469 704.695312 332.375 707.027344 336.324219 C 711.664062 344.164062 708.945312 354.5625 700.964844 359.507812 C 689.507812 366.605469 676.667969 372.539062 662.804688 377.136719 C 659.414062 378.257812 656.921875 381.101562 656.292969 384.558594 L 650.648438 415.578125 C 649.824219 420.105469 647.265625 424.007812 643.449219 426.570312 C 639.773438 429.03125 635.390625 429.941406 631.054688 429.152344 Z M 604.445312 320.890625 C 602.414062 320.523438 600.304688 320.898438 598.59375 322.113281 C 596.800781 323.386719 595.632812 325.277344 595.304688 327.441406 C 594.976562 329.605469 595.523438 331.753906 596.855469 333.492188 C 604.714844 343.785156 614.25 353.492188 625.199219 362.359375 C 630.519531 366.664062 633.070312 373.472656 631.859375 380.128906 L 626.308594 410.621094 C 625.492188 415.105469 628.222656 419.480469 632.394531 420.371094 C 634.519531 420.867188 636.703125 420.410156 638.507812 419.195312 C 640.320312 417.980469 641.53125 416.132812 641.917969 413.988281 L 647.566406 382.96875 C 648.777344 376.316406 653.546875 370.851562 660.015625 368.707031 C 673.222656 364.328125 685.425781 358.695312 696.296875 351.960938 C 700.199219 349.542969 701.589844 344.554688 699.394531 340.839844 C 698.289062 338.96875 696.519531 337.65625 694.414062 337.144531 C 692.296875 336.644531 690.136719 336.980469 688.300781 338.128906 C 681.667969 342.269531 674.402344 345.992188 666.703125 349.183594 C 652.863281 354.929688 636.890625 352.070312 626.015625 341.898438 C 620.015625 336.285156 614.578125 330.332031 609.863281 324.210938 C 608.464844 322.402344 606.496094 321.265625 604.445312 320.890625 Z M 604.445312 320.890625 " fill-opacity="1" fill-rule="nonzero"/></g></g></g></g><g clip-path="url(#e15e2ac46d)"><g clip-path="url(#a4a28ead3e)"><g clip-path="url(#4f5735720f)"><g clip-path="url(#5e3e874c8a)"><path fill="#000000" d="M 694.988281 208.328125 C 694.242188 208.191406 693.503906 208.003906 692.785156 207.769531 L 690.800781 207.125 C 681.964844 204.253906 677.113281 194.726562 679.984375 185.878906 C 682.855469 177.042969 692.378906 172.171875 701.214844 175.046875 L 703.203125 175.691406 C 712.039062 178.5625 716.890625 188.09375 714.019531 196.9375 C 711.421875 204.933594 703.242188 209.828125 694.988281 208.328125 Z M 693.542969 198.683594 L 695.527344 199.328125 C 699.773438 200.691406 704.242188 198.324219 705.582031 194.199219 C 706.945312 190.011719 704.644531 185.496094 700.460938 184.132812 L 698.476562 183.488281 C 694.296875 182.140625 689.777344 184.433594 688.417969 188.621094 C 687.058594 192.808594 689.355469 197.324219 693.542969 198.683594 Z M 693.542969 198.683594 " fill-opacity="1" fill-rule="nonzero"/></g></g></g></g><g clip-path="url(#e79717b242)"><g clip-path="url(#f865069f1b)"><g clip-path="url(#4121b6b0b2)"><g clip-path="url(#dc3d31b752)"><path fill="#000000" d="M 703.867188 351.820312 C 703.292969 351.714844 702.738281 351.5 702.226562 351.164062 C 700.703125 350.164062 699.949219 348.328125 700.324219 346.542969 C 700.75 344.507812 700.386719 342.425781 699.292969 340.675781 C 698.101562 338.765625 696.214844 337.484375 693.980469 337.066406 C 692.234375 336.738281 690.851562 335.398438 690.464844 333.664062 C 690.082031 331.925781 690.769531 330.128906 692.21875 329.09375 C 728 303.496094 740.222656 266.484375 744.175781 239.9375 C 745.753906 229.335938 739.535156 219.246094 729.390625 215.945312 L 702.128906 207.078125 C 700.414062 206.523438 699.207031 204.980469 699.078125 203.183594 C 698.949219 201.382812 699.917969 199.683594 701.53125 198.882812 C 703.472656 197.917969 704.914062 196.253906 705.582031 194.199219 C 706.25 192.144531 706.0625 189.953125 705.058594 188.03125 C 704.222656 186.433594 704.4375 184.488281 705.601562 183.113281 C 706.765625 181.738281 708.636719 181.210938 710.359375 181.757812 L 737.621094 190.625 C 760.167969 197.957031 773.992188 220.347656 770.488281 243.855469 C 765.75 275.671875 750.929688 320.101562 707.222656 351.078125 C 706.230469 351.78125 705.019531 352.03125 703.867188 351.820312 Z M 703.222656 331.882812 C 704.625 333.035156 705.84375 334.410156 706.820312 335.972656 C 707.445312 336.980469 707.960938 338.039062 708.359375 339.136719 C 744.695312 310.289062 757.472656 271.078125 761.722656 242.546875 C 764.582031 223.339844 753.292969 205.050781 734.878906 199.0625 L 714.828125 192.539062 C 714.753906 194.015625 714.484375 195.492188 714.015625 196.9375 C 713.546875 198.386719 712.894531 199.742188 712.085938 200.980469 L 732.136719 207.503906 C 746.414062 212.148438 755.167969 226.339844 752.949219 241.242188 C 748.964844 268 737.039062 304.785156 703.222656 331.882812 Z M 709.800781 195.570312 L 709.820312 195.574219 Z M 709.800781 195.570312 " fill-opacity="1" fill-rule="nonzero"/></g></g></g></g><g clip-path="url(#578401762e)"><g clip-path="url(#2b1095f027)"><g clip-path="url(#e2f3157eb7)"><g clip-path="url(#4a0596ad7d)"><path fill="#000000" d="M 590.136719 331.117188 C 588.988281 330.90625 587.941406 330.246094 587.257812 329.234375 C 557.273438 284.851562 559.054688 238.050781 565.832031 206.605469 C 570.839844 183.367188 591.664062 167.289062 615.347656 168.371094 L 643.984375 169.675781 C 645.785156 169.769531 647.355469 170.921875 647.957031 172.621094 C 648.5625 174.320312 648.078125 176.214844 646.734375 177.417969 C 645.121094 178.863281 644.171875 180.84375 644.074219 183 C 643.972656 185.164062 644.734375 187.222656 646.210938 188.8125 C 647.441406 190.128906 647.75 192.0625 646.992188 193.699219 C 646.234375 195.335938 644.5625 196.355469 642.765625 196.273438 L 614.128906 194.96875 C 603.46875 194.480469 594.097656 201.734375 591.835938 212.214844 C 586.183594 238.445312 584.582031 277.390625 609.046875 313.953125 C 610.035156 315.429688 610.046875 317.355469 609.074219 318.847656 C 608.105469 320.335938 606.335938 321.101562 604.585938 320.789062 C 602.351562 320.390625 600.132812 320.925781 598.347656 322.296875 C 596.707031 323.550781 595.628906 325.371094 595.3125 327.421875 C 595.035156 329.226562 593.679688 330.679688 591.902344 331.078125 C 591.3125 331.210938 590.710938 331.222656 590.136719 331.117188 Z M 636.003906 178.195312 L 614.941406 177.234375 C 595.601562 176.351562 578.589844 189.488281 574.5 208.476562 C 568.425781 236.667969 566.566406 277.863281 590.402344 317.664062 C 591.160156 316.777344 592.015625 315.96875 592.957031 315.246094 C 594.421875 314.125 596.046875 313.269531 597.765625 312.683594 C 575.667969 275.40625 577.46875 236.785156 583.167969 210.34375 C 586.34375 195.613281 599.535156 185.414062 614.535156 186.097656 L 635.59375 187.058594 C 635.273438 185.613281 635.140625 184.113281 635.210938 182.59375 C 635.285156 181.078125 635.550781 179.601562 636.003906 178.195312 Z M 636.003906 178.195312 " fill-opacity="1" fill-rule="nonzero"/></g></g></g></g><g clip-path="url(#18a903cd12)"><g clip-path="url(#bc00e2e59c)"><g clip-path="url(#229e9f607f)"><g clip-path="url(#5ace15ed45)"><path fill="#000000" d="M 698.601562 628.765625 C 635.941406 617.363281 594.246094 557.0625 605.660156 494.351562 L 619.457031 418.542969 C 619.785156 416.75 621.171875 415.335938 622.960938 414.984375 C 624.75 414.632812 626.570312 415.410156 627.554688 416.941406 C 628.703125 418.734375 630.421875 419.949219 632.394531 420.371094 C 634.59375 420.863281 636.828125 420.378906 638.675781 419.070312 C 640.144531 418.027344 642.101562 417.980469 643.621094 418.945312 C 645.140625 419.917969 645.921875 421.710938 645.601562 423.484375 L 631.835938 499.117188 C 623.050781 547.382812 655.140625 593.792969 703.367188 602.574219 C 751.597656 611.351562 797.980469 579.222656 806.765625 530.953125 L 807.816406 525.183594 C 808.136719 523.40625 809.503906 522.003906 811.265625 521.632812 C 813.03125 521.261719 814.84375 521.996094 815.851562 523.488281 C 817.066406 525.285156 818.902344 526.488281 821.027344 526.875 C 823.152344 527.261719 825.296875 526.78125 827.066406 525.527344 C 828.539062 524.488281 830.488281 524.4375 832.011719 525.410156 C 833.53125 526.378906 834.3125 528.171875 833.988281 529.945312 L 832.9375 535.71875 C 821.527344 598.429688 761.261719 640.171875 698.601562 628.765625 Z M 626.792969 427.761719 L 614.386719 495.9375 C 603.847656 553.835938 642.339844 609.507812 700.191406 620.035156 C 757.476562 630.460938 812.589844 592.777344 823.894531 535.824219 C 820.949219 536.074219 817.839844 535.503906 815.167969 534.226562 C 804.746094 586.371094 754.257812 620.851562 701.777344 611.300781 C 648.738281 601.648438 613.449219 550.609375 623.109375 497.527344 L 635.519531 429.351562 C 633.867188 429.5 632.183594 429.40625 630.546875 429.050781 C 629.234375 428.773438 627.976562 428.335938 626.792969 427.761719 Z M 626.792969 427.761719 " fill-opacity="1" fill-rule="nonzero"/></g></g></g></g><g clip-path="url(#285a938b6b)"><g clip-path="url(#0ee9e4800d)"><g clip-path="url(#824e227c14)"><g clip-path="url(#5a6723a0b8)"><path fill="#000000" d="M 819.441406 535.605469 C 810.300781 533.941406 804.21875 525.144531 805.882812 516 L 814.019531 471.285156 C 814.253906 470.007812 815.03125 468.898438 816.152344 468.246094 C 817.273438 467.589844 818.617188 467.460938 819.851562 467.890625 C 827.277344 470.496094 835.042969 471.910156 842.917969 472.089844 C 844.210938 472.121094 845.429688 472.71875 846.25 473.722656 C 847.070312 474.730469 847.410156 476.042969 847.175781 477.320312 L 839.039062 522.03125 C 837.371094 531.179688 828.582031 537.269531 819.441406 535.605469 Z M 821.84375 477.828125 L 814.609375 517.585938 C 813.820312 521.917969 816.699219 526.085938 821.03125 526.875 C 825.359375 527.660156 829.523438 524.777344 830.3125 520.445312 L 837.546875 480.683594 C 832.214844 480.234375 826.992188 479.285156 821.84375 477.828125 Z M 821.84375 477.828125 " fill-opacity="1" fill-rule="nonzero"/></g></g></g></g><g clip-path="url(#770f88badf)"><g clip-path="url(#46e3560950)"><g clip-path="url(#0be417edac)"><g clip-path="url(#b28ed31b40)"><path fill="#000000" d="M 838.332031 501.152344 C 837.273438 500.960938 836.316406 500.386719 835.644531 499.535156 C 834.855469 498.535156 834.535156 497.246094 834.761719 495.992188 L 837.546875 480.683594 C 832.214844 480.234375 826.992188 479.285156 821.84375 477.828125 L 819.058594 493.136719 C 818.828125 494.386719 818.074219 495.480469 816.984375 496.140625 C 815.898438 496.796875 814.585938 496.957031 813.367188 496.574219 C 763.597656 480.945312 733.128906 430.390625 742.488281 378.976562 C 752.738281 322.644531 806.875 285.144531 863.160156 295.390625 C 919.445312 305.636719 956.898438 359.800781 946.644531 416.132812 C 937.289062 467.546875 890.957031 504.125 838.878906 501.214844 C 838.691406 501.207031 838.507812 501.1875 838.332031 501.152344 Z M 861.570312 304.121094 C 810.09375 294.753906 760.589844 329.046875 751.210938 380.5625 C 742.957031 425.917969 768.589844 470.539062 811.257812 486.46875 L 814.019531 471.289062 C 814.253906 470.011719 815.03125 468.898438 816.152344 468.246094 C 817.273438 467.59375 818.617188 467.464844 819.851562 467.894531 C 827.277344 470.496094 835.042969 471.910156 842.917969 472.09375 C 844.210938 472.121094 845.429688 472.71875 846.25 473.726562 C 847.070312 474.730469 847.410156 476.046875 847.175781 477.320312 L 844.414062 492.503906 C 889.957031 492.632812 929.667969 459.898438 937.921875 414.546875 C 947.296875 363.027344 913.046875 313.492188 861.570312 304.121094 Z M 861.570312 304.121094 " fill-opacity="1" fill-rule="nonzero"/></g></g></g></g><g clip-path="url(#3783d5f8bb)"><g clip-path="url(#010a29d6d7)"><g clip-path="url(#421ef7039e)"><g clip-path="url(#e666e14f9b)"><path fill="#87d147" d="M 527.917969 474.113281 L 531.929688 474.84375 L 531.199219 478.859375 C 530.625 482.003906 532.625 484.890625 535.765625 485.464844 C 538.730469 486.003906 541.792969 484.035156 542.335938 481.066406 L 542.367188 480.890625 L 543.097656 476.875 L 547.109375 477.605469 C 550.25 478.175781 553.140625 476.175781 553.710938 473.03125 C 554.25 470.0625 552.285156 467 549.320312 466.460938 L 549.144531 466.429688 L 545.132812 465.699219 L 545.863281 461.679688 C 546.433594 458.539062 544.4375 455.648438 541.296875 455.078125 C 538.328125 454.535156 535.265625 456.503906 534.726562 459.472656 L 534.695312 459.648438 L 533.964844 463.664062 L 529.949219 462.933594 C 526.808594 462.363281 523.921875 464.363281 523.347656 467.507812 C 522.632812 470.445312 524.601562 473.507812 527.917969 474.113281 C 527.742188 474.082031 527.742188 474.082031 527.917969 474.113281 Z M 527.917969 474.113281 " fill-opacity="1" fill-rule="nonzero"/></g></g></g></g><g clip-path="url(#ac3292c8fa)"><g clip-path="url(#1845a4c9df)"><g clip-path="url(#1018bfbfa9)"><g clip-path="url(#2fa55c5fcd)"><path fill="#f5c84c" d="M 564.058594 560.796875 C 563.988281 561.1875 563.878906 561.566406 563.734375 561.933594 C 563.589844 562.304688 563.40625 562.65625 563.191406 562.988281 C 562.980469 563.320312 562.734375 563.628906 562.457031 563.914062 C 562.183594 564.199219 561.882812 564.453125 561.554688 564.679688 C 561.230469 564.90625 560.886719 565.097656 560.523438 565.253906 C 560.160156 565.414062 559.785156 565.535156 559.398438 565.617188 C 559.011719 565.699219 558.617188 565.746094 558.222656 565.753906 C 557.828125 565.757812 557.433594 565.726562 557.046875 565.65625 C 556.65625 565.585938 556.277344 565.476562 555.910156 565.332031 C 555.539062 565.183594 555.191406 565.003906 554.855469 564.789062 C 554.523438 564.574219 554.214844 564.332031 553.929688 564.054688 C 553.648438 563.78125 553.390625 563.480469 553.167969 563.152344 C 552.941406 562.828125 552.75 562.484375 552.59375 562.117188 C 552.433594 561.753906 552.3125 561.378906 552.230469 560.992188 C 552.148438 560.605469 552.101562 560.214844 552.097656 559.816406 C 552.089844 559.421875 552.121094 559.027344 552.191406 558.636719 C 552.265625 558.25 552.371094 557.871094 552.519531 557.5 C 552.664062 557.132812 552.84375 556.78125 553.058594 556.449219 C 553.273438 556.113281 553.519531 555.804688 553.792969 555.519531 C 554.070312 555.238281 554.367188 554.980469 554.695312 554.757812 C 555.019531 554.53125 555.363281 554.339844 555.726562 554.179688 C 556.089844 554.023438 556.464844 553.902344 556.855469 553.820312 C 557.242188 553.734375 557.632812 553.691406 558.027344 553.683594 C 558.425781 553.675781 558.816406 553.710938 559.207031 553.78125 C 559.597656 553.851562 559.976562 553.960938 560.34375 554.105469 C 560.710938 554.25 561.0625 554.429688 561.394531 554.644531 C 561.726562 554.859375 562.035156 555.105469 562.320312 555.378906 C 562.605469 555.65625 562.859375 555.957031 563.085938 556.28125 C 563.308594 556.609375 563.5 556.953125 563.660156 557.316406 C 563.816406 557.679688 563.9375 558.054688 564.019531 558.441406 C 564.105469 558.832031 564.148438 559.222656 564.15625 559.617188 C 564.160156 560.015625 564.128906 560.40625 564.058594 560.796875 Z M 564.058594 560.796875 " fill-opacity="1" fill-rule="nonzero"/></g></g></g></g><g clip-path="url(#240b9b2eb5)"><g clip-path="url(#57fdb6daf4)"><g clip-path="url(#57b0897ee5)"><g clip-path="url(#dc12551eeb)"><path fill="#70d6f9" d="M 890.289062 566.542969 C 885.070312 564.507812 881.472656 559.523438 881.410156 553.917969 C 881.441406 553.746094 880.917969 553.648438 880.886719 553.824219 C 878.855469 559.046875 873.730469 562.445312 868.128906 562.507812 C 867.953125 562.476562 867.890625 562.824219 868.035156 563.03125 C 873.253906 565.0625 876.851562 570.050781 876.914062 575.652344 C 876.882812 575.828125 877.40625 575.921875 877.4375 575.75 C 879.46875 570.527344 884.59375 567.128906 890.195312 567.066406 C 890.402344 566.921875 890.464844 566.574219 890.289062 566.542969 Z M 890.289062 566.542969 " fill-opacity="1" fill-rule="nonzero"/></g></g></g></g><g clip-path="url(#c8cf4c3904)"><g clip-path="url(#11784dca49)"><g clip-path="url(#553969b0de)"><g clip-path="url(#4aad93e122)"><path fill="#fc657e" d="M 807.972656 192.921875 C 807.902344 193.3125 807.792969 193.691406 807.648438 194.0625 C 807.503906 194.429688 807.324219 194.78125 807.109375 195.113281 C 806.894531 195.445312 806.648438 195.753906 806.375 196.039062 C 806.097656 196.324219 805.796875 196.578125 805.472656 196.804688 C 805.148438 197.03125 804.800781 197.222656 804.4375 197.378906 C 804.074219 197.539062 803.699219 197.660156 803.3125 197.742188 C 802.925781 197.824219 802.535156 197.871094 802.140625 197.878906 C 801.742188 197.882812 801.351562 197.851562 800.960938 197.78125 C 800.570312 197.710938 800.191406 197.601562 799.824219 197.457031 C 799.457031 197.3125 799.105469 197.128906 798.773438 196.914062 C 798.441406 196.703125 798.132812 196.457031 797.847656 196.179688 C 797.5625 195.90625 797.308594 195.605469 797.082031 195.277344 C 796.855469 194.953125 796.664062 194.609375 796.507812 194.246094 C 796.351562 193.882812 796.230469 193.503906 796.144531 193.117188 C 796.0625 192.730469 796.019531 192.339844 796.011719 191.941406 C 796.003906 191.546875 796.039062 191.152344 796.109375 190.761719 C 796.179688 190.375 796.289062 189.996094 796.433594 189.625 C 796.578125 189.257812 796.757812 188.90625 796.972656 188.574219 C 797.1875 188.242188 797.433594 187.929688 797.707031 187.648438 C 797.984375 187.363281 798.285156 187.105469 798.609375 186.882812 C 798.9375 186.65625 799.28125 186.464844 799.644531 186.304688 C 800.007812 186.148438 800.382812 186.027344 800.769531 185.945312 C 801.15625 185.859375 801.546875 185.816406 801.945312 185.808594 C 802.339844 185.800781 802.730469 185.835938 803.121094 185.90625 C 803.511719 185.976562 803.890625 186.085938 804.257812 186.230469 C 804.625 186.375 804.976562 186.554688 805.308594 186.769531 C 805.644531 186.984375 805.953125 187.230469 806.234375 187.507812 C 806.519531 187.78125 806.773438 188.082031 807 188.410156 C 807.226562 188.734375 807.417969 189.078125 807.574219 189.441406 C 807.730469 189.804688 807.851562 190.179688 807.9375 190.570312 C 808.019531 190.957031 808.0625 191.347656 808.070312 191.742188 C 808.078125 192.140625 808.042969 192.535156 807.972656 192.921875 Z M 807.972656 192.921875 " fill-opacity="1" fill-rule="nonzero"/></g></g></g></g><g clip-path="url(#32ec6bc36a)"><g clip-path="url(#7d5ce6e6c3)"><g clip-path="url(#9534d9cc36)"><g clip-path="url(#1beb8e2c6f)"><path fill="#f5c84c" d="M 857.199219 241.214844 C 865.304688 241.246094 872.523438 236.246094 875.492188 228.847656 C 875.558594 228.496094 876.253906 228.625 876.191406 228.972656 C 876.363281 236.945312 881.359375 244.167969 888.957031 246.996094 C 889.304688 247.058594 889.210938 247.582031 888.828125 247.691406 C 880.722656 247.660156 873.503906 252.660156 870.535156 260.058594 C 870.472656 260.410156 869.773438 260.28125 869.835938 259.933594 C 869.664062 251.964844 864.667969 244.738281 857.070312 241.914062 C 856.753906 241.675781 856.851562 241.152344 857.199219 241.214844 Z M 857.199219 241.214844 " fill-opacity="1" fill-rule="nonzero"/></g></g></g></g><g clip-path="url(#87185998fd)"><g clip-path="url(#6fab83beb5)"><g clip-path="url(#2a02bc02cc)"><g clip-path="url(#58a8fdf514)"><path fill="#000000" d="M 829.628906 479.632812 C 784.40625 471.402344 754.316406 427.886719 762.554688 382.628906 C 770.789062 337.367188 814.28125 307.242188 859.503906 315.472656 C 904.726562 323.703125 934.816406 367.222656 926.578125 412.480469 C 918.339844 457.738281 874.847656 487.863281 829.628906 479.632812 Z M 857.914062 324.207031 C 817.503906 316.851562 778.640625 343.769531 771.277344 384.214844 C 763.917969 424.660156 790.804688 463.546875 831.214844 470.902344 C 871.628906 478.257812 910.492188 451.335938 917.851562 410.890625 C 925.214844 370.449219 898.328125 331.5625 857.914062 324.207031 Z M 857.914062 324.207031 " fill-opacity="1" fill-rule="nonzero"/></g></g></g></g><g clip-path="url(#e2f3b995cc)"><g clip-path="url(#1d80cb21d4)"><g clip-path="url(#d5bb50132f)"><g clip-path="url(#a85e953ffb)"><path fill="#000000" d="M 813.539062 443.339844 C 807.441406 442.230469 801.8125 438.640625 798.230469 433.027344 C 791.589844 422.621094 794.613281 408.40625 804.976562 401.339844 C 807.488281 399.625 810.285156 398.28125 813.289062 397.347656 C 815.441406 396.675781 817.34375 395.238281 818.644531 393.289062 C 820.890625 389.925781 823.53125 387.074219 826.492188 384.816406 C 832.816406 379.988281 840.40625 378.082031 847.863281 379.4375 C 847.867188 379.4375 847.871094 379.4375 847.875 379.4375 C 855.335938 380.800781 861.765625 385.265625 865.984375 392.019531 C 867.953125 395.175781 869.414062 398.765625 870.328125 402.6875 C 870.859375 404.976562 872.132812 406.996094 873.910156 408.378906 C 876.394531 410.3125 878.539062 412.554688 880.285156 415.042969 C 887.492188 425.308594 885.3125 439.679688 875.429688 447.074219 C 866.089844 454.070312 853.070312 453.039062 845.148438 444.671875 C 843.640625 443.082031 841.921875 441.667969 840.054688 440.476562 C 838.148438 439.265625 835.878906 438.851562 833.664062 439.316406 C 831.496094 439.769531 829.394531 440.488281 827.417969 441.445312 C 822.972656 443.605469 818.125 444.171875 813.539062 443.339844 Z M 846.273438 388.167969 C 841.300781 387.265625 836.183594 388.578125 831.867188 391.871094 C 829.683594 393.539062 827.714844 395.671875 826.015625 398.21875 C 823.59375 401.851562 820.007812 404.550781 815.914062 405.824219 C 813.753906 406.492188 811.753906 407.449219 809.972656 408.667969 C 803.53125 413.0625 801.617188 421.84375 805.703125 428.246094 C 810.148438 435.199219 818.042969 436.136719 823.550781 433.460938 C 826.175781 432.183594 828.96875 431.234375 831.847656 430.628906 C 836.339844 429.6875 840.941406 430.527344 844.8125 432.984375 C 847.296875 434.570312 849.570312 436.445312 851.582031 438.5625 C 855.792969 443.007812 863.515625 444.914062 870.121094 439.96875 C 876.203125 435.417969 877.503906 426.527344 873.027344 420.148438 C 873.023438 420.144531 873.023438 420.144531 873.023438 420.144531 C 871.785156 418.378906 870.25 416.777344 868.464844 415.386719 C 865.085938 412.761719 862.683594 408.964844 861.6875 404.703125 C 860.996094 401.734375 859.910156 399.050781 858.460938 396.722656 C 855.582031 392.113281 851.253906 389.074219 846.28125 388.167969 C 846.277344 388.167969 846.277344 388.167969 846.273438 388.167969 Z M 846.273438 388.167969 " fill-opacity="1" fill-rule="nonzero"/></g></g></g></g><g clip-path="url(#7155c119a8)"><g clip-path="url(#0056aedf13)"><g clip-path="url(#21d5e8b7c6)"><g clip-path="url(#1ae038c6f4)"><path fill="#000000" d="M 884.03125 409.121094 C 883.222656 408.976562 882.421875 408.75 881.636719 408.4375 C 873.976562 405.40625 870.675781 395.519531 874.277344 386.40625 C 874.882812 384.886719 875.644531 383.449219 876.550781 382.140625 C 880.914062 375.84375 889.554688 374.019531 896.214844 377.980469 C 901.320312 381.015625 904.128906 386.675781 903.375 392.40625 C 903.152344 394.097656 902.714844 395.78125 902.070312 397.402344 C 898.835938 405.585938 891.121094 410.414062 884.03125 409.121094 Z M 889.667969 384.851562 C 887.457031 384.449219 885.148438 385.304688 883.839844 387.199219 C 883.320312 387.949219 882.875 388.78125 882.523438 389.671875 C 880.753906 394.15625 881.839844 398.972656 884.902344 400.183594 C 887.972656 401.398438 892.054688 398.628906 893.828125 394.144531 C 894.199219 393.195312 894.457031 392.21875 894.585938 391.25 C 894.871094 389.078125 893.707031 386.8125 891.6875 385.609375 C 891.042969 385.230469 890.359375 384.980469 889.667969 384.851562 Z M 889.667969 384.851562 " fill-opacity="1" fill-rule="nonzero"/></g></g></g></g><g clip-path="url(#dfccfec147)"><g clip-path="url(#8b3bd5d352)"><g clip-path="url(#8b0e94fe2a)"><g clip-path="url(#41f9ce9986)"><path fill="#000000" d="M 863.527344 389.558594 C 862.589844 389.386719 861.671875 389.128906 860.777344 388.777344 C 851.902344 385.261719 848.109375 373.730469 852.324219 363.074219 C 853.09375 361.128906 854.089844 359.308594 855.28125 357.660156 C 860.320312 350.6875 870.191406 348.738281 877.75 353.234375 C 883.605469 356.710938 886.871094 363.144531 886.097656 369.636719 C 885.847656 371.730469 885.316406 373.808594 884.523438 375.816406 C 882.550781 380.800781 879.125 384.910156 874.871094 387.382812 C 871.25 389.488281 867.246094 390.234375 863.527344 389.558594 Z M 870.40625 359.816406 C 867.390625 359.265625 864.257812 360.375 862.464844 362.863281 C 861.703125 363.914062 861.066406 365.082031 860.566406 366.335938 C 858.195312 372.339844 859.785156 378.835938 864.042969 380.523438 C 865.941406 381.285156 868.210938 380.992188 870.414062 379.710938 C 872.914062 378.253906 875.050781 375.644531 876.273438 372.554688 C 876.789062 371.257812 877.128906 369.921875 877.289062 368.589844 C 877.648438 365.578125 876.058594 362.550781 873.246094 360.882812 C 872.34375 360.347656 871.382812 359.992188 870.40625 359.816406 Z M 870.40625 359.816406 " fill-opacity="1" fill-rule="nonzero"/></g></g></g></g><g clip-path="url(#7e55947bcb)"><g clip-path="url(#25b98ad8f8)"><g clip-path="url(#8748a2477f)"><g clip-path="url(#68acf64c86)"><path fill="#000000" d="M 803.550781 394.476562 C 796.464844 393.1875 790.945312 385.953125 790.796875 377.152344 C 790.769531 375.402344 790.949219 373.675781 791.339844 372.015625 C 792.652344 366.390625 797.277344 362.082031 803.125 361.042969 C 810.757812 359.679688 818.195312 364.433594 820.058594 371.863281 C 820.445312 373.40625 820.65625 375.015625 820.683594 376.648438 C 820.683594 376.648438 820.683594 376.652344 820.683594 376.652344 C 820.757812 381.207031 819.398438 385.558594 816.855469 388.898438 C 814.109375 392.503906 810.167969 394.613281 806.03125 394.683594 C 805.191406 394.691406 804.359375 394.621094 803.550781 394.476562 Z M 806.828125 369.777344 C 806.136719 369.652344 805.40625 369.644531 804.675781 369.773438 C 802.363281 370.1875 800.472656 371.898438 799.976562 374.03125 C 799.753906 374.984375 799.648438 375.984375 799.664062 377.003906 C 799.742188 381.828125 802.585938 385.855469 805.886719 385.804688 C 807.804688 385.773438 809.164062 384.359375 809.800781 383.519531 C 811.125 381.78125 811.859375 379.335938 811.816406 376.796875 C 811.796875 375.84375 811.675781 374.910156 811.457031 374.023438 C 810.898438 371.792969 809.035156 370.179688 806.828125 369.777344 Z M 806.828125 369.777344 " fill-opacity="1" fill-rule="nonzero"/></g></g></g></g><g clip-path="url(#7d256563db)"><g clip-path="url(#93453bfd24)"><g clip-path="url(#89d4812a45)"><g clip-path="url(#7fda49fb88)"><path fill="#000000" d="M 829.636719 383.390625 C 825.914062 382.714844 822.433594 380.605469 819.789062 377.359375 C 816.679688 373.542969 814.917969 368.488281 814.828125 363.132812 C 814.796875 361.324219 814.960938 359.519531 815.3125 357.773438 C 816.6875 350.988281 822.234375 345.609375 829.125 344.382812 C 837.78125 342.839844 846.335938 348.140625 848.597656 356.445312 C 849.128906 358.410156 849.417969 360.464844 849.453125 362.546875 C 849.457031 362.546875 849.457031 362.546875 849.453125 362.550781 C 849.644531 374.007812 842.03125 383.464844 832.484375 383.625 C 831.523438 383.640625 830.574219 383.5625 829.636719 383.390625 Z M 833.675781 353.128906 C 832.707031 352.953125 831.691406 352.941406 830.671875 353.121094 C 827.339844 353.714844 824.660156 356.292969 824.003906 359.535156 C 823.777344 360.652344 823.671875 361.816406 823.695312 362.984375 C 823.75 366.308594 824.828125 369.503906 826.65625 371.75 C 828.265625 373.722656 830.285156 374.792969 832.332031 374.753906 C 836.910156 374.675781 840.6875 369.15625 840.582031 362.699219 C 840.558594 361.351562 840.375 360.035156 840.035156 358.78125 C 839.230469 355.816406 836.683594 353.675781 833.675781 353.128906 Z M 833.675781 353.128906 " fill-opacity="1" fill-rule="nonzero"/></g></g></g></g></svg>